<svg width="283" height="442" viewBox="0 0 283 442" fill="none" xmlns="http://www.w3.org/2000/svg">
<g filter="url(#filter0_d_35_196)">
<rect x="10" y="10" width="263.56" height="415.735" rx="14.1193" fill="white"/>
<path d="M141.307 246.908C177.436 246.908 206.724 217.619 206.724 181.491C206.724 145.362 177.436 116.074 141.307 116.074C105.178 116.074 75.8901 145.362 75.8901 181.491C75.8901 217.619 105.178 246.908 141.307 246.908Z" fill="#FFDD67"/>
<path d="M127.134 173.641C130.186 179.964 126.261 188.032 118.629 191.739C110.998 195.228 102.275 193.048 99.2225 186.724C97.478 182.581 125.389 169.498 127.134 173.641ZM155.481 173.641C152.428 179.964 156.353 188.032 163.985 191.739C171.617 195.228 180.339 193.048 183.392 186.724C185.137 182.581 157.225 169.498 155.481 173.641Z" fill="#664E27"/>
<path d="M121.028 154.888C115.141 162.084 100.967 168.625 91.5905 168.625C90.2821 168.625 90.0641 173.423 91.5905 173.423C102.275 173.423 117.757 166.227 124.735 157.941C125.825 156.85 121.9 154.016 121.028 154.888ZM161.586 154.888C167.474 162.084 181.648 168.625 191.024 168.625C192.332 168.625 192.55 173.423 191.024 173.423C180.339 173.423 164.857 166.227 157.879 157.941C156.789 156.85 160.714 154.016 161.586 154.888Z" fill="#917524"/>
<path d="M160.06 212.891C148.285 207.439 134.329 207.439 122.554 212.891C119.719 214.199 123.208 222.049 126.261 220.523C134.111 216.816 145.668 215.507 156.571 220.523C159.406 221.831 163.112 214.417 160.06 212.891Z" fill="#664E27"/>
<path d="M90.3856 290.066C90.3856 289.14 90.3856 288.175 90.4242 287.134C91.6203 287.095 98.0637 287.057 99.337 287.057C100.649 287.057 106.012 287.095 107.324 287.134C107.517 287.134 107.671 287.327 107.71 287.52C107.71 288.638 107.71 289.719 107.71 290.838C107.71 291.764 107.71 292.728 107.71 293.693C107.054 293.731 105.009 293.77 103.002 293.77C103.041 295.352 103.08 296.934 103.08 298.709C103.08 302.567 103.002 306.425 102.925 310.284C101.691 310.361 100.803 310.399 99.5299 310.399C98.2181 310.399 96.8676 310.361 95.5944 310.284C95.3629 310.284 95.2086 310.129 95.2086 309.898C95.1314 306.271 95.0542 302.567 95.0542 298.709C95.0542 296.934 95.0542 295.352 95.0542 293.731C93.318 293.693 91.466 293.654 90.8101 293.616C90.5786 293.616 90.4242 293.461 90.4242 293.23C90.3856 292.15 90.3856 291.108 90.3856 290.066ZM109.406 298.207C109.406 294.349 109.483 291.378 109.483 287.52C112.029 287.134 115.232 286.864 117.392 286.864C123.141 286.864 127.077 287.327 127.077 293.577C127.077 296.432 125.495 298.593 122.948 299.789C123.836 300.098 124.569 300.715 125.109 301.602C126.614 304.612 127.501 307.39 128.157 310.284C126.884 310.438 125.495 310.515 124.145 310.515C123.103 310.515 122.061 310.477 121.019 310.399C120.826 310.399 120.518 310.245 120.441 310.014C119.36 306.734 118.28 303.454 117.508 300.792C117.354 300.792 117.161 300.792 117.007 300.792C117.045 303.956 117.161 307.274 117.2 310.284C116.042 310.361 114.923 310.361 113.804 310.361C112.492 310.361 111.181 310.361 109.869 310.284C109.637 310.284 109.483 310.129 109.483 309.898C109.483 306.271 109.406 302.065 109.406 298.207ZM117.007 296.046H117.663C118.859 296.046 119.707 295.391 119.707 294.387C119.707 293.191 119.322 292.535 117.933 292.535C117.624 292.535 117.277 292.535 117.007 292.574C117.007 293.693 117.007 294.812 117.007 296.046ZM129.638 298.709C129.638 294.85 129.676 290.992 129.792 287.134C130.988 287.095 131.875 287.057 133.149 287.057C134.46 287.057 135.811 287.095 137.123 287.134C137.316 287.134 137.509 287.327 137.509 287.52C137.586 291.146 137.663 294.85 137.663 298.709C137.663 302.567 137.586 306.425 137.509 310.284C136.274 310.361 135.386 310.399 134.113 310.399C132.801 310.399 131.451 310.361 130.178 310.284C129.946 310.284 129.792 310.129 129.792 309.898C129.715 306.271 129.638 302.567 129.638 298.709ZM139.988 310.052L140.914 303.107C143.615 303.956 146.007 304.458 147.744 304.458C149.21 304.458 149.827 303.686 149.827 303.069C149.827 302.297 148.708 301.988 147.204 301.564C144.31 300.754 140.027 299.519 140.027 293.577C140.027 287.327 143.885 286.864 149.171 286.864C151.409 286.864 154.033 287.211 156.618 287.712L155.73 294.156C153.917 293.346 151.178 292.574 148.785 292.574C147.589 292.574 146.818 292.96 146.818 293.654C146.818 294.349 148.014 294.696 149.596 295.159C152.798 296.124 157.582 297.551 157.582 302.914C157.582 309.049 153.338 310.477 148.13 310.477C145.506 310.477 142.651 310.361 139.988 310.052ZM157.869 290.066C157.869 289.14 157.869 288.175 157.907 287.134C159.103 287.095 165.547 287.057 166.82 287.057C168.132 287.057 173.495 287.095 174.807 287.134C175 287.134 175.154 287.327 175.193 287.52C175.193 288.638 175.193 289.719 175.193 290.838C175.193 291.764 175.193 292.728 175.193 293.693C174.537 293.731 172.492 293.77 170.486 293.77C170.524 295.352 170.563 296.934 170.563 298.709C170.563 302.567 170.486 306.425 170.408 310.284C169.174 310.361 168.286 310.399 167.013 310.399C165.701 310.399 164.351 310.361 163.078 310.284C162.846 310.284 162.692 310.129 162.692 309.898C162.615 306.271 162.537 302.567 162.537 298.709C162.537 296.934 162.537 295.352 162.537 293.731C160.801 293.693 158.949 293.654 158.293 293.616C158.062 293.616 157.907 293.461 157.907 293.23C157.869 292.15 157.869 291.108 157.869 290.066ZM176.812 298.709C176.812 294.85 176.85 290.992 176.966 287.134C178.162 287.095 183.68 287.057 184.953 287.057C186.265 287.057 190.393 287.095 191.705 287.134C191.898 287.134 192.052 287.327 192.091 287.52C192.091 288.716 192.091 289.796 192.091 290.876C192.091 291.802 192.091 292.728 192.091 293.693C190.856 293.77 187.229 293.77 185.956 293.77C185.647 293.77 185.107 293.77 184.451 293.77C184.451 294.426 184.451 295.12 184.451 295.815C185.995 295.815 188.078 295.854 189.081 295.854C189.274 295.854 189.428 296.046 189.467 296.239C189.467 297.32 189.467 298.246 189.467 299.172C189.467 299.982 189.467 300.792 189.467 301.718H184.451C184.451 302.413 184.451 303.069 184.451 303.725H184.953C186.265 303.725 190.47 303.763 191.782 303.802C191.975 303.802 192.129 303.995 192.168 304.188C192.168 305.384 192.168 306.464 192.168 307.544C192.168 308.47 192.168 309.396 192.168 310.361C190.933 310.438 186.805 310.477 185.532 310.477C184.22 310.477 178.625 310.361 177.352 310.284C177.12 310.284 176.966 310.129 176.966 309.898C176.889 306.271 176.812 302.567 176.812 298.709Z" fill="black" fill-opacity="0.7"/>
<path d="M58.6333 82.1659C71.6297 82.1659 82.1655 71.6302 82.1655 58.6338C82.1655 45.6373 71.6297 35.1016 58.6333 35.1016C45.6368 35.1016 35.1011 45.6373 35.1011 58.6338C35.1011 71.6302 45.6368 82.1659 58.6333 82.1659Z" fill="#FFDD67"/>
<path d="M53.5347 55.8097C54.6329 58.0845 53.2209 60.9868 50.4755 62.3203C47.7301 63.5753 44.5925 62.7909 43.4943 60.5161C42.8668 59.0258 52.9072 54.3193 53.5347 55.8097ZM63.732 55.8097C62.6338 58.0845 64.0457 60.9868 66.7912 62.3203C69.5366 63.5753 72.6742 62.7909 73.7724 60.5161C74.3999 59.0258 64.3595 54.3193 63.732 55.8097Z" fill="#664E27"/>
<path d="M51.3382 49.0635C49.2203 51.652 44.1216 54.0052 40.7487 54.0052C40.278 54.0052 40.1996 55.7309 40.7487 55.7309C44.5923 55.7309 50.1616 53.1424 52.6717 50.1616C53.0639 49.7694 51.6519 48.7497 51.3382 49.0635ZM65.9281 49.0635C68.046 51.652 73.1447 54.0052 76.5176 54.0052C76.9883 54.0052 77.0667 55.7309 76.5176 55.7309C72.674 55.7309 67.1047 53.1424 64.5946 50.1616C64.2024 49.7694 65.6144 48.7497 65.9281 49.0635Z" fill="#917524"/>
<path d="M65.3791 69.9288C61.1433 67.9678 56.1231 67.9678 51.8873 69.9288C50.8676 70.3994 52.1226 73.2233 53.2208 72.6742C56.0447 71.3407 60.202 70.8701 64.124 72.6742C65.1438 73.1448 66.4773 70.4779 65.3791 69.9288Z" fill="#664E27"/>
<path d="M224.927 400.634C237.923 400.634 248.459 390.099 248.459 377.102C248.459 364.106 237.923 353.57 224.927 353.57C211.93 353.57 201.395 364.106 201.395 377.102C201.395 390.099 211.93 400.634 224.927 400.634Z" fill="#FFDD67"/>
<path d="M219.828 374.278C220.926 376.553 219.514 379.456 216.769 380.789C214.024 382.044 210.886 381.26 209.788 378.985C209.16 377.495 219.201 372.788 219.828 374.278ZM230.025 374.278C228.927 376.553 230.339 379.456 233.085 380.789C235.83 382.044 238.968 381.26 240.066 378.985C240.693 377.495 230.653 372.788 230.025 374.278Z" fill="#664E27"/>
<path d="M217.632 367.532C215.514 370.121 210.415 372.474 207.042 372.474C206.571 372.474 206.493 374.2 207.042 374.2C210.886 374.2 216.455 371.611 218.965 368.63C219.357 368.238 217.945 367.218 217.632 367.532ZM232.222 367.532C234.339 370.121 239.438 372.474 242.811 372.474C243.282 372.474 243.36 374.2 242.811 374.2C238.967 374.2 233.398 371.611 230.888 368.63C230.496 368.238 231.908 367.218 232.222 367.532Z" fill="#917524"/>
<path d="M231.673 388.398C227.437 386.437 222.417 386.437 218.181 388.398C217.161 388.868 218.416 391.692 219.514 391.143C222.338 389.809 226.496 389.339 230.418 391.143C231.437 391.614 232.771 388.947 231.673 388.398Z" fill="#664E27"/>
<path d="M99.4221 28.8262H254.735V308.075" stroke="#0070D8" stroke-width="4.70644" stroke-linecap="round" stroke-linejoin="round"/>
<path d="M187.276 406.91H28.8256V124.524" stroke="#0070D8" stroke-width="4.70644" stroke-linecap="round" stroke-linejoin="round"/>
<rect x="5.29283" y="5.29283" width="272.975" height="425.15" rx="18.8265" stroke="#0070D8" stroke-width="9.41433"/>
</g>
<defs>
<filter id="filter0_d_35_196" x="0.585693" y="0.585693" width="282.389" height="440.839" filterUnits="userSpaceOnUse" color-interpolation-filters="sRGB">
<feFlood flood-opacity="0" result="BackgroundImageFix"/>
<feColorMatrix in="SourceAlpha" type="matrix" values="0 0 0 0 0 0 0 0 0 0 0 0 0 0 0 0 0 0 127 0" result="hardAlpha"/>
<feOffset dy="6.27525"/>
<feComposite in2="hardAlpha" operator="out"/>
<feColorMatrix type="matrix" values="0 0 0 0 0 0 0 0 0 0 0 0 0 0 0 0 0 0 0.15 0"/>
<feBlend mode="normal" in2="BackgroundImageFix" result="effect1_dropShadow_35_196"/>
<feBlend mode="normal" in="SourceGraphic" in2="effect1_dropShadow_35_196" result="shape"/>
</filter>
</defs>
</svg>
