<svg width="283" height="442" viewBox="0 0 283 442" fill="none" xmlns="http://www.w3.org/2000/svg">
<g filter="url(#filter0_d_35_373)">
<rect x="9.77295" y="10.3657" width="263.56" height="415.735" rx="14.1193" fill="white"/>
<path d="M141.956 121.458H149.369V135.631H141.956V121.458Z" fill="#D0D0D0"/>
<path d="M149.369 121.458H154.384V135.631H149.369V121.458Z" fill="#94989B"/>
<path d="M139.339 116.442H151.768V121.458H139.339V116.442Z" fill="#D0D0D0"/>
<path d="M151.768 116.442H156.783V121.458H151.768V116.442Z" fill="#94989B"/>
<path d="M124.075 116.442L77.1929 143.263H171.175L124.075 116.442Z" fill="#ED4C5C"/>
<path d="M90.4937 143.263H157.873V184.694H90.4937V143.263Z" fill="#F9F3D9"/>
<path d="M115.789 155.692H132.579V172.483H115.789V155.692Z" fill="#D6EEF0"/>
<path d="M113.608 153.512V174.445H134.541V153.512H113.608ZM132.579 155.693V163.106H125.165V155.693H132.579ZM123.202 155.693V163.106H115.788V155.693H123.202ZM115.788 172.483V165.069H123.202V172.483H115.788ZM125.165 172.483V165.069H132.579V172.483H125.165Z" fill="#89664C"/>
<path d="M85.2603 201.266H184.694V243.351H85.2603V201.266Z" fill="#F9F3D9"/>
<path d="M151.768 213.695H168.558V230.485H151.768V213.695Z" fill="#D6EEF0"/>
<path d="M149.587 211.733V232.666H170.52V211.733H149.587ZM168.558 213.695V221.109H161.144V213.695H168.558ZM158.963 213.695V221.109H151.55V213.695H158.963ZM151.768 230.486V223.29H159.181V230.704H151.768V230.486ZM161.144 230.486V223.29H168.558V230.704H161.144V230.486ZM111.427 217.402H129.744V243.133H111.427V217.402Z" fill="#89664C"/>
<path d="M109.683 213.695H131.707V217.402H109.683V213.695Z" fill="#DBB471"/>
<path d="M126.691 229.831C127.413 229.831 127.999 229.246 127.999 228.523C127.999 227.8 127.413 227.215 126.691 227.215C125.968 227.215 125.382 227.8 125.382 228.523C125.382 229.246 125.968 229.831 126.691 229.831Z" fill="#F9F3D9"/>
<path d="M75.6655 243.133H206.499V247.276H75.6655V243.133Z" fill="#83BF4F"/>
<path d="M179.46 184.912H90.2753L75.6655 201.266H194.288L179.46 184.912Z" fill="#ED4C5C"/>
<path d="M206.5 234.628C206.5 232.012 204.538 230.049 201.921 230.049C201.485 230.049 200.831 230.049 200.394 230.267C199.74 229.177 198.65 228.305 197.342 228.305C196.469 228.305 195.815 228.523 195.161 228.959V228.305C195.161 226.342 193.635 224.816 191.672 224.816C189.928 224.816 188.619 226.124 188.183 227.651C187.747 227.215 187.311 227.215 186.657 227.215C185.349 227.215 184.258 228.305 184.258 229.613V243.351H202.575C204.538 243.351 206.064 241.824 206.064 239.862C206.064 238.99 205.628 238.117 205.192 237.463C206.064 236.591 206.5 235.719 206.5 234.628Z" fill="#83BF4F"/>
<path d="M206.499 239.644C206.499 238.772 206.063 237.899 205.627 237.245C206.281 236.373 206.499 235.501 206.499 234.41C206.499 231.794 204.537 229.831 201.92 229.831C201.484 229.831 200.83 229.831 200.394 230.049C199.958 229.395 199.522 228.741 198.649 228.305C197.341 228.741 196.687 230.049 196.687 231.358C196.687 231.794 196.687 232.012 196.905 232.23C196.687 232.012 196.251 232.012 195.815 232.012C194.506 232.012 193.416 233.102 193.416 234.41C193.416 235.283 193.852 235.937 194.724 236.373C194.288 237.027 193.852 237.899 193.852 238.772C193.852 240.952 195.597 242.697 197.777 242.697H203.011C204.973 243.133 206.499 241.606 206.499 239.644ZM192.98 240.298C192.98 241.606 191.89 239.862 190.581 239.862C189.273 239.862 188.183 241.606 188.183 240.298C188.183 238.99 189.273 237.899 190.581 237.899C191.89 237.899 192.98 238.99 192.98 240.298ZM187.965 236.373C187.965 237.027 187.529 236.373 186.874 236.373C186.22 236.373 185.784 237.027 185.784 236.373C185.784 235.719 186.22 235.283 186.874 235.283C187.311 235.065 187.965 235.719 187.965 236.373Z" fill="#699635"/>
<path d="M189.927 232.884C189.927 233.538 189.491 232.666 188.837 232.666C188.182 232.666 187.746 233.538 187.746 232.884C187.746 232.23 188.182 231.794 188.837 231.794C189.491 231.794 189.927 232.23 189.927 232.884ZM199.521 238.553C199.521 239.426 198.867 238.117 197.995 238.117C197.123 238.117 196.468 239.426 196.468 238.553C196.468 237.681 197.123 237.027 197.995 237.027C198.649 237.027 199.521 237.681 199.521 238.553ZM203.882 234.41C203.882 235.719 202.792 233.756 201.484 233.756C200.175 233.756 199.085 235.719 199.085 234.41C199.085 233.102 200.175 232.012 201.484 232.012C202.792 232.012 203.882 233.102 203.882 234.41ZM203.882 239.862C203.882 240.516 203.446 239.862 202.792 239.862C202.138 239.862 201.702 240.516 201.702 239.862C201.702 239.208 202.138 238.771 202.792 238.771C203.446 238.771 203.882 239.208 203.882 239.862ZM193.634 230.485C193.634 231.358 192.98 230.049 192.107 230.049C191.235 230.049 190.581 231.358 190.581 230.485C190.581 229.613 191.235 228.959 192.107 228.959C192.98 228.959 193.634 229.613 193.634 230.485ZM97.4711 234.628C97.4711 232.012 95.5086 230.049 92.8919 230.049C92.4558 230.049 91.8017 230.049 91.3656 230.267C90.7114 229.177 89.6211 228.305 88.3128 228.305C87.4405 228.305 86.7864 228.523 86.1322 228.959V228.305C86.1322 226.342 84.6058 224.816 82.6433 224.816C80.8989 224.816 79.5905 226.124 79.3725 227.651C78.9364 227.215 78.5003 227.215 77.8461 227.215C76.5378 227.215 75.6655 228.305 75.6655 229.613V243.351H93.9822C95.9447 243.351 97.4711 241.824 97.4711 239.862C97.4711 238.99 97.035 238.117 96.5989 237.463C97.035 236.591 97.4711 235.719 97.4711 234.628Z" fill="#83BF4F"/>
<path d="M97.4712 239.644C97.4712 238.772 97.0351 237.899 96.5989 237.245C97.2531 236.373 97.4712 235.501 97.4712 234.41C97.4712 231.794 95.5087 229.831 92.892 229.831C92.4559 229.831 91.8017 229.831 91.3656 230.049C90.9295 229.395 90.4934 228.741 89.6212 228.305C88.3128 228.741 87.6587 230.049 87.6587 231.358C87.6587 231.794 87.6587 232.012 87.8767 232.23C87.6587 232.012 87.2225 232.012 86.7864 232.012C85.4781 232.012 84.3878 233.102 84.3878 234.41C84.3878 235.283 84.8239 235.937 85.6962 236.373C85.26 237.027 84.8239 237.899 84.8239 238.772C84.8239 240.952 86.5684 242.697 88.7489 242.697H93.9823C95.9448 243.133 97.4712 241.606 97.4712 239.644ZM83.9517 240.298C83.9517 241.606 82.8614 239.862 81.5531 239.862C80.2448 239.862 79.1545 241.606 79.1545 240.298C79.1545 238.99 80.2448 237.899 81.5531 237.899C82.8614 237.899 83.9517 238.99 83.9517 240.298ZM78.9364 236.373C78.9364 237.027 78.5003 236.373 77.8461 236.373C77.192 236.373 76.7559 237.027 76.7559 236.373C76.7559 235.719 77.192 235.283 77.8461 235.283C78.2823 235.065 78.9364 235.719 78.9364 236.373Z" fill="#699635"/>
<path d="M80.8993 232.884C80.8993 233.538 80.4632 232.666 79.809 232.666C79.1549 232.666 78.7188 233.538 78.7188 232.884C78.7188 232.23 79.1549 231.794 79.809 231.794C80.2451 231.794 80.8993 232.23 80.8993 232.884ZM90.4938 238.553C90.4938 239.426 89.8396 238.117 88.9674 238.117C88.0952 238.117 87.441 239.426 87.441 238.553C87.441 237.681 88.0952 237.027 88.9674 237.027C89.6215 237.027 90.4938 237.681 90.4938 238.553ZM94.8549 234.41C94.8549 235.719 93.7646 233.756 92.4563 233.756C91.1479 233.756 90.0577 235.719 90.0577 234.41C90.0577 233.102 91.366 232.012 92.4563 232.012C93.7646 232.012 94.8549 233.102 94.8549 234.41ZM94.8549 239.862C94.8549 240.516 94.4188 239.862 93.7646 239.862C93.1104 239.862 92.6743 240.516 92.6743 239.862C92.6743 239.208 93.1104 238.771 93.7646 238.771C94.4188 238.553 94.8549 239.208 94.8549 239.862ZM84.6063 230.485C84.6063 231.358 83.9521 230.049 83.0799 230.049C82.2076 230.049 81.5535 231.358 81.5535 230.485C81.5535 229.613 82.2076 228.959 83.0799 228.959C83.9521 228.959 84.6063 229.613 84.6063 230.485Z" fill="#83BF4F"/>
<path d="M104.086 299.077C104.086 290.01 108.176 287.232 114.696 287.232C116.278 287.232 117.513 287.541 119.095 287.888L118.246 293.946L114.696 293.714C113.269 293.637 112.111 294.486 112.111 299.077C112.111 303.669 113.114 304.556 114.696 304.479L118.246 304.209L119.056 310.305C117.474 310.614 116.201 310.729 114.619 310.729C108.137 310.729 104.086 308.723 104.086 299.077ZM119.443 310.343C119.443 310.266 119.559 309.533 119.636 309.147C120.794 302.087 122.414 294.64 123.842 287.502C125.578 287.425 127.353 287.425 129.166 287.425C131.018 287.425 132.832 287.464 134.684 287.502C134.877 287.502 135.07 287.695 135.108 287.888C136.574 295.296 138.388 303.167 139.507 310.652C138.311 310.729 137.462 310.768 136.15 310.768C134.838 310.768 133.719 310.768 132.369 310.652C132.176 310.652 131.983 310.498 131.944 310.266C131.674 309.032 131.443 307.72 131.25 306.408H127.662C127.43 307.836 127.199 309.263 126.929 310.652C125.694 310.729 124.999 310.768 123.726 310.768C122.414 310.768 121.064 310.729 119.791 310.652C119.598 310.652 119.443 310.536 119.443 310.343ZM128.318 301.392H130.478C130.054 298.537 129.668 295.643 129.282 292.749C128.935 295.605 128.626 298.498 128.318 301.392ZM140.453 310.421L141.379 303.476C144.08 304.324 146.472 304.826 148.208 304.826C149.675 304.826 150.292 304.054 150.292 303.437C150.292 302.665 149.173 302.357 147.668 301.932C144.775 301.122 140.492 299.887 140.492 293.946C140.492 287.695 144.35 287.232 149.636 287.232C151.874 287.232 154.498 287.579 157.083 288.081L156.195 294.524C154.382 293.714 151.642 292.942 149.25 292.942C148.054 292.942 147.282 293.328 147.282 294.023C147.282 294.717 148.479 295.064 150.06 295.527C153.263 296.492 158.047 297.92 158.047 303.283C158.047 309.417 153.803 310.845 148.594 310.845C145.971 310.845 143.115 310.729 140.453 310.421ZM158.479 310.343C158.479 310.266 158.595 309.533 158.672 309.147C159.829 302.087 161.45 294.64 162.877 287.502C164.614 287.425 166.388 287.425 168.202 287.425C170.054 287.425 171.867 287.464 173.719 287.502C173.912 287.502 174.105 287.695 174.144 287.888C175.61 295.296 177.423 303.167 178.542 310.652C177.346 310.729 176.497 310.768 175.185 310.768C173.874 310.768 172.755 310.768 171.404 310.652C171.211 310.652 171.018 310.498 170.98 310.266C170.71 309.032 170.478 307.72 170.285 306.408H166.697C166.466 307.836 166.234 309.263 165.964 310.652C164.729 310.729 164.035 310.768 162.762 310.768C161.45 310.768 160.099 310.729 158.826 310.652C158.633 310.652 158.479 310.536 158.479 310.343ZM167.353 301.392H169.514C169.089 298.537 168.703 295.643 168.318 292.749C167.97 295.605 167.662 298.498 167.353 301.392Z" fill="black" fill-opacity="0.7"/>
<path d="M99.1948 29.1919H254.507V308.441" stroke="#F15744" stroke-width="4.70644" stroke-linecap="round" stroke-linejoin="round"/>
<path d="M187.048 407.276H28.5983V124.889" stroke="#F15744" stroke-width="4.70644" stroke-linecap="round" stroke-linejoin="round"/>
<path d="M58.7197 37.271H61.3867V42.3696H58.7197V37.271Z" fill="#D0D0D0"/>
<path d="M61.3862 37.271H63.1904V42.3696H61.3862V37.271Z" fill="#94989B"/>
<path d="M57.7783 35.4673H62.2494V37.2714H57.7783V35.4673Z" fill="#D0D0D0"/>
<path d="M62.2495 35.4673H64.0536V37.2714H62.2495V35.4673Z" fill="#94989B"/>
<path d="M52.2876 35.4673L35.4229 45.1155H69.2308L52.2876 35.4673Z" fill="#ED4C5C"/>
<path d="M40.2075 45.1155H64.4457V60.0192H40.2075V45.1155Z" fill="#F9F3D9"/>
<path d="M49.3066 49.5862H55.3466V55.6261H49.3066V49.5862Z" fill="#D6EEF0"/>
<path d="M48.5229 48.802V56.3323H56.0532V48.802H48.5229ZM55.3473 49.5864V52.2534H52.6803V49.5864H55.3473ZM51.9743 49.5864V52.2534H49.3074V49.5864H51.9743ZM49.3074 55.6263V52.9594H51.9743V55.6263H49.3074ZM52.6803 55.6263V52.9594H55.3473V55.6263H52.6803Z" fill="#89664C"/>
<path d="M38.3252 65.9802H74.0941V81.1193H38.3252V65.9802Z" fill="#F9F3D9"/>
<path d="M62.2495 70.4517H68.2894V76.4916H62.2495V70.4517Z" fill="#D6EEF0"/>
<path d="M61.4649 69.7454V77.2757H68.9952V69.7454H61.4649ZM68.2892 70.4513V73.1183H65.6223V70.4513H68.2892ZM64.8379 70.4513V73.1183H62.1709V70.4513H64.8379ZM62.2493 76.4913V73.9027H64.9163V76.5697H62.2493V76.4913ZM65.6223 76.4913V73.9027H68.2892V76.5697H65.6223V76.4913ZM47.7378 71.7848H54.3268V81.0408H47.7378V71.7848Z" fill="#89664C"/>
<path d="M47.1104 70.4517H55.0329V71.7852H47.1104V70.4517Z" fill="#DBB471"/>
<path d="M53.228 76.2552C53.4878 76.2552 53.6983 76.0446 53.6983 75.7849C53.6983 75.5252 53.4878 75.3147 53.228 75.3147C52.9683 75.3147 52.7578 75.5252 52.7578 75.7849C52.7578 76.0446 52.9683 76.2552 53.228 76.2552Z" fill="#F9F3D9"/>
<path d="M34.874 81.041H81.9384V82.5314H34.874V81.041Z" fill="#83BF4F"/>
<path d="M72.2118 60.0972H40.1295L34.874 65.9802H77.5457L72.2118 60.0972Z" fill="#ED4C5C"/>
<path d="M81.9375 77.9817C81.9375 77.0404 81.2315 76.3345 80.2902 76.3345C80.1333 76.3345 79.898 76.3345 79.7411 76.4129C79.5058 76.0207 79.1136 75.707 78.643 75.707C78.3292 75.707 78.0939 75.7854 77.8586 75.9423V75.707C77.8586 75.001 77.3095 74.4519 76.6035 74.4519C75.976 74.4519 75.5053 74.9225 75.3485 75.4716C75.1916 75.3148 75.0347 75.3148 74.7994 75.3148C74.3287 75.3148 73.9365 75.707 73.9365 76.1776V81.1194H80.5255C81.2315 81.1194 81.7806 80.5703 81.7806 79.8643C81.7806 79.5505 81.6237 79.2368 81.4668 79.0015C81.7806 78.6877 81.9375 78.3739 81.9375 77.9817Z" fill="#83BF4F"/>
<path d="M81.9382 79.7859C81.9382 79.4722 81.7813 79.1584 81.6244 78.9231C81.8597 78.6093 81.9382 78.2956 81.9382 77.9034C81.9382 76.9621 81.2322 76.2561 80.2909 76.2561C80.1341 76.2561 79.8987 76.2561 79.7419 76.3346C79.585 76.0992 79.4281 75.8639 79.1143 75.707C78.6437 75.8639 78.4084 76.3346 78.4084 76.8052C78.4084 76.9621 78.4084 77.0405 78.4868 77.119C78.4084 77.0405 78.2515 77.0405 78.0946 77.0405C77.624 77.0405 77.2318 77.4327 77.2318 77.9034C77.2318 78.2171 77.3886 78.4525 77.7024 78.6093C77.5455 78.8447 77.3886 79.1584 77.3886 79.4722C77.3886 80.2566 78.0162 80.8841 78.8006 80.8841H80.6831C81.3891 81.041 81.9382 80.4919 81.9382 79.7859ZM77.0749 80.0213C77.0749 80.4919 76.6827 79.8644 76.212 79.8644C75.7414 79.8644 75.3492 80.4919 75.3492 80.0213C75.3492 79.5506 75.7414 79.1584 76.212 79.1584C76.6827 79.1584 77.0749 79.5506 77.0749 80.0213ZM75.2707 78.6093C75.2707 78.8447 75.1139 78.6093 74.8785 78.6093C74.6432 78.6093 74.4863 78.8447 74.4863 78.6093C74.4863 78.374 74.6432 78.2171 74.8785 78.2171C75.0354 78.1387 75.2707 78.374 75.2707 78.6093Z" fill="#699635"/>
<path d="M75.9769 77.3542C75.9769 77.5895 75.82 77.2758 75.5847 77.2758C75.3494 77.2758 75.1925 77.5895 75.1925 77.3542C75.1925 77.1189 75.3494 76.962 75.5847 76.962C75.82 76.962 75.9769 77.1189 75.9769 77.3542ZM79.4283 79.3937C79.4283 79.7074 79.193 79.2368 78.8792 79.2368C78.5654 79.2368 78.3301 79.7074 78.3301 79.3937C78.3301 79.0799 78.5654 78.8446 78.8792 78.8446C79.1145 78.8446 79.4283 79.0799 79.4283 79.3937ZM80.9971 77.9033C80.9971 78.3739 80.6049 77.668 80.1343 77.668C79.6636 77.668 79.2714 78.3739 79.2714 77.9033C79.2714 77.4326 79.6636 77.0404 80.1343 77.0404C80.6049 77.0404 80.9971 77.4326 80.9971 77.9033ZM80.9971 79.8643C80.9971 80.0996 80.8402 79.8643 80.6049 79.8643C80.3696 79.8643 80.2127 80.0996 80.2127 79.8643C80.2127 79.629 80.3696 79.4721 80.6049 79.4721C80.8402 79.4721 80.9971 79.629 80.9971 79.8643ZM77.3104 76.4914C77.3104 76.8051 77.0751 76.3345 76.7613 76.3345C76.4475 76.3345 76.2122 76.8051 76.2122 76.4914C76.2122 76.1776 76.4475 75.9423 76.7613 75.9423C77.0751 75.9423 77.3104 76.1776 77.3104 76.4914ZM42.7181 77.9817C42.7181 77.0404 42.0121 76.3345 41.0708 76.3345C40.914 76.3345 40.6786 76.3345 40.5217 76.4129C40.2864 76.0207 39.8942 75.707 39.4236 75.707C39.1098 75.707 38.8745 75.7854 38.6392 75.9423V75.707C38.6392 75.001 38.0901 74.4519 37.3841 74.4519C36.7566 74.4519 36.286 74.9225 36.2075 75.4716C36.0506 75.3148 35.8938 75.3148 35.6584 75.3148C35.1878 75.3148 34.874 75.707 34.874 76.1776V81.1194H41.463C42.169 81.1194 42.7181 80.5703 42.7181 79.8643C42.7181 79.5505 42.5612 79.2368 42.4043 79.0015C42.5612 78.6877 42.7181 78.3739 42.7181 77.9817Z" fill="#83BF4F"/>
<path d="M42.7175 79.7859C42.7175 79.4722 42.5606 79.1584 42.4037 78.9231C42.639 78.6093 42.7175 78.2956 42.7175 77.9034C42.7175 76.9621 42.0115 76.2561 41.0702 76.2561C40.9134 76.2561 40.678 76.2561 40.5211 76.3346C40.3643 76.0992 40.2074 75.8639 39.8936 75.707C39.423 75.8639 39.1877 76.3346 39.1877 76.8052C39.1877 76.9621 39.1877 77.0405 39.2661 77.119C39.1877 77.0405 39.0308 77.0405 38.8739 77.0405C38.4033 77.0405 38.011 77.4327 38.011 77.9034C38.011 78.2171 38.1679 78.4525 38.4817 78.6093C38.3248 78.8447 38.1679 79.1584 38.1679 79.4722C38.1679 80.2566 38.7955 80.8841 39.5799 80.8841H41.4624C42.1684 81.041 42.7175 80.4919 42.7175 79.7859ZM37.8542 80.0213C37.8542 80.4919 37.462 79.8644 36.9913 79.8644C36.5207 79.8644 36.1285 80.4919 36.1285 80.0213C36.1285 79.5506 36.5207 79.1584 36.9913 79.1584C37.462 79.1584 37.8542 79.5506 37.8542 80.0213ZM36.05 78.6093C36.05 78.8447 35.8932 78.6093 35.6578 78.6093C35.4225 78.6093 35.2656 78.8447 35.2656 78.6093C35.2656 78.374 35.4225 78.2171 35.6578 78.2171C35.8147 78.1387 36.05 78.374 36.05 78.6093Z" fill="#699635"/>
<path d="M36.7566 77.3541C36.7566 77.5894 36.5997 77.2756 36.3644 77.2756C36.129 77.2756 35.9722 77.5894 35.9722 77.3541C35.9722 77.1188 36.129 76.9619 36.3644 76.9619C36.5213 76.9619 36.7566 77.1188 36.7566 77.3541ZM40.208 79.3935C40.208 79.7073 39.9726 79.2366 39.6589 79.2366C39.3451 79.2366 39.1098 79.7073 39.1098 79.3935C39.1098 79.0798 39.3451 78.8444 39.6589 78.8444C39.8942 78.8444 40.208 79.0798 40.208 79.3935ZM41.7768 77.9032C41.7768 78.3738 41.3846 77.6678 40.9139 77.6678C40.4433 77.6678 40.0511 78.3738 40.0511 77.9032C40.0511 77.4325 40.5217 77.0403 40.9139 77.0403C41.3846 77.0403 41.7768 77.4325 41.7768 77.9032ZM41.7768 79.8642C41.7768 80.0995 41.6199 79.8642 41.3846 79.8642C41.1492 79.8642 40.9924 80.0995 40.9924 79.8642C40.9924 79.6288 41.1492 79.472 41.3846 79.472C41.6199 79.3935 41.7768 79.6288 41.7768 79.8642ZM38.0901 76.4912C38.0901 76.805 37.8547 76.3343 37.541 76.3343C37.2272 76.3343 36.9919 76.805 36.9919 76.4912C36.9919 76.1775 37.2272 75.9421 37.541 75.9421C37.8547 75.9421 38.0901 76.1775 38.0901 76.4912Z" fill="#83BF4F"/>
<path d="M225.014 355.74H227.681V360.839H225.014V355.74Z" fill="#D0D0D0"/>
<path d="M227.681 355.74H229.485V360.839H227.681V355.74Z" fill="#94989B"/>
<path d="M224.072 353.936H228.543V355.74H224.072V353.936Z" fill="#D0D0D0"/>
<path d="M228.543 353.936H230.348V355.74H228.543V353.936Z" fill="#94989B"/>
<path d="M218.582 353.936L201.717 363.584H235.525L218.582 353.936Z" fill="#ED4C5C"/>
<path d="M206.501 363.584H230.74V378.488H206.501V363.584Z" fill="#F9F3D9"/>
<path d="M215.601 368.055H221.641V374.095H215.601V368.055Z" fill="#D6EEF0"/>
<path d="M214.816 367.271V374.801H222.347V367.271H214.816ZM221.641 368.055V370.722H218.974V368.055H221.641ZM218.268 368.055V370.722H215.601V368.055H218.268ZM215.601 374.095V371.428H218.268V374.095H215.601ZM218.974 374.095V371.428H221.641V374.095H218.974Z" fill="#89664C"/>
<path d="M204.619 384.449H240.388V399.589H204.619V384.449Z" fill="#F9F3D9"/>
<path d="M228.543 388.92H234.583V394.96H228.543V388.92Z" fill="#D6EEF0"/>
<path d="M227.759 388.215V395.745H235.29V388.215H227.759ZM234.584 388.921V391.588H231.917V388.921H234.584ZM231.132 388.921V391.588H228.465V388.921H231.132ZM228.544 394.96V392.372H231.211V395.039H228.544V394.96ZM231.917 394.96V392.372H234.584V395.039H231.917V394.96ZM214.032 390.254H220.621V399.51H214.032V390.254Z" fill="#89664C"/>
<path d="M213.404 388.92H221.327V390.254H213.404V388.92Z" fill="#DBB471"/>
<path d="M219.522 394.724C219.782 394.724 219.992 394.514 219.992 394.254C219.992 393.994 219.782 393.784 219.522 393.784C219.262 393.784 219.052 393.994 219.052 394.254C219.052 394.514 219.262 394.724 219.522 394.724Z" fill="#F9F3D9"/>
<path d="M201.168 399.51H248.232V401H201.168V399.51Z" fill="#83BF4F"/>
<path d="M238.506 378.566H206.423L201.168 384.449H243.84L238.506 378.566Z" fill="#ED4C5C"/>
<path d="M248.232 396.451C248.232 395.509 247.526 394.803 246.585 394.803C246.428 394.803 246.193 394.803 246.036 394.882C245.801 394.49 245.409 394.176 244.938 394.176C244.624 394.176 244.389 394.254 244.153 394.411V394.176C244.153 393.47 243.604 392.921 242.898 392.921C242.271 392.921 241.8 393.392 241.643 393.941C241.486 393.784 241.33 393.784 241.094 393.784C240.624 393.784 240.231 394.176 240.231 394.647V399.588H246.82C247.526 399.588 248.076 399.039 248.076 398.333C248.076 398.02 247.919 397.706 247.762 397.47C248.076 397.157 248.232 396.843 248.232 396.451Z" fill="#83BF4F"/>
<path d="M248.232 398.255C248.232 397.941 248.075 397.627 247.918 397.392C248.154 397.078 248.232 396.765 248.232 396.372C248.232 395.431 247.526 394.725 246.585 394.725C246.428 394.725 246.193 394.725 246.036 394.804C245.879 394.568 245.722 394.333 245.408 394.176C244.938 394.333 244.702 394.804 244.702 395.274C244.702 395.431 244.702 395.51 244.781 395.588C244.702 395.51 244.545 395.51 244.389 395.51C243.918 395.51 243.526 395.902 243.526 396.372C243.526 396.686 243.683 396.921 243.996 397.078C243.839 397.314 243.683 397.627 243.683 397.941C243.683 398.726 244.31 399.353 245.095 399.353H246.977C247.683 399.51 248.232 398.961 248.232 398.255ZM243.369 398.49C243.369 398.961 242.977 398.333 242.506 398.333C242.035 398.333 241.643 398.961 241.643 398.49C241.643 398.02 242.035 397.627 242.506 397.627C242.977 397.627 243.369 398.02 243.369 398.49ZM241.565 397.078C241.565 397.314 241.408 397.078 241.172 397.078C240.937 397.078 240.78 397.314 240.78 397.078C240.78 396.843 240.937 396.686 241.172 396.686C241.329 396.608 241.565 396.843 241.565 397.078Z" fill="#699635"/>
<path d="M242.271 395.823C242.271 396.059 242.114 395.745 241.879 395.745C241.643 395.745 241.486 396.059 241.486 395.823C241.486 395.588 241.643 395.431 241.879 395.431C242.114 395.431 242.271 395.588 242.271 395.823ZM245.722 397.863C245.722 398.176 245.487 397.706 245.173 397.706C244.859 397.706 244.624 398.176 244.624 397.863C244.624 397.549 244.859 397.314 245.173 397.314C245.408 397.314 245.722 397.549 245.722 397.863ZM247.291 396.372C247.291 396.843 246.899 396.137 246.428 396.137C245.958 396.137 245.565 396.843 245.565 396.372C245.565 395.902 245.958 395.509 246.428 395.509C246.899 395.509 247.291 395.902 247.291 396.372ZM247.291 398.333C247.291 398.569 247.134 398.333 246.899 398.333C246.664 398.333 246.507 398.569 246.507 398.333C246.507 398.098 246.664 397.941 246.899 397.941C247.134 397.941 247.291 398.098 247.291 398.333ZM243.604 394.96C243.604 395.274 243.369 394.803 243.055 394.803C242.741 394.803 242.506 395.274 242.506 394.96C242.506 394.647 242.741 394.411 243.055 394.411C243.369 394.411 243.604 394.647 243.604 394.96ZM209.012 396.451C209.012 395.509 208.306 394.803 207.365 394.803C207.208 394.803 206.973 394.803 206.816 394.882C206.58 394.49 206.188 394.176 205.718 394.176C205.404 394.176 205.168 394.254 204.933 394.411V394.176C204.933 393.47 204.384 392.921 203.678 392.921C203.051 392.921 202.58 393.392 202.501 393.941C202.345 393.784 202.188 393.784 201.952 393.784C201.482 393.784 201.168 394.176 201.168 394.647V399.588H207.757C208.463 399.588 209.012 399.039 209.012 398.333C209.012 398.02 208.855 397.706 208.698 397.47C208.855 397.157 209.012 396.843 209.012 396.451Z" fill="#83BF4F"/>
<path d="M209.012 398.255C209.012 397.941 208.855 397.627 208.698 397.392C208.933 397.078 209.012 396.765 209.012 396.372C209.012 395.431 208.306 394.725 207.365 394.725C207.208 394.725 206.972 394.725 206.816 394.804C206.659 394.568 206.502 394.333 206.188 394.176C205.717 394.333 205.482 394.804 205.482 395.274C205.482 395.431 205.482 395.51 205.561 395.588C205.482 395.51 205.325 395.51 205.168 395.51C204.698 395.51 204.305 395.902 204.305 396.372C204.305 396.686 204.462 396.921 204.776 397.078C204.619 397.314 204.462 397.627 204.462 397.941C204.462 398.726 205.09 399.353 205.874 399.353H207.757C208.463 399.51 209.012 398.961 209.012 398.255ZM204.149 398.49C204.149 398.961 203.756 398.333 203.286 398.333C202.815 398.333 202.423 398.961 202.423 398.49C202.423 398.02 202.815 397.627 203.286 397.627C203.756 397.627 204.149 398.02 204.149 398.49ZM202.344 397.078C202.344 397.314 202.188 397.078 201.952 397.078C201.717 397.078 201.56 397.314 201.56 397.078C201.56 396.843 201.717 396.686 201.952 396.686C202.109 396.608 202.344 396.843 202.344 397.078Z" fill="#699635"/>
<path d="M203.051 395.823C203.051 396.058 202.894 395.745 202.658 395.745C202.423 395.745 202.266 396.058 202.266 395.823C202.266 395.588 202.423 395.431 202.658 395.431C202.815 395.431 203.051 395.588 203.051 395.823ZM206.502 397.863C206.502 398.176 206.267 397.706 205.953 397.706C205.639 397.706 205.404 398.176 205.404 397.863C205.404 397.549 205.639 397.313 205.953 397.313C206.188 397.313 206.502 397.549 206.502 397.863ZM208.071 396.372C208.071 396.843 207.679 396.137 207.208 396.137C206.737 396.137 206.345 396.843 206.345 396.372C206.345 395.902 206.816 395.509 207.208 395.509C207.679 395.509 208.071 395.902 208.071 396.372ZM208.071 398.333C208.071 398.568 207.914 398.333 207.679 398.333C207.443 398.333 207.286 398.568 207.286 398.333C207.286 398.098 207.443 397.941 207.679 397.941C207.914 397.863 208.071 398.098 208.071 398.333ZM204.384 394.96C204.384 395.274 204.149 394.803 203.835 394.803C203.521 394.803 203.286 395.274 203.286 394.96C203.286 394.646 203.521 394.411 203.835 394.411C204.149 394.411 204.384 394.646 204.384 394.96Z" fill="#83BF4F"/>
<rect x="5.06651" y="5.65929" width="272.973" height="425.148" rx="18.8258" stroke="#F15744" stroke-width="9.41288"/>
</g>
<defs>
<filter id="filter0_d_35_373" x="0.359863" y="0.952881" width="282.386" height="440.836" filterUnits="userSpaceOnUse" color-interpolation-filters="sRGB">
<feFlood flood-opacity="0" result="BackgroundImageFix"/>
<feColorMatrix in="SourceAlpha" type="matrix" values="0 0 0 0 0 0 0 0 0 0 0 0 0 0 0 0 0 0 127 0" result="hardAlpha"/>
<feOffset dy="6.27525"/>
<feComposite in2="hardAlpha" operator="out"/>
<feColorMatrix type="matrix" values="0 0 0 0 0 0 0 0 0 0 0 0 0 0 0 0 0 0 0.15 0"/>
<feBlend mode="normal" in2="BackgroundImageFix" result="effect1_dropShadow_35_373"/>
<feBlend mode="normal" in="SourceGraphic" in2="effect1_dropShadow_35_373" result="shape"/>
</filter>
</defs>
</svg>
