<svg width="283" height="442" viewBox="0 0 283 442" fill="none" xmlns="http://www.w3.org/2000/svg">
<g filter="url(#filter0_d_35_172)">
<rect x="10" y="10" width="263.331" height="415.735" rx="14.1193" fill="white"/>
<path d="M58.5908 82.1657C71.576 82.1657 82.1025 71.63 82.1025 58.6335C82.1025 45.637 71.576 35.1013 58.5908 35.1013C45.6057 35.1013 35.0791 45.637 35.0791 58.6335C35.0791 71.63 45.6057 82.1657 58.5908 82.1657Z" fill="#FFDD67"/>
<path d="M49.5778 56.751C51.742 56.751 53.4964 54.9951 53.4964 52.829C53.4964 50.6629 51.742 48.907 49.5778 48.907C47.4136 48.907 45.6592 50.6629 45.6592 52.829C45.6592 54.9951 47.4136 56.751 49.5778 56.751Z" fill="#664E27"/>
<path d="M67.6042 56.751C69.7684 56.751 71.5228 54.9951 71.5228 52.829C71.5228 50.6629 69.7684 48.907 67.6042 48.907C65.44 48.907 63.6855 50.6629 63.6855 52.829C63.6855 54.9951 65.44 56.751 67.6042 56.751Z" fill="#664E27"/>
<path d="M71.2087 62.5555C67.8387 67.3404 63.7634 68.517 58.5908 68.517C53.4182 68.517 49.3429 67.3404 45.9728 62.5555C45.5026 61.928 44.2486 62.3202 44.5621 63.2615C46.3647 69.5368 52.3994 73.2235 58.6692 73.2235C64.939 73.2235 70.9736 69.5368 72.7762 63.2615C72.9329 62.3202 71.679 61.928 71.2087 62.5555Z" fill="#664E27"/>
<path d="M224.74 400.634C237.725 400.634 248.252 390.098 248.252 377.102C248.252 364.106 237.725 353.57 224.74 353.57C211.755 353.57 201.229 364.106 201.229 377.102C201.229 390.098 211.755 400.634 224.74 400.634Z" fill="#FFDD67"/>
<path d="M215.727 375.22C217.891 375.22 219.646 373.464 219.646 371.298C219.646 369.131 217.891 367.375 215.727 367.375C213.563 367.375 211.809 369.131 211.809 371.298C211.809 373.464 213.563 375.22 215.727 375.22Z" fill="#664E27"/>
<path d="M233.754 375.22C235.918 375.22 237.672 373.464 237.672 371.298C237.672 369.131 235.918 367.375 233.754 367.375C231.59 367.375 229.835 369.131 229.835 371.298C229.835 373.464 231.59 375.22 233.754 375.22Z" fill="#664E27"/>
<path d="M237.358 381.024C233.988 385.809 229.913 386.986 224.74 386.986C219.568 386.986 215.493 385.809 212.122 381.024C211.652 380.397 210.398 380.789 210.712 381.73C212.514 388.006 218.549 391.692 224.819 391.692C231.089 391.692 237.123 388.006 238.926 381.73C239.083 380.789 237.829 380.397 237.358 381.024Z" fill="#664E27"/>
<path d="M141.309 246.913C177.44 246.913 206.729 217.624 206.729 181.493C206.729 145.363 177.44 116.074 141.309 116.074C105.179 116.074 75.8899 145.363 75.8899 181.493C75.8899 217.624 105.179 246.913 141.309 246.913Z" fill="#FFDD67"/>
<path d="M116.232 176.26C122.254 176.26 127.135 171.379 127.135 165.357C127.135 159.335 122.254 154.454 116.232 154.454C110.21 154.454 105.329 159.335 105.329 165.357C105.329 171.379 110.21 176.26 116.232 176.26Z" fill="#664E27"/>
<path d="M166.387 176.26C172.408 176.26 177.29 171.379 177.29 165.357C177.29 159.335 172.408 154.454 166.387 154.454C160.365 154.454 155.483 159.335 155.483 165.357C155.483 171.379 160.365 176.26 166.387 176.26Z" fill="#664E27"/>
<path d="M176.418 192.397C167.041 205.699 155.702 208.97 141.31 208.97C126.917 208.97 115.578 205.699 106.201 192.397C104.893 190.653 101.404 191.743 102.276 194.36C107.291 211.805 124.082 222.054 141.528 222.054C158.973 222.054 175.764 211.805 180.779 194.36C181.215 191.743 177.726 190.653 176.418 192.397Z" fill="#664E27"/>
<path d="M104.084 298.714C104.084 294.856 104.123 290.997 104.238 287.139C105.435 287.1 110.952 287.062 112.225 287.062C113.537 287.062 117.125 287.1 118.437 287.139C118.63 287.139 118.784 287.332 118.823 287.525C118.823 288.721 118.823 289.801 118.823 290.882C118.823 291.808 118.823 292.734 118.823 293.698C117.588 293.775 114.463 293.814 113.19 293.814C112.92 293.814 112.457 293.814 111.878 293.775C111.878 294.856 111.878 295.936 111.878 297.132C113.344 297.132 115.273 297.171 116.199 297.171C116.392 297.171 116.547 297.364 116.585 297.557C116.585 298.753 116.585 299.833 116.585 300.913C116.585 301.839 116.585 302.765 116.585 303.73C115.505 303.807 113.306 303.846 111.878 303.846C111.917 306.006 111.955 308.167 111.955 310.289C110.72 310.366 109.833 310.405 108.56 310.405C107.248 310.405 105.898 310.366 104.624 310.289C104.393 310.289 104.238 310.135 104.238 309.903C104.161 306.276 104.084 302.572 104.084 298.714ZM120.286 298.714C120.286 294.856 120.325 290.997 120.44 287.139C121.637 287.1 127.154 287.062 128.427 287.062C129.739 287.062 133.867 287.1 135.179 287.139C135.372 287.139 135.527 287.332 135.565 287.525C135.565 288.721 135.565 289.801 135.565 290.882C135.565 291.808 135.565 292.734 135.565 293.698C134.33 293.775 130.704 293.775 129.43 293.775C129.122 293.775 128.582 293.775 127.926 293.775C127.926 294.431 127.926 295.126 127.926 295.82C129.469 295.82 131.552 295.859 132.556 295.859C132.749 295.859 132.903 296.052 132.941 296.245C132.941 297.325 132.941 298.251 132.941 299.177C132.941 299.987 132.941 300.798 132.941 301.724H127.926C127.926 302.418 127.926 303.074 127.926 303.73H128.427C129.739 303.73 133.945 303.768 135.256 303.807C135.449 303.807 135.604 304 135.642 304.193C135.642 305.389 135.642 306.469 135.642 307.55C135.642 308.476 135.642 309.402 135.642 310.366C134.408 310.443 130.279 310.482 129.006 310.482C127.694 310.482 122.1 310.366 120.826 310.289C120.595 310.289 120.44 310.135 120.44 309.903C120.363 306.276 120.286 302.572 120.286 298.714ZM137.807 298.714C137.807 294.856 137.845 290.997 137.961 287.139C139.157 287.1 140.045 287.062 141.318 287.062C142.63 287.062 143.98 287.1 145.292 287.139C145.485 287.139 145.678 287.332 145.678 287.525C145.755 291.152 145.832 294.856 145.832 298.714C145.832 300.45 145.794 302.109 145.794 303.73H145.948C147.26 303.73 150.539 303.768 151.851 303.807C152.044 303.807 152.198 304 152.237 304.193C152.237 305.389 152.237 306.469 152.237 307.55C152.237 308.476 152.237 309.402 152.237 310.366C151.002 310.443 147.8 310.482 146.527 310.482C145.215 310.482 139.62 310.366 138.347 310.289C138.116 310.289 137.961 310.135 137.961 309.903C137.884 306.276 137.807 302.572 137.807 298.714ZM153.632 298.714C153.632 294.856 153.671 290.997 153.786 287.139C154.983 287.1 155.87 287.062 157.143 287.062C158.455 287.062 159.805 287.1 161.117 287.139C161.31 287.139 161.503 287.332 161.503 287.525C161.58 291.152 161.657 294.856 161.657 298.714C161.657 302.572 161.58 306.431 161.503 310.289C160.268 310.366 159.381 310.405 158.108 310.405C156.796 310.405 155.446 310.366 154.172 310.289C153.941 310.289 153.786 310.135 153.786 309.903C153.709 306.276 153.632 302.572 153.632 298.714ZM163.79 290.071C163.79 289.145 163.79 288.181 163.829 287.139C165.025 287.1 170.928 287.062 172.201 287.062C173.513 287.062 177.641 287.1 178.953 287.139C179.146 287.139 179.339 287.332 179.339 287.525V291.383C177.95 294.084 175.018 299.64 172.51 303.73C174.053 303.73 177.796 303.768 179.03 303.807C179.223 303.807 179.378 304 179.416 304.193C179.416 305.35 179.416 306.431 179.416 307.55C179.416 308.476 179.416 309.402 179.416 310.366C178.182 310.443 174.053 310.482 172.78 310.482C171.468 310.482 165.488 310.366 164.214 310.289C163.983 310.289 163.829 310.135 163.829 309.903C163.79 309.093 163.79 308.321 163.79 307.55C163.79 306.855 163.79 306.122 163.829 305.35C165.796 301.492 168.189 297.711 170.542 293.775C168.189 293.737 165.063 293.66 164.214 293.621C163.983 293.621 163.829 293.467 163.829 293.235C163.79 292.155 163.79 291.113 163.79 290.071Z" fill="black" fill-opacity="0.7"/>
<path d="M99.4219 28.8259H254.734V308.075" stroke="#0070D8" stroke-width="4.70644" stroke-linecap="round" stroke-linejoin="round"/>
<path d="M187.276 406.91H28.8258V124.523" stroke="#0070D8" stroke-width="4.70644" stroke-linecap="round" stroke-linejoin="round"/>
<rect x="5.29283" y="5.29283" width="272.746" height="425.15" rx="18.8265" stroke="#0070D8" stroke-width="9.41433"/>
</g>
<defs>
<filter id="filter0_d_35_172" x="0.585693" y="0.585693" width="282.16" height="440.839" filterUnits="userSpaceOnUse" color-interpolation-filters="sRGB">
<feFlood flood-opacity="0" result="BackgroundImageFix"/>
<feColorMatrix in="SourceAlpha" type="matrix" values="0 0 0 0 0 0 0 0 0 0 0 0 0 0 0 0 0 0 127 0" result="hardAlpha"/>
<feOffset dy="6.27525"/>
<feComposite in2="hardAlpha" operator="out"/>
<feColorMatrix type="matrix" values="0 0 0 0 0 0 0 0 0 0 0 0 0 0 0 0 0 0 0.15 0"/>
<feBlend mode="normal" in2="BackgroundImageFix" result="effect1_dropShadow_35_172"/>
<feBlend mode="normal" in="SourceGraphic" in2="effect1_dropShadow_35_172" result="shape"/>
</filter>
</defs>
</svg>
