<svg width="283" height="442" viewBox="0 0 283 442" fill="none" xmlns="http://www.w3.org/2000/svg">
<g filter="url(#filter0_d_35_559)">
<rect x="9.43945" y="10.3657" width="263.56" height="415.735" rx="14.1193" fill="white"/>
<path d="M206.018 181.839C206.063 180.284 206.473 158.062 193.323 143.596C192.738 142.303 189.967 137.092 181.022 130.722C175.106 126.067 168.935 122.781 168.429 122.517C168.425 122.515 168.416 122.511 168.412 122.508C167.854 122.21 156.947 116.44 143.709 116.44C142.703 116.44 141.709 116.499 140.726 116.566V116.549C130.632 116.329 120.606 118.926 114.564 121.654C109.204 124.074 103.253 128.132 102.824 128.446C95.4009 132.598 81.3255 149.259 80.2113 158.088C75.7128 163.838 71.9536 189.667 80.22 205.4C86.0159 227.264 107.834 238.206 109.57 239.045C110.625 239.719 122.516 247.07 137.123 247.07C137.736 247.07 141.441 247.275 142.762 247.275C158.552 247.275 181.949 236.145 186.846 227.427C200.302 217.584 207.278 192.218 206.018 181.839ZM109.69 214.684C103.434 204.564 99.8689 191.342 99.1057 188.304C101.086 185.336 110.852 170.936 116.417 166.603C119.568 167.183 132.725 169.599 145.135 171.845C146.694 175.886 153.534 193.714 155.492 200.596C153.334 203.156 144.853 213.029 136.504 220.761C127.64 220.803 112.564 215.689 109.69 214.684ZM188.333 143.871C188.307 144.852 188.074 148.341 186.404 152.347C183.087 150.653 174.751 147.024 163.325 146.411C161.596 143.858 155.089 134.955 144.812 128.78C146.218 126.028 148.177 122.672 149.321 121.649C149.692 121.545 150.268 121.449 151.144 121.449C156.655 121.449 166.175 125.057 167.003 125.378C167.882 125.842 184.995 135.057 188.333 143.871ZM96.6395 186.243C89.1755 184.97 84.7381 182.65 83.4123 181.865C80.6365 171.797 82.8715 160.916 83.2161 159.357C85.9548 154.46 93.7525 141.976 98.8964 139.606C104.228 138.518 110.876 139.87 113.584 140.531C113.329 144.052 112.839 153.891 114.295 164.216C108.395 168.965 99.0555 182.635 96.6395 186.243ZM140.058 119.776C141.733 119.9 144.191 120.267 145.874 120.766C144.195 122.999 142.474 126.309 141.661 127.944C138.238 128.505 125.235 130.991 115.035 137.604C112.978 137.059 106.768 135.605 100.887 136.106C102.344 133.287 104.52 131.202 104.753 130.989C105.562 130.408 121.136 119.512 140.058 119.748V119.776ZM181.698 202.84C179.147 202.735 169.317 202.175 158.539 199.643C156.474 192.443 149.655 174.689 148.096 170.65C154.781 161.095 161.371 152.094 163.203 149.599C175.606 150.28 184.315 154.804 186 155.749C193.185 167.303 194.762 179.104 194.978 181.076C191.162 192.951 183.615 200.947 181.698 202.84ZM78.9379 174.266C79.121 177.026 79.5637 179.933 80.3639 182.807C79.6269 184.689 79.1494 186.643 78.8768 188.588C78.3884 183.657 78.4778 178.679 78.9379 174.266ZM99.967 225.201C103.255 222.033 107.309 218.949 108.881 217.785C112.435 219.037 127.032 223.971 136.336 223.971C137.922 226.097 143.105 232.754 149.459 237.844C145.503 241.714 139.79 243.542 138.781 243.845C121.059 244.32 103.8 234.359 99.967 225.201ZM146.768 243.818C148.778 242.648 150.874 241.106 152.607 239.154C155.436 238.764 167.573 236.675 178.541 228.618C179.265 228.696 180.457 228.792 181.79 228.755C175.209 235.203 159.151 242.406 146.768 243.818ZM180.401 225.554C184.341 215.288 184.173 207.547 183.979 205.075C186.142 202.955 193.565 195.046 197.684 183.023C199.903 183.393 201.347 183.958 202.032 184.274C202.269 185.147 202.666 187.161 202.442 190.216C200.763 201.213 194.967 217.691 184.814 224.976C183.794 225.498 181.997 225.611 180.401 225.554Z" fill="black"/>
<path d="M111.661 295.989H111.931C113.127 295.989 114.169 295.41 114.169 294.33C114.169 293.288 113.166 292.787 112.162 292.787C112.008 292.787 111.777 292.787 111.699 292.825C111.661 293.79 111.661 294.793 111.661 295.989ZM111.699 301.7C111.699 302.741 111.738 303.783 111.777 304.825H112.394C113.86 304.825 114.439 304.246 114.439 303.243C114.439 302.355 113.706 301.7 112.664 301.7H111.699ZM104.099 298.574C104.099 294.716 104.176 291.745 104.176 287.887C106.722 287.501 109.539 287.231 111.699 287.231C117.063 287.231 120.998 287.694 120.998 293.944C120.998 295.989 120.149 297.725 118.76 298.922C120.882 300.118 122.156 301.815 122.156 303.667C122.156 309.802 117.989 310.844 112.78 310.844C110.156 310.844 107.224 310.728 104.562 310.419C104.33 310.381 104.176 310.188 104.176 309.956C104.176 306.33 104.099 302.433 104.099 298.574ZM123.144 299.076C123.144 291.514 126.501 287.501 131.941 287.231C139.272 287.231 142.745 290.163 142.745 299.076C142.745 306.677 139.311 310.612 133.87 310.882C126.501 310.882 123.144 308.027 123.144 299.076ZM131.17 299.076C131.17 303.667 131.941 304.169 132.983 304.169C134.025 304.169 134.681 303.667 134.681 299.076C134.681 294.484 133.909 293.983 132.867 293.983C131.826 293.983 131.17 294.484 131.17 299.076ZM144.752 299.076C144.752 295.218 144.791 291.359 144.907 287.501C146.103 287.462 146.99 287.424 148.264 287.424C149.575 287.424 150.926 287.462 152.238 287.501C152.431 287.501 152.623 287.694 152.623 287.887C152.701 291.514 152.778 295.218 152.778 299.076C152.778 300.812 152.739 302.471 152.739 304.092H152.894C154.205 304.092 157.485 304.13 158.797 304.169C158.99 304.169 159.144 304.362 159.183 304.555C159.183 305.751 159.183 306.831 159.183 307.911C159.183 308.837 159.183 309.763 159.183 310.728C157.948 310.805 154.746 310.844 153.472 310.844C152.16 310.844 146.566 310.728 145.293 310.651C145.061 310.651 144.907 310.497 144.907 310.265C144.83 306.638 144.752 302.934 144.752 299.076ZM159.15 310.342C159.15 310.265 159.266 309.532 159.343 309.146C160.5 302.085 162.121 294.639 163.549 287.501C165.285 287.424 167.06 287.424 168.873 287.424C170.725 287.424 172.538 287.462 174.39 287.501C174.583 287.501 174.776 287.694 174.815 287.887C176.281 295.295 178.094 303.166 179.213 310.651C178.017 310.728 177.168 310.767 175.857 310.767C174.545 310.767 173.426 310.767 172.075 310.651C171.883 310.651 171.69 310.497 171.651 310.265C171.381 309.03 171.149 307.719 170.957 306.407H167.368C167.137 307.834 166.905 309.262 166.635 310.651C165.401 310.728 164.706 310.767 163.433 310.767C162.121 310.767 160.771 310.728 159.497 310.651C159.304 310.651 159.15 310.535 159.15 310.342ZM168.024 301.391H170.185C169.76 298.536 169.375 295.642 168.989 292.748C168.642 295.603 168.333 298.497 168.024 301.391Z" fill="black" fill-opacity="0.7"/>
<path d="M98.8618 29.1919H254.174V308.441" stroke="#FFCE31" stroke-width="4.70644" stroke-linecap="round" stroke-linejoin="round"/>
<path d="M186.715 407.276H28.2648V124.889" stroke="#FFCE31" stroke-width="4.70644" stroke-linecap="round" stroke-linejoin="round"/>
<path d="M247.847 377.462C247.863 376.902 248.01 368.909 243.28 363.705C243.07 363.24 242.073 361.365 238.855 359.074C236.727 357.399 234.507 356.217 234.325 356.122C234.323 356.121 234.32 356.12 234.319 356.119C234.118 356.012 230.194 353.936 225.432 353.936C225.071 353.936 224.713 353.957 224.359 353.982V353.975C220.728 353.896 217.122 354.83 214.948 355.812C213.02 356.682 210.879 358.142 210.725 358.255C208.055 359.748 202.991 365.742 202.591 368.918C200.972 370.987 199.62 380.278 202.594 385.937C204.679 393.802 212.527 397.739 213.152 398.041C213.531 398.283 217.809 400.927 223.063 400.927C223.284 400.927 224.617 401.001 225.092 401.001C230.772 401.001 239.188 396.997 240.95 393.861C245.791 390.32 248.3 381.196 247.847 377.462ZM213.195 389.277C210.944 385.637 209.662 380.88 209.387 379.788C210.1 378.72 213.613 373.54 215.615 371.981C216.748 372.19 221.481 373.059 225.945 373.867C226.506 375.32 228.967 381.734 229.671 384.209C228.895 385.13 225.844 388.682 222.841 391.463C219.652 391.478 214.229 389.639 213.195 389.277ZM241.485 363.804C241.476 364.157 241.392 365.412 240.791 366.853C239.598 366.243 236.599 364.938 232.489 364.718C231.867 363.799 229.526 360.596 225.829 358.375C226.335 357.385 227.04 356.178 227.451 355.81C227.585 355.772 227.792 355.738 228.107 355.738C230.089 355.738 233.514 357.036 233.812 357.151C234.128 357.318 240.284 360.633 241.485 363.804ZM208.5 379.046C205.815 378.588 204.219 377.754 203.742 377.471C202.744 373.85 203.548 369.935 203.671 369.375C204.657 367.613 207.462 363.122 209.312 362.27C211.23 361.878 213.622 362.364 214.596 362.602C214.504 363.869 214.328 367.408 214.852 371.122C212.729 372.831 209.369 377.748 208.5 379.046ZM224.119 355.136C224.722 355.181 225.606 355.313 226.211 355.492C225.607 356.296 224.988 357.486 224.696 358.075C223.464 358.276 218.787 359.17 215.117 361.549C214.378 361.353 212.144 360.83 210.028 361.011C210.552 359.996 211.335 359.246 211.419 359.17C211.71 358.961 217.312 355.041 224.119 355.126V355.136ZM239.098 385.016C238.18 384.979 234.644 384.777 230.767 383.866C230.024 381.276 227.571 374.89 227.01 373.437C229.415 370 231.786 366.762 232.445 365.864C236.906 366.109 240.039 367.737 240.646 368.076C243.23 372.233 243.797 376.478 243.875 377.187C242.502 381.459 239.788 384.335 239.098 385.016ZM202.132 374.738C202.198 375.731 202.358 376.776 202.645 377.81C202.38 378.487 202.209 379.19 202.11 379.889C201.935 378.116 201.967 376.325 202.132 374.738ZM209.697 393.06C210.88 391.921 212.338 390.811 212.904 390.393C214.182 390.843 219.433 392.618 222.78 392.618C223.35 393.383 225.215 395.778 227.501 397.608C226.078 399.001 224.023 399.658 223.66 399.767C217.285 399.938 211.076 396.355 209.697 393.06ZM226.533 399.758C227.256 399.336 228.01 398.782 228.633 398.08C229.651 397.939 234.017 397.188 237.962 394.29C238.223 394.318 238.652 394.352 239.131 394.339C236.764 396.658 230.987 399.249 226.533 399.758ZM238.631 393.187C240.049 389.494 239.988 386.71 239.919 385.82C240.697 385.058 243.367 382.213 244.849 377.888C245.647 378.021 246.166 378.224 246.413 378.338C246.498 378.652 246.641 379.376 246.56 380.475C245.956 384.431 243.871 390.359 240.219 392.98C239.852 393.167 239.206 393.208 238.631 393.187Z" fill="black"/>
<path d="M79.9832 58.993C79.9997 58.4337 80.1472 50.4399 75.4165 45.2362C75.2062 44.7711 74.2093 42.8963 70.9917 40.6051C68.8636 38.9304 66.6437 37.7483 66.4618 37.6534C66.4602 37.6526 66.457 37.6511 66.4555 37.6503C66.2547 37.5428 62.3311 35.4673 57.569 35.4673C57.2074 35.4673 56.8497 35.4885 56.4959 35.5128V35.5065C52.865 35.4273 49.2583 36.3615 47.0847 37.3428C45.1567 38.2135 43.016 39.6732 42.8615 39.7862C40.1914 41.2797 35.1281 47.2733 34.7273 50.4493C33.1091 52.5178 31.7567 61.809 34.7304 67.4685C36.8153 75.3336 44.6641 79.2698 45.2884 79.5718C45.6681 79.8141 49.9454 82.4584 55.2001 82.4584C55.4205 82.4584 56.7532 82.5321 57.2286 82.5321C62.9084 82.5321 71.325 78.5285 73.0868 75.3925C77.9273 71.8517 80.4366 62.7268 79.9832 58.993ZM45.3316 70.8084C43.0811 67.168 41.7986 62.4114 41.5241 61.3188C42.2363 60.2512 45.7497 55.071 47.7515 53.5124C48.8849 53.7211 53.618 54.5902 58.082 55.3981C58.6428 56.8516 61.1035 63.2649 61.8079 65.7404C61.0313 66.6613 57.9808 70.2131 54.9773 72.9946C51.7888 73.0095 46.3654 71.17 45.3316 70.8084ZM73.6218 45.335C73.6123 45.688 73.5284 46.9431 72.9276 48.384C71.7345 47.7745 68.7357 46.4693 64.6255 46.2489C64.0034 45.3303 61.6628 42.1276 57.9659 39.9062C58.4719 38.9163 59.1762 37.7091 59.5881 37.3412C59.7214 37.3036 59.9285 37.2691 60.2438 37.2691C62.226 37.2691 65.6507 38.5672 65.9488 38.6825C66.2649 38.8496 72.4208 42.1645 73.6218 45.335ZM40.6369 60.5775C37.9519 60.1194 36.3557 59.2848 35.8788 59.0024C34.8802 55.3809 35.6842 51.4667 35.8082 50.9059C36.7934 49.1441 39.5984 44.6534 41.4488 43.8008C43.3667 43.4093 45.7583 43.8957 46.7325 44.1333C46.6407 45.4001 46.4643 48.9394 46.9882 52.6535C44.8656 54.3619 41.5061 59.2793 40.6369 60.5775ZM56.2559 36.6674C56.8583 36.7121 57.7424 36.8439 58.3479 37.0235C57.7439 37.8268 57.125 39.0175 56.8325 39.6058C55.6009 39.8074 50.9236 40.7016 47.2541 43.0807C46.5145 42.8846 44.2805 42.3614 42.165 42.5418C42.6889 41.5276 43.4718 40.7777 43.5557 40.7008C43.8467 40.4922 49.4489 36.5725 56.2559 36.6572V36.6674ZM71.2348 66.5476C70.3171 66.5099 66.781 66.3083 62.9037 65.3976C62.1609 62.8076 59.7081 56.421 59.1472 54.9683C61.5522 51.531 63.9226 48.293 64.5815 47.3957C69.0432 47.6404 72.1761 49.268 72.7825 49.6077C75.3671 53.7642 75.9342 58.0094 76.0118 58.7185C74.6391 62.9903 71.9243 65.8667 71.2348 66.5476ZM34.2692 56.2688C34.3351 57.2618 34.4943 58.3075 34.7822 59.3413C34.5171 60.0182 34.3453 60.7211 34.2472 61.4207C34.0715 59.6472 34.1037 57.8564 34.2692 56.2688ZM41.8339 74.5916C43.0168 73.4519 44.475 72.3427 45.0406 71.9239C46.3191 72.3741 51.5699 74.1492 54.917 74.1492C55.4872 74.914 57.3517 77.3088 59.6375 79.1396C58.2146 80.5319 56.1594 81.1892 55.7963 81.2982C49.4214 81.4692 43.2129 77.8861 41.8339 74.5916ZM58.6695 81.2888C59.3927 80.8676 60.1465 80.313 60.7701 79.611C61.7875 79.4706 66.1535 78.7191 70.099 75.8208C70.3594 75.849 70.7885 75.8835 71.2678 75.8702C68.9005 78.1896 63.1241 80.7805 58.6695 81.2888ZM70.7681 74.7187C72.1855 71.0257 72.1251 68.2411 72.0553 67.3516C72.8334 66.5891 75.5035 63.7441 76.9853 59.4189C77.7838 59.5523 78.3031 59.7555 78.5494 59.8692C78.6349 60.183 78.7776 60.9077 78.6968 62.0067C78.0928 65.9624 76.0079 71.8901 72.3557 74.5108C71.9886 74.6983 71.3423 74.7391 70.7681 74.7187Z" fill="black"/>
<rect x="4.73302" y="5.65929" width="272.973" height="425.148" rx="18.8258" stroke="#FFCE31" stroke-width="9.41288"/>
</g>
<defs>
<filter id="filter0_d_35_559" x="0.0263672" y="0.952881" width="282.386" height="440.836" filterUnits="userSpaceOnUse" color-interpolation-filters="sRGB">
<feFlood flood-opacity="0" result="BackgroundImageFix"/>
<feColorMatrix in="SourceAlpha" type="matrix" values="0 0 0 0 0 0 0 0 0 0 0 0 0 0 0 0 0 0 127 0" result="hardAlpha"/>
<feOffset dy="6.27525"/>
<feComposite in2="hardAlpha" operator="out"/>
<feColorMatrix type="matrix" values="0 0 0 0 0 0 0 0 0 0 0 0 0 0 0 0 0 0 0.15 0"/>
<feBlend mode="normal" in2="BackgroundImageFix" result="effect1_dropShadow_35_559"/>
<feBlend mode="normal" in="SourceGraphic" in2="effect1_dropShadow_35_559" result="shape"/>
</filter>
</defs>
</svg>
