<svg width="283" height="442" viewBox="0 0 283 442" fill="none" xmlns="http://www.w3.org/2000/svg">
<g filter="url(#filter0_d_35_571)">
<rect x="9.43945" y="9.79907" width="263.56" height="415.735" rx="14.1193" fill="white"/>
<path d="M87.4956 131.437C87.4956 131.437 91.204 126.638 107.564 134.055C120.435 139.944 84.8779 156.741 81.3877 149.761C79.2063 145.616 87.4956 131.437 87.4956 131.437Z" fill="#A8D600"/>
<path d="M184.349 185.754C164.28 171.793 143.339 130.346 140.721 130.346C133.304 130.346 128.505 133.182 128.505 133.182L176.278 202.551C176.278 202.769 186.967 187.499 184.349 185.754Z" fill="#5B636B"/>
<path d="M194.166 192.298C191.112 189.68 182.386 187.935 179.987 185.536C170.825 175.501 151.628 157.832 135.268 127.947C129.378 116.822 102.111 136.236 102.111 136.236L149.665 211.931C150.101 211.931 205.509 201.678 194.166 192.298Z" fill="#333333"/>
<path d="M151.411 207.131C154.246 204.732 154.028 191.644 151.629 188.371C136.795 166.994 112.364 134.709 102.766 134.709C92.7312 134.709 90.9861 148.234 85.3144 148.234C80.5154 148.234 87.2777 131.219 87.2777 131.219C78.1158 141.472 76.5889 174.192 76.5889 174.192C76.5889 174.192 115.418 238.107 151.411 207.131Z" fill="#5B636B"/>
<path d="M76.8066 171.357C76.8066 171.357 75.9341 162.849 79.6424 151.506C79.8606 164.376 87.9317 167.43 85.7503 184.445L76.8066 171.357ZM119.344 210.84C129.378 187.499 172.57 211.058 194.166 192.298C197.656 192.734 204.636 204.732 204.636 204.732C204.636 204.732 196.783 236.144 119.344 210.84Z" fill="#69727A"/>
<path d="M76.8065 170.266C74.6252 170.266 75.0614 185.317 76.8065 187.717C88.3679 202.114 100.366 205.823 116.29 225.019C135.486 247.923 206.163 237.016 206.163 217.384C206.163 201.242 204.2 202.769 204.2 202.769C199.183 215.857 154.464 218.693 138.104 215.203C102.111 207.786 79.2061 170.266 76.8065 170.266Z" fill="#D0D0D0"/>
<path d="M103.202 146.052C104.889 146.052 106.256 144.392 106.256 142.344C106.256 140.296 104.889 138.636 103.202 138.636C101.516 138.636 100.148 140.296 100.148 142.344C100.148 144.392 101.516 146.052 103.202 146.052Z" fill="#333333"/>
<path d="M111.927 156.087C113.614 156.087 114.981 154.426 114.981 152.378C114.981 150.33 113.614 148.67 111.927 148.67C110.241 148.67 108.874 150.33 108.874 152.378C108.874 154.426 110.241 156.087 111.927 156.087Z" fill="#333333"/>
<path d="M119.78 165.685C121.467 165.685 122.834 164.025 122.834 161.976C122.834 159.928 121.467 158.268 119.78 158.268C118.093 158.268 116.726 159.928 116.726 161.976C116.726 164.025 118.093 165.685 119.78 165.685Z" fill="#333333"/>
<path d="M127.852 177.683C129.538 177.683 130.906 176.022 130.906 173.974C130.906 171.926 129.538 170.266 127.852 170.266C126.165 170.266 124.798 171.926 124.798 173.974C124.798 176.022 126.165 177.683 127.852 177.683Z" fill="#333333"/>
<path d="M135.487 186.844C137.173 186.844 138.541 185.184 138.541 183.136C138.541 181.088 137.173 179.428 135.487 179.428C133.8 179.428 132.433 181.088 132.433 183.136C132.433 185.184 133.8 186.844 135.487 186.844Z" fill="#333333"/>
<path d="M143.556 197.533C145.243 197.533 146.61 195.873 146.61 193.825C146.61 191.777 145.243 190.116 143.556 190.116C141.87 190.116 140.502 191.777 140.502 193.825C140.502 195.873 141.87 197.533 143.556 197.533Z" fill="#333333"/>
<path d="M143.557 196.443C143.121 196.443 142.466 196.225 142.03 195.788C141.157 194.698 141.157 193.171 142.03 192.08C142.466 191.425 154.246 177.683 176.496 177.683C177.587 177.683 178.677 178.773 178.677 180.3C178.677 181.609 177.805 182.918 176.496 182.918C155.991 182.918 145.084 195.788 144.866 195.788C144.648 196.225 144.211 196.443 143.557 196.443ZM135.704 185.754C135.268 185.754 134.831 185.536 134.395 185.099C133.523 184.227 133.304 182.7 133.959 181.609C134.395 180.955 143.557 167.212 169.297 167.212C170.388 167.212 171.479 168.303 171.479 169.83C171.479 171.138 170.606 172.447 169.297 172.447C145.956 172.447 137.449 184.881 137.231 184.881C137.013 185.318 136.358 185.754 135.704 185.754ZM128.069 176.592C127.633 176.592 126.978 176.374 126.542 175.938C125.669 175.065 125.669 173.32 126.324 172.229C136.795 158.268 161.444 158.05 162.535 158.05C163.626 158.05 164.716 159.141 164.716 160.668C164.716 161.977 163.844 163.285 162.535 163.285C162.317 163.285 138.758 163.504 129.378 175.719C129.16 176.374 128.505 176.592 128.069 176.592ZM119.998 164.376C119.343 164.376 118.689 163.94 118.253 163.285C117.598 162.195 117.816 160.45 118.689 159.795C119.125 159.359 131.777 148.234 155.336 148.234C156.427 148.234 157.518 149.325 157.518 150.852C157.518 152.379 156.645 153.469 155.336 153.469C133.304 153.469 121.307 163.94 121.307 164.158C120.87 164.376 120.434 164.376 119.998 164.376ZM112.145 154.996C111.49 154.996 110.836 154.56 110.4 154.124C109.745 153.033 109.745 151.506 110.836 150.415C111.272 149.979 123.27 138.636 149.01 138.636C150.101 138.636 151.192 139.726 151.192 141.253C151.192 142.562 150.319 143.871 149.01 143.871C124.797 143.871 113.672 154.56 113.454 154.56C113.017 154.778 112.581 154.996 112.145 154.996Z" fill="#A8D600"/>
<path d="M84.0584 301.026L84.9844 294.081C87.6852 294.929 90.0774 295.431 91.8137 295.431C93.2798 295.431 93.8972 294.659 93.8972 294.042C93.8972 293.27 92.7782 292.962 91.2735 292.537C88.3797 291.727 84.097 290.492 84.097 284.55C84.097 278.3 87.9553 277.837 93.2412 277.837C95.4791 277.837 98.1027 278.184 100.688 278.686L99.8004 285.129C97.987 284.319 95.2476 283.547 92.8554 283.547C91.6593 283.547 90.8877 283.933 90.8877 284.628C90.8877 285.322 92.0837 285.669 93.6657 286.132C96.8681 287.097 101.652 288.525 101.652 293.888C101.652 300.022 97.4082 301.45 92.1995 301.45C89.5758 301.45 86.7207 301.334 84.0584 301.026ZM102.084 300.948C102.084 300.871 102.2 300.138 102.277 299.752C103.434 292.692 105.055 285.245 106.483 278.107C108.219 278.03 109.994 278.03 111.807 278.03C113.659 278.03 115.472 278.068 117.324 278.107C117.517 278.107 117.71 278.3 117.749 278.493C119.215 285.901 121.028 293.772 122.147 301.257C120.951 301.334 120.102 301.373 118.791 301.373C117.479 301.373 116.36 301.373 115.009 301.257C114.817 301.257 114.624 301.103 114.585 300.871C114.315 299.637 114.083 298.325 113.891 297.013H110.302C110.071 298.44 109.839 299.868 109.569 301.257C108.335 301.334 107.64 301.373 106.367 301.373C105.055 301.373 103.705 301.334 102.431 301.257C102.238 301.257 102.084 301.141 102.084 300.948ZM110.958 291.997H113.119C112.694 289.142 112.309 286.248 111.923 283.354C111.576 286.21 111.267 289.103 110.958 291.997ZM123.634 289.682C123.634 285.824 123.711 282.274 123.711 278.493C126.258 278.107 129.074 277.837 131.235 277.837C137.756 277.837 141.691 278.686 141.691 286.981C141.691 294.312 137.794 295.933 131.351 295.933C131.351 297.707 131.389 299.482 131.428 301.257C130.27 301.334 129.151 301.334 128.033 301.334C126.721 301.334 125.409 301.334 124.097 301.257C123.866 301.257 123.711 301.103 123.711 300.871C123.711 297.244 123.634 293.54 123.634 289.682ZM131.274 289.643H131.852C132.894 289.643 133.859 289.373 133.859 287.097C133.859 284.705 133.666 284.435 132.122 284.435H131.274V289.643ZM141.27 300.948C141.27 300.871 141.386 300.138 141.463 299.752C142.621 292.692 144.241 285.245 145.669 278.107C147.405 278.03 149.18 278.03 150.993 278.03C152.845 278.03 154.659 278.068 156.511 278.107C156.704 278.107 156.897 278.3 156.935 278.493C158.401 285.901 160.215 293.772 161.334 301.257C160.138 301.334 159.289 301.373 157.977 301.373C156.665 301.373 155.546 301.373 154.196 301.257C154.003 301.257 153.81 301.103 153.771 300.871C153.501 299.637 153.27 298.325 153.077 297.013H149.489C149.257 298.44 149.026 299.868 148.755 301.257C147.521 301.334 146.826 301.373 145.553 301.373C144.241 301.373 142.891 301.334 141.618 301.257C141.425 301.257 141.27 301.141 141.27 300.948ZM150.144 291.997H152.305C151.881 289.142 151.495 286.248 151.109 283.354C150.762 286.21 150.453 289.103 150.144 291.997ZM160.68 281.039C160.68 280.113 160.68 279.149 160.719 278.107C161.915 278.068 168.358 278.03 169.632 278.03C170.944 278.03 176.307 278.068 177.618 278.107C177.811 278.107 177.966 278.3 178.004 278.493C178.004 279.612 178.004 280.692 178.004 281.811C178.004 282.737 178.004 283.702 178.004 284.666C177.348 284.705 175.303 284.743 173.297 284.743C173.336 286.325 173.374 287.907 173.374 289.682C173.374 293.54 173.297 297.399 173.22 301.257C171.985 301.334 171.098 301.373 169.825 301.373C168.513 301.373 167.162 301.334 165.889 301.257C165.658 301.257 165.503 301.103 165.503 300.871C165.426 297.244 165.349 293.54 165.349 289.682C165.349 287.907 165.349 286.325 165.349 284.705C163.613 284.666 161.761 284.628 161.105 284.589C160.873 284.589 160.719 284.435 160.719 284.203C160.68 283.123 160.68 282.081 160.68 281.039ZM178.399 289.682C178.399 282.12 181.756 278.107 187.196 277.837C194.527 277.837 198 280.769 198 289.682C198 297.283 194.566 301.218 189.126 301.489C181.756 301.489 178.399 298.633 178.399 289.682ZM186.425 289.682C186.425 294.273 187.196 294.775 188.238 294.775C189.28 294.775 189.936 294.273 189.936 289.682C189.936 285.091 189.164 284.589 188.122 284.589C187.081 284.589 186.425 285.091 186.425 289.682Z" fill="black" fill-opacity="0.7"/>
<path d="M98.8618 28.6248H254.174V307.873" stroke="#FFCE31" stroke-width="4.70644" stroke-linecap="round" stroke-linejoin="round"/>
<path d="M186.715 406.709H28.2648V124.323" stroke="#FFCE31" stroke-width="4.70644" stroke-linecap="round" stroke-linejoin="round"/>
<path d="M38.9166 37.3933C38.9166 37.3933 40.2506 35.667 46.1359 38.335C50.7657 40.4537 37.975 46.4959 36.7195 43.9849C35.9347 42.4939 38.9166 37.3933 38.9166 37.3933Z" fill="#A8D600"/>
<path d="M73.7574 56.9328C66.5381 51.9106 59.0049 37.0012 58.0633 37.0012C55.3953 37.0012 53.6689 38.0213 53.6689 38.0213L70.854 62.975C70.854 63.0535 74.6991 57.5605 73.7574 56.9328Z" fill="#5B636B"/>
<path d="M77.2889 59.2866C76.1903 58.345 73.0515 57.7172 72.1883 56.8541C68.8926 53.2444 61.9871 46.8883 56.1019 36.1378C53.9831 32.1358 44.1743 39.1197 44.1743 39.1197L61.2809 66.349C61.4379 66.349 81.3694 62.6609 77.2889 59.2866Z" fill="#333333"/>
<path d="M61.9086 64.623C62.9287 63.7598 62.8502 59.0515 61.9871 57.8745C56.6511 50.1844 47.8623 38.5707 44.4096 38.5707C40.8 38.5707 40.1722 43.4359 38.132 43.4359C36.4056 43.4359 38.8382 37.3152 38.8382 37.3152C35.5425 41.0033 34.9932 52.7739 34.9932 52.7739C34.9932 52.7739 48.9609 75.7658 61.9086 64.623Z" fill="#5B636B"/>
<path d="M35.0712 51.7534C35.0712 51.7534 34.7573 48.693 36.0913 44.6125C36.1698 49.2423 39.0732 50.3409 38.2885 56.4616L35.0712 51.7534ZM50.373 65.9566C53.9826 57.5602 69.5198 66.035 77.2884 59.2866C78.5439 59.4435 81.055 63.7594 81.055 63.7594C81.055 63.7594 78.23 75.0591 50.373 65.9566Z" fill="#69727A"/>
<path d="M35.0718 51.3613C34.2871 51.3613 34.4441 56.7758 35.0718 57.639C39.2308 62.818 43.5467 64.152 49.275 71.0575C56.1804 79.2969 81.6049 75.3733 81.6049 68.311C81.6049 62.5042 80.8987 63.0535 80.8987 63.0535C79.0938 67.7617 63.0074 68.7818 57.1221 67.5263C44.1744 64.8583 35.935 51.3613 35.0718 51.3613Z" fill="#D0D0D0"/>
<path d="M44.5664 42.6507C45.1731 42.6507 45.665 42.0534 45.665 41.3167C45.665 40.5799 45.1731 39.9827 44.5664 39.9827C43.9596 39.9827 43.4678 40.5799 43.4678 41.3167C43.4678 42.0534 43.9596 42.6507 44.5664 42.6507Z" fill="#333333"/>
<path d="M47.706 46.2608C48.3127 46.2608 48.8046 45.6635 48.8046 44.9268C48.8046 44.19 48.3127 43.5928 47.706 43.5928C47.0993 43.5928 46.6074 44.19 46.6074 44.9268C46.6074 45.6635 47.0993 46.2608 47.706 46.2608Z" fill="#333333"/>
<path d="M50.5297 49.7134C51.1365 49.7134 51.6283 49.1162 51.6283 48.3794C51.6283 47.6427 51.1365 47.0454 50.5297 47.0454C49.923 47.0454 49.4312 47.6427 49.4312 48.3794C49.4312 49.1162 49.923 49.7134 50.5297 49.7134Z" fill="#333333"/>
<path d="M53.435 54.0291C54.0417 54.0291 54.5336 53.4318 54.5336 52.6951C54.5336 51.9583 54.0417 51.3611 53.435 51.3611C52.8283 51.3611 52.3364 51.9583 52.3364 52.6951C52.3364 53.4318 52.8283 54.0291 53.435 54.0291Z" fill="#333333"/>
<path d="M56.1806 57.3247C56.7874 57.3247 57.2792 56.7275 57.2792 55.9907C57.2792 55.254 56.7874 54.6567 56.1806 54.6567C55.5739 54.6567 55.082 55.254 55.082 55.9907C55.082 56.7275 55.5739 57.3247 56.1806 57.3247Z" fill="#333333"/>
<path d="M59.0835 61.1697C59.6902 61.1697 60.182 60.5725 60.182 59.8357C60.182 59.099 59.6902 58.5017 59.0835 58.5017C58.4767 58.5017 57.9849 59.099 57.9849 59.8357C57.9849 60.5725 58.4767 61.1697 59.0835 61.1697Z" fill="#333333"/>
<path d="M59.0838 60.7774C58.9269 60.7774 58.6914 60.6989 58.5345 60.542C58.2206 60.1496 58.2206 59.6003 58.5345 59.208C58.6914 58.9726 62.9289 54.0289 70.9329 54.0289C71.3252 54.0289 71.7176 54.4213 71.7176 54.9706C71.7176 55.4414 71.4037 55.9122 70.9329 55.9122C63.5566 55.9122 59.6331 60.542 59.5546 60.542C59.4762 60.6989 59.3192 60.7774 59.0838 60.7774ZM56.2589 56.9323C56.1019 56.9323 55.945 56.8538 55.788 56.6969C55.4741 56.383 55.3957 55.8337 55.6311 55.4414C55.788 55.206 59.0838 50.2623 68.3433 50.2623C68.7357 50.2623 69.128 50.6547 69.128 51.204C69.128 51.6748 68.8142 52.1456 68.3433 52.1456C59.947 52.1456 56.8866 56.6184 56.8081 56.6184C56.7297 56.7754 56.4943 56.9323 56.2589 56.9323ZM53.5124 53.6366C53.3554 53.6366 53.12 53.5581 52.9631 53.4011C52.6492 53.0873 52.6492 52.4595 52.8846 52.0671C56.6512 47.045 65.5184 46.9666 65.9107 46.9666C66.3031 46.9666 66.6954 47.3589 66.6954 47.9082C66.6954 48.379 66.3816 48.8498 65.9107 48.8498C65.8323 48.8498 57.3574 48.9283 53.9832 53.3227C53.9047 53.5581 53.6693 53.6366 53.5124 53.6366ZM50.609 49.2422C50.3736 49.2422 50.1381 49.0853 49.9812 48.8498C49.7458 48.4575 49.8243 47.8297 50.1381 47.5943C50.2951 47.4374 54.8464 43.4354 63.3212 43.4354C63.7136 43.4354 64.1059 43.8277 64.1059 44.377C64.1059 44.9263 63.792 45.3187 63.3212 45.3187C55.3957 45.3187 51.0798 49.0853 51.0798 49.1637C50.9229 49.2422 50.7659 49.2422 50.609 49.2422ZM47.784 45.868C47.5486 45.868 47.3132 45.711 47.1563 45.5541C46.9209 45.1617 46.9209 44.6124 47.3132 44.2201C47.4701 44.0631 51.786 39.9827 61.0456 39.9827C61.4379 39.9827 61.8303 40.375 61.8303 40.9243C61.8303 41.3951 61.5164 41.866 61.0456 41.866C52.3353 41.866 48.3333 45.711 48.2549 45.711C48.0979 45.7895 47.941 45.868 47.784 45.868Z" fill="#A8D600"/>
<path d="M205.21 362.138C205.21 362.138 206.544 360.411 212.429 363.079C217.059 365.198 204.268 371.24 203.013 368.729C202.228 367.238 205.21 362.138 205.21 362.138Z" fill="#A8D600"/>
<path d="M240.052 381.677C232.833 376.655 225.299 361.745 224.358 361.745C221.69 361.745 219.963 362.765 219.963 362.765L237.148 387.719C237.148 387.798 240.994 382.305 240.052 381.677Z" fill="#5B636B"/>
<path d="M243.583 384.031C242.484 383.089 239.345 382.461 238.482 381.598C235.187 377.989 228.281 371.632 222.396 360.882C220.277 356.88 210.468 363.864 210.468 363.864L227.575 391.093C227.732 391.093 247.663 387.405 243.583 384.031Z" fill="#333333"/>
<path d="M228.202 389.367C229.222 388.504 229.144 383.796 228.281 382.619C222.945 374.929 214.156 363.315 210.703 363.315C207.093 363.315 206.466 368.18 204.425 368.18C202.699 368.18 205.132 362.059 205.132 362.059C201.836 365.747 201.287 377.518 201.287 377.518C201.287 377.518 215.254 400.51 228.202 389.367Z" fill="#5B636B"/>
<path d="M201.366 376.498C201.366 376.498 201.052 373.437 202.386 369.357C202.464 373.987 205.368 375.085 204.583 381.206L201.366 376.498ZM216.667 390.701C220.277 382.305 235.814 390.779 243.583 384.031C244.838 384.188 247.349 388.504 247.349 388.504C247.349 388.504 244.524 399.804 216.667 390.701Z" fill="#69727A"/>
<path d="M201.366 376.105C200.581 376.105 200.738 381.52 201.366 382.383C205.525 387.562 209.841 388.896 215.569 395.802C222.474 404.041 247.899 400.117 247.899 393.055C247.899 387.248 247.193 387.798 247.193 387.798C245.388 392.506 229.301 393.526 223.416 392.27C210.468 389.602 202.229 376.105 201.366 376.105Z" fill="#D0D0D0"/>
<path d="M210.861 367.395C211.468 367.395 211.959 366.798 211.959 366.061C211.959 365.324 211.468 364.727 210.861 364.727C210.254 364.727 209.762 365.324 209.762 366.061C209.762 366.798 210.254 367.395 210.861 367.395Z" fill="#333333"/>
<path d="M214 371.005C214.607 371.005 215.099 370.408 215.099 369.671C215.099 368.934 214.607 368.337 214 368.337C213.393 368.337 212.901 368.934 212.901 369.671C212.901 370.408 213.393 371.005 214 371.005Z" fill="#333333"/>
<path d="M216.824 374.458C217.431 374.458 217.923 373.86 217.923 373.124C217.923 372.387 217.431 371.79 216.824 371.79C216.217 371.79 215.726 372.387 215.726 373.124C215.726 373.86 216.217 374.458 216.824 374.458Z" fill="#333333"/>
<path d="M219.728 378.773C220.335 378.773 220.827 378.176 220.827 377.439C220.827 376.702 220.335 376.105 219.728 376.105C219.122 376.105 218.63 376.702 218.63 377.439C218.63 378.176 219.122 378.773 219.728 378.773Z" fill="#333333"/>
<path d="M222.475 382.069C223.081 382.069 223.573 381.472 223.573 380.735C223.573 379.998 223.081 379.401 222.475 379.401C221.868 379.401 221.376 379.998 221.376 380.735C221.376 381.472 221.868 382.069 222.475 382.069Z" fill="#333333"/>
<path d="M225.378 385.914C225.985 385.914 226.476 385.317 226.476 384.58C226.476 383.843 225.985 383.246 225.378 383.246C224.771 383.246 224.279 383.843 224.279 384.58C224.279 385.317 224.771 385.914 225.378 385.914Z" fill="#333333"/>
<path d="M225.377 385.522C225.22 385.522 224.985 385.443 224.828 385.286C224.514 384.894 224.514 384.344 224.828 383.952C224.985 383.717 229.222 378.773 237.226 378.773C237.619 378.773 238.011 379.165 238.011 379.715C238.011 380.186 237.697 380.656 237.226 380.656C229.85 380.656 225.927 385.286 225.848 385.286C225.77 385.443 225.613 385.522 225.377 385.522ZM222.552 381.676C222.395 381.676 222.238 381.598 222.081 381.441C221.768 381.127 221.689 380.578 221.925 380.186C222.081 379.95 225.377 375.006 234.637 375.006C235.029 375.006 235.421 375.399 235.421 375.948C235.421 376.419 235.108 376.89 234.637 376.89C226.24 376.89 223.18 381.363 223.102 381.363C223.023 381.52 222.788 381.676 222.552 381.676ZM219.806 378.381C219.649 378.381 219.413 378.302 219.257 378.145C218.943 377.831 218.943 377.204 219.178 376.811C222.945 371.789 231.812 371.711 232.204 371.711C232.597 371.711 232.989 372.103 232.989 372.652C232.989 373.123 232.675 373.594 232.204 373.594C232.126 373.594 223.651 373.672 220.277 378.067C220.198 378.302 219.963 378.381 219.806 378.381ZM216.902 373.986C216.667 373.986 216.432 373.829 216.275 373.594C216.039 373.202 216.118 372.574 216.432 372.338C216.589 372.182 221.14 368.18 229.615 368.18C230.007 368.18 230.399 368.572 230.399 369.121C230.399 369.67 230.085 370.063 229.615 370.063C221.689 370.063 217.373 373.829 217.373 373.908C217.216 373.986 217.059 373.986 216.902 373.986ZM214.077 370.612C213.842 370.612 213.607 370.455 213.45 370.298C213.214 369.906 213.214 369.357 213.607 368.964C213.764 368.807 218.079 364.727 227.339 364.727C227.731 364.727 228.124 365.119 228.124 365.668C228.124 366.139 227.81 366.61 227.339 366.61C218.629 366.61 214.627 370.455 214.548 370.455C214.391 370.534 214.234 370.612 214.077 370.612Z" fill="#A8D600"/>
<rect x="4.73302" y="5.09263" width="272.973" height="425.148" rx="18.8258" stroke="#FFCE31" stroke-width="9.41288"/>
</g>
<defs>
<filter id="filter0_d_35_571" x="0.0263672" y="0.38623" width="282.386" height="440.836" filterUnits="userSpaceOnUse" color-interpolation-filters="sRGB">
<feFlood flood-opacity="0" result="BackgroundImageFix"/>
<feColorMatrix in="SourceAlpha" type="matrix" values="0 0 0 0 0 0 0 0 0 0 0 0 0 0 0 0 0 0 127 0" result="hardAlpha"/>
<feOffset dy="6.27525"/>
<feComposite in2="hardAlpha" operator="out"/>
<feColorMatrix type="matrix" values="0 0 0 0 0 0 0 0 0 0 0 0 0 0 0 0 0 0 0.15 0"/>
<feBlend mode="normal" in2="BackgroundImageFix" result="effect1_dropShadow_35_571"/>
<feBlend mode="normal" in="SourceGraphic" in2="effect1_dropShadow_35_571" result="shape"/>
</filter>
</defs>
</svg>
