<svg width="283" height="442" viewBox="0 0 283 442" fill="none" xmlns="http://www.w3.org/2000/svg">
<g filter="url(#filter0_d_35_520)">
<rect x="9.43945" y="10.366" width="263.56" height="415.735" rx="14.1193" fill="white"/>
<path d="M145.063 204.161L162.073 207.432L176.029 135.688C176.901 130.891 173.848 126.094 169.269 125.221C164.471 124.349 159.892 127.62 159.02 132.417L145.063 204.161Z" fill="#FFDD67"/>
<path d="M169.487 125.221C168.832 125.003 168.396 125.003 167.742 125.003C171.667 126.53 173.848 130.673 172.976 135.034L159.02 206.778L162.072 207.432L176.029 135.689C177.119 130.673 174.066 126.094 169.487 125.221Z" fill="#EBA352"/>
<path d="M127.619 206.342H148.117V127.184C148.117 121.296 143.537 116.281 137.868 116.281C132.416 116.281 127.619 121.078 127.619 127.184V206.342Z" fill="#FFDD67"/>
<path d="M138.086 116.281C137.649 116.281 136.995 116.281 136.559 116.499C141.575 117.371 145.282 121.732 145.282 127.184V206.56H148.335V127.184C148.335 121.078 143.755 116.281 138.086 116.281Z" fill="#EBA352"/>
<path d="M116.716 206.124L134.161 201.544L115.189 129.365C113.881 124.349 108.865 121.296 104.068 122.387C99.2703 123.695 96.4355 128.711 97.7439 133.726L116.716 206.124Z" fill="#FFDD67"/>
<path d="M104.067 122.387L102.759 123.041C107.12 122.823 111.045 125.658 112.354 130.237L131.325 202.417L134.378 201.544L115.189 129.365C113.88 124.349 108.865 121.296 104.067 122.387Z" fill="#EBA352"/>
<path d="M79.6441 141.14C75.5009 143.103 74.1925 148.336 76.3732 152.698L105.158 210.049L119.768 202.635L90.9835 145.283C88.8029 140.922 83.7874 139.178 79.6441 141.14Z" fill="#FFDD67"/>
<path d="M79.6443 141.14C79.2082 141.358 78.7721 141.576 78.3359 142.012C82.043 140.922 86.1863 142.885 88.1489 146.81L116.934 204.161L119.768 202.853L90.9837 145.283C88.8031 140.922 83.7876 139.178 79.6443 141.14Z" fill="#EBA352"/>
<path d="M205.468 175.813C201.979 169.052 191.075 169.489 179.954 181.7C172.104 190.205 170.577 193.04 162.727 192.822V183.881C162.727 183.881 145.936 171.451 112.572 177.121C112.572 177.121 93.6002 179.738 93.6002 189.769C93.6002 189.769 90.3293 213.974 97.0893 229.239C107.12 251.917 158.584 257.805 174.721 219.208C177.992 211.575 184.534 205.906 190.421 198.709C197.181 189.987 209.175 183.009 205.468 175.813Z" fill="#FFDD67"/>
<path d="M205.468 175.813C204.814 174.504 203.942 173.632 202.851 172.76C203.069 172.978 203.287 173.196 203.287 173.632C206.995 181.046 195.001 187.806 187.805 196.529C181.917 203.725 175.375 209.395 172.104 217.027C158.148 250.391 117.588 250.391 100.579 235.126C116.061 252.572 159.674 254.316 174.285 219.208C177.556 211.575 184.098 205.906 189.985 198.71C197.182 189.987 209.175 183.009 205.468 175.813ZM164.908 192.822C150.734 187.588 125.438 197.183 128.927 222.697C128.927 198.928 150.516 193.04 162.291 193.04C164.036 192.822 164.908 192.822 164.908 192.822Z" fill="#EBA352"/>
<path d="M108.521 299.041C108.521 295.183 108.56 291.325 108.676 287.466C109.872 287.428 110.566 287.389 111.84 287.389C113.151 287.389 114.039 287.428 115.196 287.466C115.389 287.505 115.544 287.698 115.621 287.852L120.444 297.768L125.305 287.852C125.421 287.698 125.575 287.505 125.768 287.505C126.463 287.428 127.389 287.389 128.469 287.389C129.781 287.389 130.977 287.428 132.057 287.466C132.25 287.505 132.443 287.659 132.443 287.852C132.52 291.479 132.597 295.183 132.597 299.041C132.597 302.9 132.52 306.758 132.443 310.616C131.324 310.693 130.707 310.732 129.434 310.732C128.508 310.732 127.157 310.693 125.884 310.616C125.652 310.616 125.498 310.462 125.498 310.23C125.421 306.835 125.267 303.363 125.267 299.736L120.868 308.687L120.444 308.764L120.058 308.687L115.852 300.16L116.007 310.616C114.772 310.693 114.077 310.732 112.804 310.732C111.878 310.732 110.335 310.693 109.062 310.616C108.83 310.616 108.676 310.462 108.676 310.23C108.599 306.604 108.521 302.9 108.521 299.041ZM136.39 282.528C136.39 282.373 136.428 282.257 136.583 282.18C138.705 280.83 139.901 280.444 141.058 280.405C142.795 280.405 144.261 281.409 145.92 281.409C146.846 281.409 147.926 281.061 149.392 280.29C150.164 281.524 150.666 282.45 151.051 283.106C151.321 283.608 151.707 284.225 151.707 284.38C151.707 284.534 151.63 284.65 151.514 284.727C149.508 286.077 147.965 286.617 146.807 286.617C145.148 286.617 143.952 285.769 142.332 285.769C141.406 285.769 140.287 286.116 138.82 286.887C138.165 285.807 137.624 284.881 137.239 284.187C136.853 283.492 136.39 282.72 136.39 282.528ZM133.959 310.308C133.959 310.23 134.075 309.497 134.152 309.111C135.309 302.051 136.93 294.604 138.357 287.466C140.094 287.389 141.869 287.389 143.682 287.389C145.534 287.389 147.347 287.428 149.199 287.466C149.392 287.466 149.585 287.659 149.624 287.852C151.09 295.26 152.903 303.131 154.022 310.616C152.826 310.693 151.977 310.732 150.666 310.732C149.354 310.732 148.235 310.732 146.884 310.616C146.691 310.616 146.499 310.462 146.46 310.23C146.19 308.996 145.958 307.684 145.765 306.372H142.177C141.946 307.8 141.714 309.227 141.444 310.616C140.209 310.693 139.515 310.732 138.242 310.732C136.93 310.732 135.579 310.693 134.306 310.616C134.113 310.616 133.959 310.5 133.959 310.308ZM142.833 301.356H144.994C144.569 298.501 144.184 295.607 143.798 292.714C143.45 295.569 143.142 298.462 142.833 301.356ZM154.434 299.041C154.434 291.479 157.791 287.466 163.231 287.196C170.562 287.196 174.034 290.128 174.034 299.041C174.034 306.642 170.6 310.578 165.16 310.848C157.791 310.848 154.434 307.993 154.434 299.041ZM162.459 299.041C162.459 303.633 163.231 304.134 164.273 304.134C165.315 304.134 165.97 303.633 165.97 299.041C165.97 294.45 165.199 293.948 164.157 293.948C163.115 293.948 162.459 294.45 162.459 299.041Z" fill="black" fill-opacity="0.7"/>
<path d="M98.8618 29.1921H254.174V308.441" stroke="#FFCE31" stroke-width="4.70644" stroke-linecap="round"/>
<path d="M186.715 407.276H28.2648V124.889" stroke="#FFCE31" stroke-width="4.70644" stroke-linecap="round"/>
<path d="M59.626 67.0803L65.7446 68.2569L70.765 42.4488C71.0788 40.7231 69.9806 38.9973 68.3333 38.6835C66.6075 38.3697 64.9602 39.5464 64.6464 41.2722L59.626 67.0803Z" fill="#FFDD67"/>
<path d="M68.4113 38.6832C68.176 38.6047 68.0191 38.6047 67.7838 38.6047C69.1958 39.1538 69.9802 40.6443 69.6664 42.2132L64.646 68.0213L65.7442 68.2566L70.7646 42.4485C71.1569 40.6443 70.0586 38.997 68.4113 38.6832Z" fill="#EBA352"/>
<path d="M53.3496 67.8644H60.7233V39.3892C60.7233 37.2713 59.076 35.467 57.0365 35.467C55.0754 35.467 53.3496 37.1928 53.3496 39.3892V67.8644Z" fill="#FFDD67"/>
<path d="M57.115 35.467C56.9581 35.467 56.7228 35.467 56.5659 35.5455C58.3701 35.8593 59.7037 37.4281 59.7037 39.3892V67.9429H60.8019V39.3892C60.8019 37.1928 59.1546 35.467 57.115 35.467Z" fill="#EBA352"/>
<path d="M49.4272 67.7858L55.7027 66.1385L48.8781 40.1735C48.4074 38.3693 46.6032 37.2711 44.8774 37.6633C43.1517 38.1339 42.1319 39.9382 42.6026 41.7424L49.4272 67.7858Z" fill="#FFDD67"/>
<path d="M44.8779 37.6633L44.4072 37.8986C45.9761 37.8202 47.3881 38.8399 47.8588 40.4873L54.6834 66.4522L55.7816 66.1385L48.8785 40.1735C48.4079 38.3693 46.6037 37.2711 44.8779 37.6633Z" fill="#EBA352"/>
<path d="M36.0924 44.4096C34.602 45.1156 34.1313 46.9983 34.9158 48.5672L45.2704 69.198L50.5261 66.5309L40.1715 45.9001C39.3871 44.3312 37.5828 43.7036 36.0924 44.4096Z" fill="#FFDD67"/>
<path d="M36.0927 44.4096C35.9358 44.4881 35.779 44.5665 35.6221 44.7234C36.9556 44.3312 38.4461 45.0372 39.1521 46.4492L49.5067 67.08L50.5264 66.6093L40.1718 45.9001C39.3874 44.3312 37.5832 43.7036 36.0927 44.4096Z" fill="#EBA352"/>
<path d="M81.354 56.8824C80.0989 54.4506 76.1767 54.6075 72.1761 59.0004C69.3521 62.0597 68.803 63.0795 65.979 63.001V59.7848C65.979 59.7848 59.9388 55.3135 47.9369 57.353C47.9369 57.353 41.1122 58.2944 41.1122 61.9028C41.1122 61.9028 39.9356 70.6101 42.3673 76.1012C45.9758 84.2593 64.4886 86.3773 70.2934 72.4927C71.4701 69.7472 73.8234 67.7077 75.9414 65.119C78.3732 61.9812 82.6876 59.471 81.354 56.8824Z" fill="#FFDD67"/>
<path d="M81.3541 56.8822C81.1188 56.4115 80.805 56.0977 80.4128 55.7839C80.4913 55.8624 80.5697 55.9408 80.5697 56.0977C81.9032 58.7648 77.5888 61.1966 75.0002 64.3343C72.8822 66.923 70.5289 68.9625 69.3522 71.7081C64.3318 83.71 49.7412 83.71 43.6226 78.2189C49.1921 84.4945 64.8809 85.122 70.1366 72.4925C71.3133 69.747 73.6666 67.7074 75.7846 65.1188C78.3733 61.981 82.6877 59.4708 81.3541 56.8822ZM66.7635 63.0008C61.6647 61.1181 52.5652 64.5697 53.8203 73.7476C53.8203 65.1972 61.5862 63.0792 65.8222 63.0792C66.4498 63.0008 66.7635 63.0008 66.7635 63.0008Z" fill="#EBA352"/>
<path d="M225.919 383.98L232.038 385.157L237.058 359.349C237.372 357.623 236.274 355.897 234.627 355.583C232.901 355.27 231.254 356.446 230.94 358.172L225.919 383.98Z" fill="#FFDD67"/>
<path d="M234.705 355.583C234.47 355.505 234.313 355.505 234.078 355.505C235.49 356.054 236.274 357.544 235.96 359.113L230.94 384.921L232.038 385.157L237.059 359.349C237.451 357.544 236.353 355.897 234.705 355.583Z" fill="#EBA352"/>
<path d="M219.644 384.765H227.017V356.289C227.017 354.171 225.37 352.367 223.33 352.367C221.369 352.367 219.644 354.093 219.644 356.289V384.765Z" fill="#FFDD67"/>
<path d="M223.409 352.367C223.253 352.367 223.017 352.367 222.86 352.446C224.665 352.759 225.998 354.328 225.998 356.289V384.843H227.096V356.289C227.096 354.093 225.449 352.367 223.409 352.367Z" fill="#EBA352"/>
<path d="M215.722 384.686L221.997 383.039L215.173 357.074C214.702 355.27 212.898 354.171 211.172 354.564C209.446 355.034 208.426 356.839 208.897 358.643L215.722 384.686Z" fill="#FFDD67"/>
<path d="M211.172 354.564L210.701 354.799C212.27 354.721 213.682 355.74 214.153 357.388L220.977 383.353L222.076 383.039L215.172 357.074C214.702 355.27 212.898 354.171 211.172 354.564Z" fill="#EBA352"/>
<path d="M202.386 361.31C200.896 362.016 200.425 363.899 201.21 365.468L211.564 386.098L216.82 383.431L206.465 362.8C205.681 361.232 203.877 360.604 202.386 361.31Z" fill="#FFDD67"/>
<path d="M202.386 361.31C202.229 361.388 202.072 361.467 201.916 361.624C203.249 361.232 204.74 361.938 205.446 363.35L215.8 383.98L216.82 383.51L206.465 362.8C205.681 361.232 203.877 360.604 202.386 361.31Z" fill="#EBA352"/>
<path d="M247.648 373.783C246.393 371.351 242.471 371.508 238.471 375.901C235.647 378.96 235.097 379.98 232.273 379.901V376.685C232.273 376.685 226.233 372.214 214.231 374.253C214.231 374.253 207.407 375.195 207.407 378.803C207.407 378.803 206.23 387.51 208.662 393.002C212.27 401.16 230.783 403.278 236.588 389.393C237.765 386.648 240.118 384.608 242.236 382.019C244.668 378.882 248.982 376.371 247.648 373.783Z" fill="#FFDD67"/>
<path d="M247.649 373.783C247.413 373.312 247.099 372.998 246.707 372.684C246.786 372.763 246.864 372.841 246.864 372.998C248.198 375.665 243.883 378.097 241.295 381.235C239.177 383.823 236.823 385.863 235.647 388.608C230.626 400.61 216.036 400.61 209.917 395.119C215.487 401.395 231.175 402.022 236.431 389.393C237.608 386.647 239.961 384.608 242.079 382.019C244.668 378.881 248.982 376.371 247.649 373.783ZM233.058 379.901C227.959 378.019 218.86 381.47 220.115 390.648C220.115 382.098 227.881 379.98 232.117 379.98C232.744 379.901 233.058 379.901 233.058 379.901Z" fill="#EBA352"/>
<rect x="4.73302" y="5.65953" width="272.973" height="425.148" rx="18.8258" stroke="#FFCE31" stroke-width="9.41288"/>
</g>
<defs>
<filter id="filter0_d_35_520" x="0.0263672" y="0.953125" width="282.386" height="440.836" filterUnits="userSpaceOnUse" color-interpolation-filters="sRGB">
<feFlood flood-opacity="0" result="BackgroundImageFix"/>
<feColorMatrix in="SourceAlpha" type="matrix" values="0 0 0 0 0 0 0 0 0 0 0 0 0 0 0 0 0 0 127 0" result="hardAlpha"/>
<feOffset dy="6.27525"/>
<feComposite in2="hardAlpha" operator="out"/>
<feColorMatrix type="matrix" values="0 0 0 0 0 0 0 0 0 0 0 0 0 0 0 0 0 0 0.15 0"/>
<feBlend mode="normal" in2="BackgroundImageFix" result="effect1_dropShadow_35_520"/>
<feBlend mode="normal" in="SourceGraphic" in2="effect1_dropShadow_35_520" result="shape"/>
</filter>
</defs>
</svg>
