<svg width="283" height="442" viewBox="0 0 283 442" fill="none" xmlns="http://www.w3.org/2000/svg">
<g filter="url(#filter0_d_35_256)">
<rect x="9.77295" y="10.366" width="263.56" height="415.735" rx="14.1193" fill="white"/>
<path d="M143.22 140.626C143.22 141.647 142.2 142.667 141.179 142.667C140.158 142.667 139.138 141.647 139.138 140.626V118.58C139.138 117.356 140.158 116.539 141.179 116.539C142.2 116.539 143.22 117.356 143.22 118.58V140.626Z" fill="#B2C1C0"/>
<path d="M84.0239 173.694H198.335V239.015H84.0239V173.694Z" fill="#E5DEC1"/>
<path d="M199.355 156.956C198.334 154.915 195.68 153.281 193.231 153.281H88.9221C86.6767 153.281 83.8189 154.915 82.7983 156.956L76.0621 170.02C75.0415 172.061 76.0621 173.694 78.3075 173.694H203.641C205.887 173.694 206.907 172.061 205.887 170.02L199.355 156.956Z" fill="#D33B23"/>
<path d="M106.477 208.396C106.477 209.417 105.661 210.437 104.436 210.437H92.1882C90.9635 210.437 90.147 209.417 90.147 208.396V200.231C90.147 199.21 90.9635 198.19 92.1882 198.19H104.436C105.661 198.19 106.477 199.21 106.477 200.231V208.396ZM106.477 187.983C106.477 189.004 105.661 190.024 104.436 190.024H92.1882C90.9635 190.024 90.147 189.004 90.147 187.983V179.818C90.147 178.797 90.9635 177.777 92.1882 177.777H104.436C105.661 177.777 106.477 178.797 106.477 179.818V187.983Z" fill="#D6EEF0"/>
<path d="M104.436 191.045H92.1884C90.5554 191.045 89.1265 189.616 89.1265 187.983V179.818C89.1265 178.185 90.5554 176.756 92.1884 176.756H104.436C106.069 176.756 107.498 178.185 107.498 179.818V187.983C107.498 189.616 106.069 191.045 104.436 191.045ZM92.1884 178.797C91.576 178.797 91.1677 179.206 91.1677 179.818V187.983C91.1677 188.595 91.576 189.004 92.1884 189.004H104.436C105.048 189.004 105.457 188.595 105.457 187.983V179.818C105.457 179.206 105.048 178.797 104.436 178.797H92.1884Z" fill="#DBB471"/>
<path d="M97.2915 177.777H99.3328V190.024H97.2915V177.777ZM104.436 212.478H92.1884C90.5554 212.478 89.1265 211.05 89.1265 209.416V201.251C89.1265 199.618 90.5554 198.19 92.1884 198.19H104.436C106.069 198.19 107.498 199.618 107.498 201.251V209.416C107.498 211.05 106.069 212.478 104.436 212.478ZM92.1884 200.231C91.576 200.231 91.1677 200.639 91.1677 201.251V209.416C91.1677 210.029 91.576 210.437 92.1884 210.437H104.436C105.048 210.437 105.457 210.029 105.457 209.416V201.251C105.457 200.639 105.048 200.231 104.436 200.231H92.1884Z" fill="#DBB471"/>
<path d="M97.2915 199.21H99.3328V211.458H97.2915V199.21Z" fill="#DBB471"/>
<path d="M106.477 228.809C106.477 229.829 105.661 230.85 104.436 230.85H92.1882C90.9635 230.85 90.147 229.829 90.147 228.809V220.644C90.147 219.623 90.9635 218.602 92.1882 218.602H104.436C105.661 218.602 106.477 219.623 106.477 220.644V228.809Z" fill="#D6EEF0"/>
<path d="M104.436 232.891H92.1884C90.5554 232.891 89.1265 231.462 89.1265 229.829V221.664C89.1265 220.031 90.5554 218.602 92.1884 218.602H104.436C106.069 218.602 107.498 220.031 107.498 221.664V229.829C107.498 231.462 106.069 232.891 104.436 232.891ZM92.1884 220.644C91.576 220.644 91.1677 221.052 91.1677 221.664V229.829C91.1677 230.442 91.576 230.85 92.1884 230.85H104.436C105.048 230.85 105.457 230.442 105.457 229.829V221.664C105.457 221.052 105.048 220.644 104.436 220.644H92.1884Z" fill="#DBB471"/>
<path d="M97.2915 219.623H99.3328V231.87H97.2915V219.623Z" fill="#DBB471"/>
<path d="M192.211 208.396C192.211 209.417 191.19 210.437 190.169 210.437H177.922C176.901 210.437 175.88 209.417 175.88 208.396V200.231C175.88 199.21 176.901 198.19 177.922 198.19H190.169C191.19 198.19 192.211 199.21 192.211 200.231V208.396ZM192.211 187.983C192.211 189.004 191.19 190.024 190.169 190.024H177.922C176.901 190.024 175.88 189.004 175.88 187.983V179.818C175.88 178.797 176.901 177.777 177.922 177.777H190.169C191.19 177.777 192.211 178.797 192.211 179.818V187.983Z" fill="#D6EEF0"/>
<path d="M190.169 191.045H177.922C176.289 191.045 174.86 189.616 174.86 187.983V179.818C174.86 178.185 176.289 176.756 177.922 176.756H190.169C191.802 176.756 193.231 178.185 193.231 179.818V187.983C193.231 189.616 191.802 191.045 190.169 191.045ZM177.922 178.797C177.309 178.797 176.901 179.206 176.901 179.818V187.983C176.901 188.595 177.309 189.004 177.922 189.004H190.169C190.782 189.004 191.19 188.595 191.19 187.983V179.818C191.19 179.206 190.782 178.797 190.169 178.797H177.922Z" fill="#DBB471"/>
<path d="M183.025 177.777H185.066V190.024H183.025V177.777ZM190.169 212.478H177.922C176.289 212.478 174.86 211.05 174.86 209.416V201.251C174.86 199.618 176.289 198.19 177.922 198.19H190.169C191.802 198.19 193.231 199.618 193.231 201.251V209.416C193.231 211.05 191.802 212.478 190.169 212.478ZM177.922 200.231C177.309 200.231 176.901 200.639 176.901 201.251V209.416C176.901 210.029 177.309 210.437 177.922 210.437H190.169C190.782 210.437 191.19 210.029 191.19 209.416V201.251C191.19 200.639 190.782 200.231 190.169 200.231H177.922Z" fill="#DBB471"/>
<path d="M183.025 199.21H185.067V211.458H183.025V199.21Z" fill="#DBB471"/>
<path d="M192.211 228.809C192.211 229.829 191.19 230.85 190.169 230.85H177.922C176.901 230.85 175.88 229.829 175.88 228.809V220.644C175.88 219.623 176.901 218.602 177.922 218.602H190.169C191.19 218.602 192.211 219.623 192.211 220.644V228.809Z" fill="#D6EEF0"/>
<path d="M190.169 232.891H177.922C176.289 232.891 174.86 231.462 174.86 229.829V221.664C174.86 220.031 176.289 218.602 177.922 218.602H190.169C191.802 218.602 193.231 220.031 193.231 221.664V229.829C193.231 231.462 191.802 232.891 190.169 232.891ZM177.922 220.644C177.309 220.644 176.901 221.052 176.901 221.664V229.829C176.901 230.442 177.309 230.85 177.922 230.85H190.169C190.782 230.85 191.19 230.442 191.19 229.829V221.664C191.19 221.052 190.782 220.644 190.169 220.644H177.922Z" fill="#DBB471"/>
<path d="M183.025 219.623H185.067V231.87H183.025V219.623Z" fill="#DBB471"/>
<path d="M142.812 140.217C141.995 139.605 140.566 139.605 139.546 140.217L99.945 172.469C99.1285 173.082 99.1285 173.694 100.353 173.694H182.004C183.025 173.694 183.433 173.082 182.412 172.469L142.812 140.217Z" fill="#F15744"/>
<path d="M174.248 172.47L142.813 146.341C141.996 145.525 140.567 145.525 139.751 146.341L108.111 172.47C107.09 173.082 107.295 173.694 108.519 173.694H112.602V239.015H169.757V173.694H173.84C174.86 173.694 175.269 173.082 174.248 172.47Z" fill="#F9F3D9"/>
<path d="M124.849 208.396H157.509V239.015H124.849V208.396Z" fill="#E5DEC1"/>
<path d="M128.932 208.396H153.427V239.015H128.932V208.396Z" fill="#42ADE2"/>
<path d="M141.179 183.9C149.071 183.9 155.468 177.503 155.468 169.612C155.468 161.72 149.071 155.323 141.179 155.323C133.287 155.323 126.89 161.72 126.89 169.612C126.89 177.503 133.287 183.9 141.179 183.9Z" fill="#DBB471"/>
<path d="M141.179 179.818C146.815 179.818 151.385 175.249 151.385 169.612C151.385 163.975 146.815 159.406 141.179 159.406C135.542 159.406 130.972 163.975 130.972 169.612C130.972 175.249 135.542 179.818 141.179 179.818Z" fill="white"/>
<path d="M140.159 208.396H142.2V239.015H140.159V208.396Z" fill="#E5DEC1"/>
<path d="M141.179 161.447C140.158 161.447 139.138 162.468 139.138 163.488V171.653C139.138 172.674 140.158 173.695 141.179 173.695C142.2 173.695 143.22 172.674 143.22 171.653V163.488C143.22 162.468 142.2 161.447 141.179 161.447Z" fill="#B2C1C0"/>
<path d="M141.179 169.612H137.096C136.076 169.612 135.055 170.632 135.055 171.653C135.055 172.674 136.076 173.694 137.096 173.694H141.179C142.2 173.694 143.22 172.674 143.22 171.653C143.22 170.632 142.2 169.612 141.179 169.612Z" fill="#F15744"/>
<path d="M143.22 120.621V135.727C151.385 142.259 159.55 121.642 167.715 128.174C159.55 116.539 151.385 132.052 143.22 120.621Z" fill="#B4D7EE"/>
<path d="M143.016 198.802C141.995 197.985 140.158 197.985 139.138 198.802C134.851 201.864 120.766 210.437 120.766 210.437V214.52H161.591V210.437C161.591 210.437 147.507 201.864 143.016 198.802Z" fill="#F15744"/>
<path d="M204.458 239.015H77.8992C76.6744 239.015 75.8579 240.036 75.8579 241.056V245.139C75.8579 246.16 76.6744 247.18 77.8992 247.18H204.458C205.478 247.18 206.499 246.16 206.499 245.139V241.056C206.499 240.036 205.478 239.015 204.458 239.015Z" fill="#666666"/>
<path d="M116.684 243.097H165.674V247.18H116.684V243.097Z" fill="#E8E8E8"/>
<path d="M120.766 239.015H161.591V243.098H120.766V239.015Z" fill="#D0D0D0"/>
<path d="M135.259 225.747H138.117V227.175H135.259V225.747ZM144.24 225.747H147.098V227.175H144.24V225.747Z" fill="#666666"/>
<path d="M87.8569 298.981C87.8569 295.123 87.8954 291.265 88.0112 287.406C89.2073 287.368 94.7247 287.329 95.9979 287.329C97.3098 287.329 101.438 287.368 102.75 287.406C102.943 287.406 103.097 287.599 103.136 287.792C103.136 288.988 103.136 290.069 103.136 291.149C103.136 292.075 103.136 293.001 103.136 293.966C101.901 294.043 98.2744 294.043 97.0011 294.043C96.6924 294.043 96.1523 294.043 95.4964 294.043C95.4964 294.699 95.4964 295.393 95.4964 296.088C97.0397 296.088 99.1232 296.126 100.126 296.126C100.319 296.126 100.474 296.319 100.512 296.512C100.512 297.592 100.512 298.518 100.512 299.444C100.512 300.255 100.512 301.065 100.512 301.991H95.4964C95.4964 302.685 95.4964 303.341 95.4964 303.997H95.9979C97.3098 303.997 101.515 304.036 102.827 304.074C103.02 304.074 103.174 304.267 103.213 304.46C103.213 305.656 103.213 306.737 103.213 307.817C103.213 308.743 103.213 309.669 103.213 310.634C101.978 310.711 97.8499 310.749 96.5767 310.749C95.2649 310.749 89.6703 310.634 88.397 310.556C88.1655 310.556 88.0112 310.402 88.0112 310.171C87.934 306.544 87.8569 302.84 87.8569 298.981ZM104.915 310.325L105.841 303.38C108.541 304.229 110.934 304.73 112.67 304.73C114.136 304.73 114.753 303.959 114.753 303.341C114.753 302.57 113.634 302.261 112.13 301.837C109.236 301.026 104.953 299.792 104.953 293.85C104.953 287.599 108.812 287.136 114.097 287.136C116.335 287.136 118.959 287.484 121.544 287.985L120.657 294.429C118.843 293.618 116.104 292.847 113.712 292.847C112.516 292.847 111.744 293.232 111.744 293.927C111.744 294.621 112.94 294.969 114.522 295.432C117.724 296.396 122.509 297.824 122.509 303.187C122.509 309.322 118.264 310.749 113.056 310.749C110.432 310.749 107.577 310.634 104.915 310.325ZM123.596 298.981C123.596 289.914 127.686 287.136 134.207 287.136C135.789 287.136 137.023 287.445 138.605 287.792L137.756 293.85L134.207 293.618C132.779 293.541 131.622 294.39 131.622 298.981C131.622 303.573 132.625 304.46 134.207 304.383L137.756 304.113L138.567 310.209C136.985 310.518 135.711 310.634 134.129 310.634C127.647 310.634 123.596 308.627 123.596 298.981ZM139.61 298.981C139.61 291.419 142.967 287.406 148.407 287.136C155.738 287.136 159.21 290.069 159.21 298.981C159.21 306.582 155.776 310.518 150.336 310.788C142.967 310.788 139.61 307.933 139.61 298.981ZM147.635 298.981C147.635 303.573 148.407 304.074 149.449 304.074C150.49 304.074 151.146 303.573 151.146 298.981C151.146 294.39 150.375 293.888 149.333 293.888C148.291 293.888 147.635 294.39 147.635 298.981ZM161.218 298.981C161.218 295.123 161.257 291.265 161.372 287.406C162.568 287.368 163.456 287.329 164.729 287.329C166.041 287.329 167.391 287.368 168.703 287.406C168.896 287.406 169.089 287.599 169.089 287.792C169.166 291.419 169.243 295.123 169.243 298.981C169.243 300.718 169.205 302.377 169.205 303.997H169.359C170.671 303.997 173.95 304.036 175.262 304.074C175.455 304.074 175.61 304.267 175.648 304.46C175.648 305.656 175.648 306.737 175.648 307.817C175.648 308.743 175.648 309.669 175.648 310.634C174.413 310.711 171.211 310.749 169.938 310.749C168.626 310.749 163.031 310.634 161.758 310.556C161.527 310.556 161.372 310.402 161.372 310.171C161.295 306.544 161.218 302.84 161.218 298.981ZM175.616 310.248C175.616 310.171 175.731 309.437 175.808 309.052C176.966 301.991 178.586 294.544 180.014 287.406C181.75 287.329 183.525 287.329 185.339 287.329C187.191 287.329 189.004 287.368 190.856 287.406C191.049 287.406 191.242 287.599 191.28 287.792C192.747 295.2 194.56 303.071 195.679 310.556C194.483 310.634 193.634 310.672 192.322 310.672C191.01 310.672 189.891 310.672 188.541 310.556C188.348 310.556 188.155 310.402 188.117 310.171C187.846 308.936 187.615 307.624 187.422 306.312H183.834C183.602 307.74 183.371 309.167 183.101 310.556C181.866 310.634 181.172 310.672 179.898 310.672C178.586 310.672 177.236 310.634 175.963 310.556C175.77 310.556 175.616 310.441 175.616 310.248ZM184.49 301.296H186.65C186.226 298.441 185.84 295.547 185.454 292.654C185.107 295.509 184.798 298.403 184.49 301.296Z" fill="black" fill-opacity="0.7"/>
<path d="M99.1948 29.1921H254.507V308.441" stroke="#F15744" stroke-width="4.70644" stroke-linecap="round" stroke-linejoin="round"/>
<path d="M187.048 407.276H28.5983V124.889" stroke="#F15744" stroke-width="4.70644" stroke-linecap="round" stroke-linejoin="round"/>
<path d="M59.1751 44.1318C59.1751 44.4989 58.808 44.8661 58.4408 44.8661C58.0737 44.8661 57.7065 44.4989 57.7065 44.1318V36.2013C57.7065 35.7608 58.0737 35.467 58.4408 35.467C58.808 35.467 59.1751 35.7608 59.1751 36.2013V44.1318Z" fill="#B2C1C0"/>
<path d="M37.8804 56.0273H79.0011V79.5249H37.8804V56.0273Z" fill="#E5DEC1"/>
<path d="M79.3683 50.0061C79.0012 49.2718 78.0466 48.6843 77.1654 48.6843H39.6428C38.835 48.6843 37.807 49.2718 37.4399 50.0061L35.0167 54.7056C34.6495 55.4399 35.0167 56.0273 35.8244 56.0273H80.9104C81.7181 56.0273 82.0852 55.4399 81.7181 54.7056L79.3683 50.0061Z" fill="#D33B23"/>
<path d="M45.9569 68.5108C45.9569 68.878 45.6632 69.2451 45.2226 69.2451H40.8168C40.3762 69.2451 40.0825 68.878 40.0825 68.5108V65.5736C40.0825 65.2065 40.3762 64.8393 40.8168 64.8393H45.2226C45.6632 64.8393 45.9569 65.2065 45.9569 65.5736V68.5108ZM45.9569 61.1678C45.9569 61.535 45.6632 61.9021 45.2226 61.9021H40.8168C40.3762 61.9021 40.0825 61.535 40.0825 61.1678V58.2306C40.0825 57.8635 40.3762 57.4963 40.8168 57.4963H45.2226C45.6632 57.4963 45.9569 57.8635 45.9569 58.2306V61.1678Z" fill="#D6EEF0"/>
<path d="M45.2236 62.269H40.8178C40.2303 62.269 39.7163 61.755 39.7163 61.1676V58.2304C39.7163 57.6429 40.2303 57.1289 40.8178 57.1289H45.2236C45.811 57.1289 46.325 57.6429 46.325 58.2304V61.1676C46.325 61.755 45.811 62.269 45.2236 62.269ZM40.8178 57.8632C40.5975 57.8632 40.4506 58.0101 40.4506 58.2304V61.1676C40.4506 61.3878 40.5975 61.5347 40.8178 61.5347H45.2236C45.4438 61.5347 45.5907 61.3878 45.5907 61.1676V58.2304C45.5907 58.0101 45.4438 57.8632 45.2236 57.8632H40.8178Z" fill="#DBB471"/>
<path d="M42.6535 57.4963H43.3878V61.9021H42.6535V57.4963ZM45.2236 69.9794H40.8178C40.2303 69.9794 39.7163 69.4654 39.7163 68.878V65.9408C39.7163 65.3533 40.2303 64.8393 40.8178 64.8393H45.2236C45.811 64.8393 46.325 65.3533 46.325 65.9408V68.878C46.325 69.4654 45.811 69.9794 45.2236 69.9794ZM40.8178 65.5736C40.5975 65.5736 40.4506 65.7205 40.4506 65.9408V68.878C40.4506 69.0983 40.5975 69.2451 40.8178 69.2451H45.2236C45.4438 69.2451 45.5907 69.0983 45.5907 68.878V65.9408C45.5907 65.7205 45.4438 65.5736 45.2236 65.5736H40.8178Z" fill="#DBB471"/>
<path d="M42.6523 65.2063H43.3866V69.6121H42.6523V65.2063Z" fill="#DBB471"/>
<path d="M45.9569 75.8534C45.9569 76.2205 45.6632 76.5877 45.2226 76.5877H40.8168C40.3762 76.5877 40.0825 76.2205 40.0825 75.8534V72.9162C40.0825 72.549 40.3762 72.1819 40.8168 72.1819H45.2226C45.6632 72.1819 45.9569 72.549 45.9569 72.9162V75.8534Z" fill="#D6EEF0"/>
<path d="M45.2236 77.322H40.8178C40.2303 77.322 39.7163 76.808 39.7163 76.2205V73.2833C39.7163 72.6959 40.2303 72.1819 40.8178 72.1819H45.2236C45.811 72.1819 46.325 72.6959 46.325 73.2833V76.2205C46.325 76.808 45.811 77.322 45.2236 77.322ZM40.8178 72.9162C40.5975 72.9162 40.4506 73.063 40.4506 73.2833V76.2205C40.4506 76.4408 40.5975 76.5877 40.8178 76.5877H45.2236C45.4438 76.5877 45.5907 76.4408 45.5907 76.2205V73.2833C45.5907 73.063 45.4438 72.9162 45.2236 72.9162H40.8178Z" fill="#DBB471"/>
<path d="M42.6523 72.5493H43.3866V76.9551H42.6523V72.5493Z" fill="#DBB471"/>
<path d="M76.7977 68.5108C76.7977 68.878 76.4306 69.2451 76.0634 69.2451H71.6576C71.2905 69.2451 70.9233 68.878 70.9233 68.5108V65.5736C70.9233 65.2065 71.2905 64.8393 71.6576 64.8393H76.0634C76.4306 64.8393 76.7977 65.2065 76.7977 65.5736V68.5108ZM76.7977 61.1678C76.7977 61.535 76.4306 61.9021 76.0634 61.9021H71.6576C71.2905 61.9021 70.9233 61.535 70.9233 61.1678V58.2306C70.9233 57.8635 71.2905 57.4963 71.6576 57.4963H76.0634C76.4306 57.4963 76.7977 57.8635 76.7977 58.2306V61.1678Z" fill="#D6EEF0"/>
<path d="M76.0634 62.269H71.6576C71.0702 62.269 70.5562 61.755 70.5562 61.1676V58.2304C70.5562 57.6429 71.0702 57.1289 71.6576 57.1289H76.0634C76.6508 57.1289 77.1648 57.6429 77.1648 58.2304V61.1676C77.1648 61.755 76.6508 62.269 76.0634 62.269ZM71.6576 57.8632C71.4373 57.8632 71.2905 58.0101 71.2905 58.2304V61.1676C71.2905 61.3878 71.4373 61.5347 71.6576 61.5347H76.0634C76.2837 61.5347 76.4305 61.3878 76.4305 61.1676V58.2304C76.4305 58.0101 76.2837 57.8632 76.0634 57.8632H71.6576Z" fill="#DBB471"/>
<path d="M73.4933 57.4963H74.2276V61.9021H73.4933V57.4963ZM76.0634 69.9794H71.6576C71.0702 69.9794 70.5562 69.4654 70.5562 68.878V65.9408C70.5562 65.3533 71.0702 64.8393 71.6576 64.8393H76.0634C76.6508 64.8393 77.1648 65.3533 77.1648 65.9408V68.878C77.1648 69.4654 76.6508 69.9794 76.0634 69.9794ZM71.6576 65.5736C71.4373 65.5736 71.2905 65.7205 71.2905 65.9408V68.878C71.2905 69.0983 71.4373 69.2451 71.6576 69.2451H76.0634C76.2837 69.2451 76.4305 69.0983 76.4305 68.878V65.9408C76.4305 65.7205 76.2837 65.5736 76.0634 65.5736H71.6576Z" fill="#DBB471"/>
<path d="M73.4941 65.2063H74.2284V69.6121H73.4941V65.2063Z" fill="#DBB471"/>
<path d="M76.7977 75.8534C76.7977 76.2205 76.4306 76.5877 76.0634 76.5877H71.6576C71.2905 76.5877 70.9233 76.2205 70.9233 75.8534V72.9162C70.9233 72.549 71.2905 72.1819 71.6576 72.1819H76.0634C76.4306 72.1819 76.7977 72.549 76.7977 72.9162V75.8534Z" fill="#D6EEF0"/>
<path d="M76.0634 77.322H71.6576C71.0702 77.322 70.5562 76.808 70.5562 76.2205V73.2833C70.5562 72.6959 71.0702 72.1819 71.6576 72.1819H76.0634C76.6508 72.1819 77.1648 72.6959 77.1648 73.2833V76.2205C77.1648 76.808 76.6508 77.322 76.0634 77.322ZM71.6576 72.9162C71.4373 72.9162 71.2905 73.063 71.2905 73.2833V76.2205C71.2905 76.4408 71.4373 76.5877 71.6576 76.5877H76.0634C76.2837 76.5877 76.4305 76.4408 76.4305 76.2205V73.2833C76.4305 73.063 76.2837 72.9162 76.0634 72.9162H71.6576Z" fill="#DBB471"/>
<path d="M73.4941 72.5493H74.2284V76.9551H73.4941V72.5493Z" fill="#DBB471"/>
<path d="M59.0283 43.9853C58.7346 43.765 58.2206 43.765 57.8534 43.9853L43.608 55.5872C43.3143 55.8075 43.3143 56.0278 43.7549 56.0278H73.1268C73.494 56.0278 73.6409 55.8075 73.2737 55.5872L59.0283 43.9853Z" fill="#F15744"/>
<path d="M70.3359 55.5868L59.0277 46.1878C58.734 45.8941 58.22 45.8941 57.9263 46.1878L46.5446 55.5868C46.1775 55.8071 46.2509 56.0274 46.6915 56.0274H48.1601V79.525H68.7205V56.0274H70.1891C70.5562 56.0274 70.7031 55.8071 70.3359 55.5868Z" fill="#F9F3D9"/>
<path d="M52.5669 68.5107H64.3157V79.5252H52.5669V68.5107Z" fill="#E5DEC1"/>
<path d="M54.0352 68.5107H62.8467V79.5252H54.0352V68.5107Z" fill="#42ADE2"/>
<path d="M58.4409 59.6989C61.2797 59.6989 63.581 57.3976 63.581 54.5588C63.581 51.72 61.2797 49.4187 58.4409 49.4187C55.6021 49.4187 53.3008 51.72 53.3008 54.5588C53.3008 57.3976 55.6021 59.6989 58.4409 59.6989Z" fill="#DBB471"/>
<path d="M58.4405 58.2304C60.4682 58.2304 62.112 56.5867 62.112 54.5589C62.112 52.5312 60.4682 50.8875 58.4405 50.8875C56.4128 50.8875 54.769 52.5312 54.769 54.5589C54.769 56.5867 56.4128 58.2304 58.4405 58.2304Z" fill="white"/>
<path d="M58.0728 68.5107H58.8071V79.5252H58.0728V68.5107Z" fill="#E5DEC1"/>
<path d="M58.4408 51.6216C58.0737 51.6216 57.7065 51.9887 57.7065 52.3559V55.2931C57.7065 55.6602 58.0737 56.0274 58.4408 56.0274C58.808 56.0274 59.1751 55.6602 59.1751 55.2931V52.3559C59.1751 51.9887 58.808 51.6216 58.4408 51.6216Z" fill="#B2C1C0"/>
<path d="M58.4407 54.5586H56.9721C56.6049 54.5586 56.2378 54.9257 56.2378 55.2929C56.2378 55.66 56.6049 56.0272 56.9721 56.0272H58.4407C58.8078 56.0272 59.175 55.66 59.175 55.2929C59.175 54.9257 58.8078 54.5586 58.4407 54.5586Z" fill="#F15744"/>
<path d="M59.1748 36.9355V42.3694C62.112 44.7191 65.0492 37.3027 67.9864 39.6525C65.0492 35.4669 62.112 41.0476 59.1748 36.9355Z" fill="#B4D7EE"/>
<path d="M59.101 65.0594C58.7339 64.7657 58.073 64.7657 57.7059 65.0594C56.1638 66.1608 51.0972 69.2449 51.0972 69.2449V70.7135H65.7831V69.2449C65.7831 69.2449 60.7165 66.1608 59.101 65.0594Z" fill="#F15744"/>
<path d="M81.2032 79.5249H35.6767C35.2361 79.5249 34.9424 79.8921 34.9424 80.2592V81.7278C34.9424 82.0949 35.2361 82.4621 35.6767 82.4621H81.2032C81.5704 82.4621 81.9375 82.0949 81.9375 81.7278V80.2592C81.9375 79.8921 81.5704 79.5249 81.2032 79.5249Z" fill="#666666"/>
<path d="M49.6284 80.9937H67.2516V82.4623H49.6284V80.9937Z" fill="#E8E8E8"/>
<path d="M51.0972 79.5249H65.7831V80.9935H51.0972V79.5249Z" fill="#D0D0D0"/>
<path d="M56.3115 74.7522H57.3395V75.2662H56.3115V74.7522ZM59.5424 74.7522H60.5705V75.2662H59.5424V74.7522Z" fill="#666666"/>
<path d="M225.468 362.601C225.468 362.968 225.101 363.335 224.734 363.335C224.367 363.335 224 362.968 224 362.601V354.671C224 354.23 224.367 353.936 224.734 353.936C225.101 353.936 225.468 354.23 225.468 354.671V362.601Z" fill="#B2C1C0"/>
<path d="M204.174 374.496H245.295V397.994H204.174V374.496Z" fill="#E5DEC1"/>
<path d="M245.662 368.475C245.295 367.741 244.341 367.153 243.459 367.153H205.937C205.129 367.153 204.101 367.741 203.734 368.475L201.311 373.175C200.943 373.909 201.311 374.496 202.118 374.496H247.204C248.012 374.496 248.379 373.909 248.012 373.175L245.662 368.475Z" fill="#D33B23"/>
<path d="M212.251 386.98C212.251 387.347 211.958 387.714 211.517 387.714H207.111C206.671 387.714 206.377 387.347 206.377 386.98V384.043C206.377 383.675 206.671 383.308 207.111 383.308H211.517C211.958 383.308 212.251 383.675 212.251 384.043V386.98ZM212.251 379.637C212.251 380.004 211.958 380.371 211.517 380.371H207.111C206.671 380.371 206.377 380.004 206.377 379.637V376.7C206.377 376.332 206.671 375.965 207.111 375.965H211.517C211.958 375.965 212.251 376.332 212.251 376.7V379.637Z" fill="#D6EEF0"/>
<path d="M211.517 380.738H207.111C206.524 380.738 206.01 380.224 206.01 379.637V376.7C206.01 376.112 206.524 375.598 207.111 375.598H211.517C212.104 375.598 212.618 376.112 212.618 376.7V379.637C212.618 380.224 212.104 380.738 211.517 380.738ZM207.111 376.332C206.891 376.332 206.744 376.479 206.744 376.7V379.637C206.744 379.857 206.891 380.004 207.111 380.004H211.517C211.737 380.004 211.884 379.857 211.884 379.637V376.7C211.884 376.479 211.737 376.332 211.517 376.332H207.111Z" fill="#DBB471"/>
<path d="M208.947 375.965H209.681V380.371H208.947V375.965ZM211.517 388.448H207.111C206.524 388.448 206.01 387.934 206.01 387.347V384.41C206.01 383.822 206.524 383.308 207.111 383.308H211.517C212.104 383.308 212.618 383.822 212.618 384.41V387.347C212.618 387.934 212.104 388.448 211.517 388.448ZM207.111 384.043C206.891 384.043 206.744 384.189 206.744 384.41V387.347C206.744 387.567 206.891 387.714 207.111 387.714H211.517C211.737 387.714 211.884 387.567 211.884 387.347V384.41C211.884 384.189 211.737 384.043 211.517 384.043H207.111Z" fill="#DBB471"/>
<path d="M208.947 383.675H209.681V388.081H208.947V383.675Z" fill="#DBB471"/>
<path d="M212.251 394.323C212.251 394.69 211.958 395.057 211.517 395.057H207.111C206.671 395.057 206.377 394.69 206.377 394.323V391.385C206.377 391.018 206.671 390.651 207.111 390.651H211.517C211.958 390.651 212.251 391.018 212.251 391.385V394.323Z" fill="#D6EEF0"/>
<path d="M211.517 395.791H207.111C206.524 395.791 206.01 395.277 206.01 394.69V391.753C206.01 391.165 206.524 390.651 207.111 390.651H211.517C212.104 390.651 212.618 391.165 212.618 391.753V394.69C212.618 395.277 212.104 395.791 211.517 395.791ZM207.111 391.385C206.891 391.385 206.744 391.532 206.744 391.753V394.69C206.744 394.91 206.891 395.057 207.111 395.057H211.517C211.737 395.057 211.884 394.91 211.884 394.69V391.753C211.884 391.532 211.737 391.385 211.517 391.385H207.111Z" fill="#DBB471"/>
<path d="M208.947 391.018H209.681V395.424H208.947V391.018Z" fill="#DBB471"/>
<path d="M243.092 386.98C243.092 387.347 242.725 387.714 242.358 387.714H237.952C237.585 387.714 237.218 387.347 237.218 386.98V384.043C237.218 383.675 237.585 383.308 237.952 383.308H242.358C242.725 383.308 243.092 383.675 243.092 384.043V386.98ZM243.092 379.637C243.092 380.004 242.725 380.371 242.358 380.371H237.952C237.585 380.371 237.218 380.004 237.218 379.637V376.7C237.218 376.332 237.585 375.965 237.952 375.965H242.358C242.725 375.965 243.092 376.332 243.092 376.7V379.637Z" fill="#D6EEF0"/>
<path d="M242.358 380.738H237.952C237.365 380.738 236.851 380.224 236.851 379.637V376.7C236.851 376.112 237.365 375.598 237.952 375.598H242.358C242.945 375.598 243.459 376.112 243.459 376.7V379.637C243.459 380.224 242.945 380.738 242.358 380.738ZM237.952 376.332C237.732 376.332 237.585 376.479 237.585 376.7V379.637C237.585 379.857 237.732 380.004 237.952 380.004H242.358C242.578 380.004 242.725 379.857 242.725 379.637V376.7C242.725 376.479 242.578 376.332 242.358 376.332H237.952Z" fill="#DBB471"/>
<path d="M239.788 375.965H240.522V380.371H239.788V375.965ZM242.358 388.448H237.952C237.365 388.448 236.851 387.934 236.851 387.347V384.41C236.851 383.822 237.365 383.308 237.952 383.308H242.358C242.945 383.308 243.459 383.822 243.459 384.41V387.347C243.459 387.934 242.945 388.448 242.358 388.448ZM237.952 384.043C237.732 384.043 237.585 384.189 237.585 384.41V387.347C237.585 387.567 237.732 387.714 237.952 387.714H242.358C242.578 387.714 242.725 387.567 242.725 387.347V384.41C242.725 384.189 242.578 384.043 242.358 384.043H237.952Z" fill="#DBB471"/>
<path d="M239.788 383.675H240.522V388.081H239.788V383.675Z" fill="#DBB471"/>
<path d="M243.092 394.323C243.092 394.69 242.725 395.057 242.358 395.057H237.952C237.585 395.057 237.218 394.69 237.218 394.323V391.385C237.218 391.018 237.585 390.651 237.952 390.651H242.358C242.725 390.651 243.092 391.018 243.092 391.385V394.323Z" fill="#D6EEF0"/>
<path d="M242.358 395.791H237.952C237.365 395.791 236.851 395.277 236.851 394.69V391.753C236.851 391.165 237.365 390.651 237.952 390.651H242.358C242.945 390.651 243.459 391.165 243.459 391.753V394.69C243.459 395.277 242.945 395.791 242.358 395.791ZM237.952 391.385C237.732 391.385 237.585 391.532 237.585 391.753V394.69C237.585 394.91 237.732 395.057 237.952 395.057H242.358C242.578 395.057 242.725 394.91 242.725 394.69V391.753C242.725 391.532 242.578 391.385 242.358 391.385H237.952Z" fill="#DBB471"/>
<path d="M239.788 391.018H240.522V395.424H239.788V391.018Z" fill="#DBB471"/>
<path d="M225.322 362.454C225.028 362.234 224.514 362.234 224.147 362.454L209.901 374.056C209.608 374.276 209.608 374.497 210.048 374.497H239.42C239.787 374.497 239.934 374.276 239.567 374.056L225.322 362.454Z" fill="#F15744"/>
<path d="M236.63 374.056L225.322 364.657C225.028 364.363 224.514 364.363 224.221 364.657L212.839 374.056C212.472 374.276 212.545 374.496 212.986 374.496H214.455V397.994H235.015V374.496H236.484C236.851 374.496 236.998 374.276 236.63 374.056Z" fill="#F9F3D9"/>
<path d="M218.86 386.979H230.609V397.994H218.86V386.979Z" fill="#E5DEC1"/>
<path d="M220.329 386.979H229.141V397.994H220.329V386.979Z" fill="#42ADE2"/>
<path d="M224.735 378.168C227.574 378.168 229.875 375.867 229.875 373.028C229.875 370.189 227.574 367.888 224.735 367.888C221.896 367.888 219.595 370.189 219.595 373.028C219.595 375.867 221.896 378.168 224.735 378.168Z" fill="#DBB471"/>
<path d="M224.735 376.699C226.763 376.699 228.406 375.056 228.406 373.028C228.406 371 226.763 369.356 224.735 369.356C222.707 369.356 221.063 371 221.063 373.028C221.063 375.056 222.707 376.699 224.735 376.699Z" fill="white"/>
<path d="M224.367 386.979H225.101V397.994H224.367V386.979Z" fill="#E5DEC1"/>
<path d="M224.734 370.091C224.367 370.091 224 370.458 224 370.825V373.762C224 374.129 224.367 374.496 224.734 374.496C225.101 374.496 225.468 374.129 225.468 373.762V370.825C225.468 370.458 225.101 370.091 224.734 370.091Z" fill="#B2C1C0"/>
<path d="M224.735 373.028H223.266C222.899 373.028 222.532 373.395 222.532 373.762C222.532 374.13 222.899 374.497 223.266 374.497H224.735C225.102 374.497 225.469 374.13 225.469 373.762C225.469 373.395 225.102 373.028 224.735 373.028Z" fill="#F15744"/>
<path d="M225.469 355.405V360.838C228.406 363.188 231.343 355.772 234.28 358.121C231.343 353.936 228.406 359.517 225.469 355.405Z" fill="#B4D7EE"/>
<path d="M225.395 383.528C225.028 383.235 224.367 383.235 224 383.528C222.458 384.63 217.391 387.714 217.391 387.714V389.182H232.077V387.714C232.077 387.714 227.01 384.63 225.395 383.528Z" fill="#F15744"/>
<path d="M247.498 397.994H201.972C201.531 397.994 201.237 398.361 201.237 398.728V400.197C201.237 400.564 201.531 400.931 201.972 400.931H247.498C247.865 400.931 248.232 400.564 248.232 400.197V398.728C248.232 398.361 247.865 397.994 247.498 397.994Z" fill="#666666"/>
<path d="M215.923 399.463H233.547V400.931H215.923V399.463Z" fill="#E8E8E8"/>
<path d="M217.391 397.994H232.077V399.462H217.391V397.994Z" fill="#D0D0D0"/>
<path d="M222.605 393.221H223.633V393.735H222.605V393.221ZM225.836 393.221H226.864V393.735H225.836V393.221Z" fill="#666666"/>
<rect x="5.06651" y="5.65953" width="272.973" height="425.148" rx="18.8258" stroke="#F15744" stroke-width="9.41288"/>
</g>
<defs>
<filter id="filter0_d_35_256" x="0.359863" y="0.953125" width="282.386" height="440.836" filterUnits="userSpaceOnUse" color-interpolation-filters="sRGB">
<feFlood flood-opacity="0" result="BackgroundImageFix"/>
<feColorMatrix in="SourceAlpha" type="matrix" values="0 0 0 0 0 0 0 0 0 0 0 0 0 0 0 0 0 0 127 0" result="hardAlpha"/>
<feOffset dy="6.27525"/>
<feComposite in2="hardAlpha" operator="out"/>
<feColorMatrix type="matrix" values="0 0 0 0 0 0 0 0 0 0 0 0 0 0 0 0 0 0 0.15 0"/>
<feBlend mode="normal" in2="BackgroundImageFix" result="effect1_dropShadow_35_256"/>
<feBlend mode="normal" in="SourceGraphic" in2="effect1_dropShadow_35_256" result="shape"/>
</filter>
</defs>
</svg>
