<svg width="283" height="442" viewBox="0 0 283 442" fill="none" xmlns="http://www.w3.org/2000/svg">
<g filter="url(#filter0_d_35_442)">
<rect x="9.77295" y="9.79907" width="263.56" height="415.735" rx="14.1193" fill="white"/>
<path d="M204.455 242.621H77.7098C76.6877 242.621 75.6655 243.643 75.6655 244.665C75.6655 245.687 76.6877 246.709 77.7098 246.709H204.455C205.681 246.709 206.499 245.687 206.499 244.665C206.499 243.643 205.681 242.621 204.455 242.621Z" fill="#62727A"/>
<path d="M198.323 242.62H83.8433V205.823L141.083 181.292L198.323 205.823V242.62Z" fill="#D0D0D0"/>
<path d="M119.413 185.585L78.1189 202.553C76.0746 203.37 75.2569 205.619 76.0746 207.663C76.8923 209.707 79.141 210.525 81.1853 209.707L122.48 192.74C124.524 191.922 125.342 189.674 124.524 187.629C123.706 185.789 121.253 184.767 119.413 185.585ZM162.752 185.585L204.046 202.553C206.09 203.37 206.908 205.619 206.09 207.663C205.273 209.707 203.024 210.525 200.98 209.707L159.685 192.74C157.641 191.922 156.823 189.674 157.641 187.629C158.459 185.789 160.912 184.767 162.752 185.585Z" fill="#89664C"/>
<path d="M165.614 242.621H116.552V169.027L141.083 158.805L165.614 169.027V242.621Z" fill="#E8E8E8"/>
<path d="M154.78 126.097H144.558V115.875H137.608V126.097H127.386V132.843H137.608V156.761H144.558V132.843H154.78V126.097Z" fill="#FFCE31"/>
<path d="M116.552 244.665H165.614V246.709H116.552V244.665Z" fill="#E8E8E8"/>
<path d="M116.552 242.621H165.614V244.665H116.552V242.621Z" fill="#D0D0D0"/>
<path d="M173.382 167.8L141.082 154.716L108.783 167.8C106.739 168.617 105.921 170.866 106.739 172.706C107.556 174.546 109.805 175.568 111.849 174.75L141.082 162.893L170.52 174.75C172.564 175.568 174.813 174.546 175.631 172.706C176.448 170.866 175.426 168.617 173.382 167.8Z" fill="#89664C"/>
<path d="M138.425 176.795C138.221 175.568 137.199 174.955 135.972 175.159C135.972 175.159 135.768 175.159 134.541 175.773C133.315 176.181 133.11 176.386 133.11 176.386C132.088 176.999 131.884 178.226 132.497 179.248L138.834 187.834C139.447 188.856 140.061 188.652 139.856 187.425L138.425 176.795Z" fill="#42ADE2"/>
<path d="M128.817 183.132C127.795 182.519 126.569 182.723 126.16 183.745L124.933 186.607C124.524 187.629 125.342 188.856 126.364 189.06L136.994 190.696C138.221 190.9 138.425 190.491 137.403 189.674L128.817 183.132Z" fill="#C28FEF"/>
<path d="M126.364 194.171C125.138 194.375 124.524 195.397 124.729 196.624C124.729 196.624 124.729 196.828 125.342 198.055C125.751 199.281 125.955 199.486 125.955 199.486C126.569 200.508 127.795 200.712 128.817 200.099L137.403 193.762C138.425 193.149 138.221 192.535 136.994 192.74L126.364 194.171Z" fill="#ED4C5C"/>
<path d="M132.701 203.779C132.088 204.801 132.292 206.028 133.314 206.437L136.176 207.663C137.403 208.072 138.425 207.254 138.629 206.232L140.265 195.602C140.469 194.376 140.06 194.171 139.243 195.193L132.701 203.779Z" fill="#FF8736"/>
<path d="M143.74 206.232C143.945 207.459 144.967 208.072 146.194 207.868C146.194 207.868 146.398 207.868 147.625 207.254C148.851 206.846 149.056 206.641 149.056 206.641C150.078 206.028 150.282 204.801 149.669 203.779L143.127 195.193C142.514 194.171 141.901 194.376 142.105 195.602L143.74 206.232Z" fill="#42ADE2"/>
<path d="M153.348 199.895C154.37 200.509 155.597 200.304 156.006 199.282L157.232 196.42C157.641 195.193 156.824 194.171 155.801 193.967L145.171 192.74C143.945 192.536 143.74 192.945 144.762 193.762L153.348 199.895Z" fill="#C28FEF"/>
<path d="M155.801 188.856C157.028 188.651 157.641 187.629 157.437 186.403C157.437 186.403 157.437 186.198 156.824 184.972C156.415 183.745 156.21 183.541 156.21 183.541C155.597 182.519 154.37 182.314 153.348 182.927L144.762 189.469C143.74 190.082 143.945 190.696 145.171 190.491L155.801 188.856Z" fill="#ED4C5C"/>
<path d="M149.464 179.248C150.077 178.226 149.873 176.999 148.851 176.59L145.989 175.364C144.966 174.955 143.74 175.773 143.536 176.795L142.309 187.425C142.105 188.652 142.513 188.856 143.331 187.834L149.464 179.248Z" fill="#FF8736"/>
<path d="M141.083 211.956C134.336 211.956 128.817 217.476 128.817 224.222V242.62H153.348V224.222C153.348 217.476 147.829 211.956 141.083 211.956Z" fill="#D3976E"/>
<path d="M132.905 230.355H149.259V224.222C149.259 219.725 145.58 216.045 141.082 216.045C136.585 216.045 132.905 219.725 132.905 224.222V230.355Z" fill="#D6EEF0"/>
<path d="M98.5619 217.067C98.3574 216.249 97.7442 215.841 97.1309 216.045C97.1309 216.045 96.9265 216.045 96.3132 216.454C95.4955 216.658 95.4955 216.863 95.4955 216.863C94.8822 217.272 94.6778 218.089 95.0866 218.703L98.9707 224.018C99.3796 224.631 99.584 224.427 99.584 223.813L98.5619 217.067ZM92.4291 220.951C91.8158 220.542 90.9981 220.747 90.7936 221.36L89.9759 223.2C89.7715 223.813 90.1804 224.631 90.9981 224.631L97.5397 225.653C98.3574 225.858 98.3574 225.449 97.7442 225.04L92.4291 220.951ZM90.9981 227.902C90.1804 228.106 89.7715 228.72 89.9759 229.333C89.9759 229.333 89.9759 229.537 90.3848 230.151C90.5892 230.968 90.7936 230.968 90.7936 230.968C91.2025 231.581 92.0202 231.786 92.6335 231.377L97.9486 227.493C98.5619 227.084 98.3574 226.88 97.7442 226.88L90.9981 227.902ZM94.8822 234.035C94.4733 234.648 94.6778 235.466 95.291 235.67L97.1309 236.488C97.7442 236.692 98.5619 236.283 98.5619 235.466L99.584 228.924C99.7884 228.106 99.3796 228.106 98.9707 228.72L94.8822 234.035ZM101.833 235.466C102.037 236.283 102.65 236.692 103.264 236.488C103.264 236.488 103.468 236.488 104.081 236.079C104.899 235.874 104.899 235.67 104.899 235.67C105.512 235.261 105.717 234.443 105.308 233.83L101.424 228.515C101.015 227.902 100.811 228.106 100.811 228.72L101.833 235.466ZM107.966 231.581C108.579 231.99 109.397 231.786 109.601 231.173L110.419 229.333C110.623 228.72 110.214 227.902 109.397 227.902L102.855 226.88C102.037 226.675 102.037 227.084 102.65 227.493L107.966 231.581ZM109.397 224.631C110.214 224.427 110.623 223.813 110.419 223.2C110.419 223.2 110.419 222.996 110.01 222.382C109.805 221.565 109.601 221.565 109.601 221.565C109.192 220.951 108.374 220.747 107.761 221.156L102.446 225.04C101.833 225.449 102.037 225.653 102.65 225.653L109.397 224.631ZM105.512 218.498C105.921 217.885 105.717 217.067 105.104 216.863L103.264 216.045C102.65 215.841 101.833 216.249 101.833 217.067L100.811 223.609C100.606 224.427 101.015 224.427 101.424 223.813L105.512 218.498ZM180.333 217.067C180.128 216.249 179.515 215.841 178.902 216.045C178.902 216.045 178.697 216.045 178.084 216.454C177.266 216.658 177.266 216.863 177.266 216.863C176.653 217.272 176.449 218.089 176.858 218.703L180.742 224.018C181.151 224.631 181.355 224.427 181.355 223.813L180.333 217.067ZM174.2 220.951C173.587 220.542 172.769 220.747 172.565 221.36L171.747 223.2C171.542 223.813 171.951 224.631 172.769 224.631L179.311 225.653C180.128 225.858 180.128 225.449 179.515 225.04L174.2 220.951ZM172.769 227.902C171.951 228.106 171.542 228.72 171.747 229.333C171.747 229.333 171.747 229.537 172.156 230.151C172.36 230.968 172.565 230.968 172.565 230.968C172.973 231.581 173.791 231.786 174.404 231.377L179.72 227.493C180.333 227.084 180.128 226.88 179.515 226.88L172.769 227.902ZM176.653 234.035C176.244 234.648 176.449 235.466 177.062 235.67L178.902 236.488C179.515 236.692 180.333 236.283 180.333 235.466L181.355 228.924C181.559 228.106 181.151 228.106 180.742 228.72L176.653 234.035ZM183.604 235.466C183.808 236.283 184.421 236.692 185.035 236.488C185.035 236.488 185.239 236.488 185.852 236.079C186.67 235.874 186.67 235.67 186.67 235.67C187.283 235.261 187.488 234.443 187.079 233.83L183.195 228.515C182.786 227.902 182.582 228.106 182.582 228.72L183.604 235.466ZM189.736 231.581C190.35 231.99 191.167 231.786 191.372 231.173L192.19 229.333C192.394 228.72 191.985 227.902 191.167 227.902L184.626 226.88C183.808 226.675 183.808 227.084 184.421 227.493L189.736 231.581ZM191.167 224.631C191.985 224.427 192.394 223.813 192.19 223.2C192.19 223.2 192.19 222.996 191.781 222.382C191.576 221.565 191.372 221.565 191.372 221.565C190.963 220.951 190.145 220.747 189.532 221.156L184.217 225.04C183.604 225.449 183.808 225.653 184.421 225.653L191.167 224.631ZM187.283 218.498C187.692 217.885 187.488 217.067 186.875 216.863L185.035 216.045C184.421 215.841 183.604 216.249 183.604 217.067L182.582 223.609C182.377 224.427 182.786 224.427 183.195 223.813L187.283 218.498Z" fill="#62727A"/>
<path d="M139.038 214H143.127V242.62H139.038V214Z" fill="#D3976E"/>
<path d="M128.817 228.311H153.348V242.621H128.817V228.311Z" fill="#D3976E"/>
<path d="M132.905 233.012H139.038V239.145H132.905V233.012ZM143.127 233.012H149.259V239.145H143.127V233.012Z" fill="#89664C"/>
<path d="M90.3574 298.51C90.3574 294.652 90.3959 290.794 90.5117 286.935C91.7078 286.897 92.5952 286.858 93.8684 286.858C95.1803 286.858 96.5307 286.897 97.8425 286.935C98.0354 286.935 98.2284 287.128 98.2284 287.321C98.3055 290.948 98.3827 294.652 98.3827 298.51C98.3827 302.369 98.3055 306.227 98.2284 310.085C96.9937 310.162 96.1063 310.201 94.833 310.201C93.5212 310.201 92.1708 310.162 90.8975 310.085C90.666 310.085 90.5117 309.931 90.5117 309.699C90.4345 306.073 90.3574 302.369 90.3574 298.51ZM100.4 298.51C100.4 289.443 104.489 286.665 111.01 286.665C113.171 286.665 115.447 286.935 117.916 287.321L117.106 293.417H110.238C109.197 293.417 108.425 293.919 108.425 298.51C108.425 303.102 109.351 303.603 110.431 303.603H111.203C111.203 302.06 111.087 299.745 111.049 297.739C112.09 297.7 113.093 297.7 114.097 297.7C115.138 297.7 116.219 297.7 117.453 297.739C117.646 297.777 117.801 297.931 117.839 298.124C117.916 299.938 117.994 301.635 117.994 303.526C117.994 305.339 117.916 307.925 117.839 309.429C115.177 309.931 113.711 310.162 110.933 310.162C104.451 310.162 100.4 308.156 100.4 298.51ZM120.615 298.009C120.615 294.15 120.693 291.179 120.693 287.321C123.239 286.935 126.442 286.665 128.602 286.665C134.351 286.665 138.287 287.128 138.287 293.379C138.287 296.234 136.705 298.394 134.158 299.591C135.046 299.899 135.779 300.517 136.319 301.404C137.824 304.413 138.711 307.191 139.367 310.085C138.094 310.24 136.705 310.317 135.354 310.317C134.313 310.317 133.271 310.278 132.229 310.201C132.036 310.201 131.727 310.047 131.65 309.815C130.57 306.536 129.49 303.256 128.718 300.594C128.564 300.594 128.371 300.594 128.216 300.594C128.255 303.758 128.371 307.076 128.409 310.085C127.252 310.162 126.133 310.162 125.014 310.162C123.702 310.162 122.39 310.162 121.078 310.085C120.847 310.085 120.693 309.931 120.693 309.699C120.693 306.073 120.615 301.867 120.615 298.009ZM128.216 295.848H128.872C130.068 295.848 130.917 295.192 130.917 294.189C130.917 292.993 130.531 292.337 129.142 292.337C128.834 292.337 128.486 292.337 128.216 292.375C128.216 293.494 128.216 294.613 128.216 295.848ZM140.847 298.51C140.847 294.652 140.886 290.794 141.002 286.935C142.198 286.897 147.715 286.858 148.988 286.858C150.3 286.858 154.429 286.897 155.74 286.935C155.933 286.935 156.088 287.128 156.126 287.321C156.126 288.517 156.126 289.597 156.126 290.678C156.126 291.604 156.126 292.53 156.126 293.494C154.892 293.572 151.265 293.572 149.992 293.572C149.683 293.572 149.143 293.572 148.487 293.572C148.487 294.227 148.487 294.922 148.487 295.616C150.03 295.616 152.114 295.655 153.117 295.655C153.31 295.655 153.464 295.848 153.503 296.041C153.503 297.121 153.503 298.047 153.503 298.973C153.503 299.783 153.503 300.594 153.503 301.52H148.487C148.487 302.214 148.487 302.87 148.487 303.526H148.988C150.3 303.526 154.506 303.565 155.818 303.603C156.011 303.603 156.165 303.796 156.203 303.989C156.203 305.185 156.203 306.265 156.203 307.346C156.203 308.272 156.203 309.198 156.203 310.162C154.969 310.24 150.84 310.278 149.567 310.278C148.255 310.278 142.661 310.162 141.387 310.085C141.156 310.085 141.002 309.931 141.002 309.699C140.924 306.073 140.847 302.369 140.847 298.51ZM157.828 310.24L158.098 303.912L161.918 304.259C163.5 304.375 164.541 303.989 164.541 300.169C164.541 298.24 164.541 295.925 164.58 293.572C162.574 293.533 159.68 293.456 158.715 293.417C158.484 293.417 158.329 293.263 158.329 293.031C158.291 291.951 158.291 290.909 158.291 289.868C158.291 288.942 158.291 287.977 158.329 286.935C159.526 286.897 165.506 286.858 166.779 286.858C168.091 286.858 170.715 286.897 172.027 286.935C172.219 286.935 172.412 287.128 172.412 287.321C172.49 290.948 172.567 296.118 172.567 299.976C172.567 308.851 168.438 310.741 161.956 310.741C160.336 310.741 159.371 310.548 157.828 310.24ZM173.67 309.777C173.67 309.699 173.786 308.966 173.863 308.58C175.02 301.52 176.641 294.073 178.068 286.935C179.805 286.858 181.579 286.858 183.393 286.858C185.245 286.858 187.058 286.897 188.91 286.935C189.103 286.935 189.296 287.128 189.335 287.321C190.801 294.729 192.614 302.6 193.733 310.085C192.537 310.162 191.688 310.201 190.376 310.201C189.065 310.201 187.946 310.201 186.595 310.085C186.402 310.085 186.209 309.931 186.171 309.699C185.901 308.465 185.669 307.153 185.476 305.841H181.888C181.657 307.269 181.425 308.696 181.155 310.085C179.92 310.162 179.226 310.201 177.953 310.201C176.641 310.201 175.29 310.162 174.017 310.085C173.824 310.085 173.67 309.969 173.67 309.777ZM182.544 300.825H184.705C184.28 297.97 183.894 295.076 183.509 292.183C183.161 295.038 182.853 297.931 182.544 300.825Z" fill="black" fill-opacity="0.7"/>
<path d="M99.1948 28.6248H254.507V307.873" stroke="#F15744" stroke-width="4.70644" stroke-linecap="round" stroke-linejoin="round"/>
<path d="M187.048 406.709H28.5983V124.323" stroke="#F15744" stroke-width="4.70644" stroke-linecap="round" stroke-linejoin="round"/>
<path d="M81.203 80.4934H35.6094C35.2417 80.4934 34.874 80.8611 34.874 81.2288C34.874 81.5965 35.2417 81.9642 35.6094 81.9642H81.203C81.6442 81.9642 81.9384 81.5965 81.9384 81.2288C81.9384 80.8611 81.6442 80.4934 81.203 80.4934Z" fill="#62727A"/>
<path d="M78.9963 80.494H37.8149V67.2572L58.4056 58.4326L78.9963 67.2572V80.494Z" fill="#D0D0D0"/>
<path d="M50.611 59.9765L35.7563 66.0802C35.0209 66.3744 34.7268 67.1833 35.0209 67.9187C35.3151 68.654 36.124 68.9482 36.8594 68.654L51.7141 62.5504C52.4494 62.2562 52.7436 61.4473 52.4494 60.7119C52.1553 60.0501 51.2728 59.6824 50.611 59.9765ZM66.2011 59.9765L81.0558 66.0802C81.7911 66.3744 82.0853 67.1833 81.7911 67.9187C81.497 68.654 80.6881 68.9482 79.9527 68.654L65.098 62.5504C64.3626 62.2562 64.0685 61.4473 64.3626 60.7119C64.6568 60.0501 65.5392 59.6824 66.2011 59.9765Z" fill="#89664C"/>
<path d="M67.2307 80.4941H49.5815V54.0204L58.4061 50.3435L67.2307 54.0204V80.4941Z" fill="#E8E8E8"/>
<path d="M63.3326 38.5771H59.6557V34.9001H57.1554V38.5771H53.4785V41.0038H57.1554V49.6078H59.6557V41.0038H63.3326V38.5771Z" fill="#FFCE31"/>
<path d="M49.5815 81.229H67.2307V81.9644H49.5815V81.229Z" fill="#E8E8E8"/>
<path d="M49.5815 80.4934H67.2307V81.2288H49.5815V80.4934Z" fill="#D0D0D0"/>
<path d="M70.0246 53.5785L58.4056 48.8721L46.7866 53.5785C46.0512 53.8727 45.757 54.6816 46.0512 55.3434C46.3453 56.0053 47.1543 56.373 47.8896 56.0788L58.4056 51.8136L68.9951 56.0788C69.7305 56.373 70.5394 56.0053 70.8335 55.3434C71.1277 54.6816 70.76 53.8727 70.0246 53.5785Z" fill="#89664C"/>
<path d="M57.4496 56.8146C57.376 56.3734 57.0083 56.1528 56.5671 56.2263C56.5671 56.2263 56.4936 56.2263 56.0523 56.447C55.6111 56.594 55.5376 56.6676 55.5376 56.6676C55.1699 56.8882 55.0964 57.3294 55.317 57.6971L57.5966 60.7857C57.8173 61.1534 58.0379 61.0799 57.9643 60.6386L57.4496 56.8146Z" fill="#42ADE2"/>
<path d="M53.994 59.0941C53.6263 58.8735 53.1851 58.947 53.038 59.3147L52.5968 60.3442C52.4497 60.7119 52.7439 61.1531 53.1115 61.2267L56.9355 61.815C57.3768 61.8885 57.4503 61.7414 57.0826 61.4473L53.994 59.0941Z" fill="#C28FEF"/>
<path d="M53.111 63.0653C52.6698 63.1389 52.4492 63.5066 52.5227 63.9478C52.5227 63.9478 52.5227 64.0213 52.7433 64.4625C52.8904 64.9038 52.964 64.9773 52.964 64.9773C53.1846 65.345 53.6258 65.4185 53.9935 65.1979L57.0821 62.9182C57.4498 62.6976 57.3762 62.477 56.935 62.5506L53.111 63.0653Z" fill="#ED4C5C"/>
<path d="M55.3907 66.5218C55.1701 66.8895 55.2436 67.3307 55.6113 67.4778L56.6408 67.919C57.0821 68.0661 57.4498 67.7719 57.5233 67.4042L58.1116 63.5803C58.1851 63.139 58.0381 63.0655 57.7439 63.4332L55.3907 66.5218Z" fill="#FF8736"/>
<path d="M59.362 67.4042C59.4355 67.8455 59.8032 68.0661 60.2445 67.9925C60.2445 67.9925 60.318 67.9925 60.7592 67.7719C61.2005 67.6249 61.274 67.5513 61.274 67.5513C61.6417 67.3307 61.7152 66.8895 61.4946 66.5218L59.1414 63.4332C58.9208 63.0655 58.7002 63.139 58.7737 63.5803L59.362 67.4042Z" fill="#42ADE2"/>
<path d="M62.8182 65.1243C63.1859 65.3449 63.6271 65.2714 63.7742 64.9037L64.2154 63.8742C64.3625 63.4329 64.0683 63.0652 63.7006 62.9917L59.8766 62.5505C59.4354 62.4769 59.3619 62.624 59.7296 62.9182L62.8182 65.1243Z" fill="#C28FEF"/>
<path d="M63.7006 61.1532C64.1419 61.0796 64.3625 60.712 64.2889 60.2707C64.2889 60.2707 64.2889 60.1972 64.0683 59.756C63.9212 59.3147 63.8477 59.2412 63.8477 59.2412C63.6271 58.8735 63.1859 58.8 62.8182 59.0206L59.7296 61.3738C59.3619 61.5944 59.4354 61.815 59.8766 61.7415L63.7006 61.1532Z" fill="#ED4C5C"/>
<path d="M61.4212 57.6971C61.6418 57.3294 61.5683 56.8882 61.2006 56.7411L60.171 56.2999C59.8034 56.1528 59.3621 56.447 59.2886 56.8147L58.8474 60.6387C58.7738 61.0799 58.9209 61.1534 59.215 60.7857L61.4212 57.6971Z" fill="#FF8736"/>
<path d="M58.4054 69.4631C55.9787 69.4631 53.9932 71.4487 53.9932 73.8754V80.4938H62.8177V73.8754C62.8177 71.4487 60.8322 69.4631 58.4054 69.4631Z" fill="#D3976E"/>
<path d="M55.4644 76.0813H61.3474V73.8751C61.3474 72.2573 60.0237 70.9336 58.4059 70.9336C56.788 70.9336 55.4644 72.2573 55.4644 73.8751V76.0813Z" fill="#D6EEF0"/>
<path d="M43.1098 71.3017C43.0362 71.0076 42.8156 70.8605 42.595 70.934C42.595 70.934 42.5215 70.934 42.3009 71.0811C42.0067 71.1546 42.0067 71.2282 42.0067 71.2282C41.7861 71.3753 41.7126 71.6694 41.8596 71.89L43.2569 73.802C43.4039 74.0226 43.4775 73.9491 43.4775 73.7285L43.1098 71.3017ZM40.9036 72.6989C40.683 72.5519 40.3889 72.6254 40.3153 72.846L40.0212 73.5079C39.9476 73.7285 40.0947 74.0226 40.3889 74.0226L42.7421 74.3903C43.0362 74.4639 43.0362 74.3168 42.8156 74.1697L40.9036 72.6989ZM40.3889 75.1992C40.0947 75.2728 39.9476 75.4934 40.0212 75.714C40.0212 75.714 40.0212 75.7875 40.1683 76.0082C40.2418 76.3023 40.3153 76.3023 40.3153 76.3023C40.4624 76.5229 40.7566 76.5965 40.9772 76.4494L42.8892 75.0522C43.1098 74.9051 43.0362 74.8315 42.8156 74.8315L40.3889 75.1992ZM41.7861 77.4054C41.639 77.626 41.7126 77.9201 41.9332 77.9937L42.595 78.2878C42.8156 78.3614 43.1098 78.2143 43.1098 77.9201L43.4775 75.5669C43.551 75.2728 43.4039 75.2728 43.2569 75.4934L41.7861 77.4054ZM44.2864 77.9201C44.3599 78.2143 44.5805 78.3614 44.8012 78.2878C44.8012 78.2878 44.8747 78.2878 45.0953 78.1408C45.3895 78.0672 45.3895 77.9937 45.3895 77.9937C45.6101 77.8466 45.6836 77.5525 45.5365 77.3318L44.1393 75.4198C43.9922 75.1992 43.9187 75.2728 43.9187 75.4934L44.2864 77.9201ZM46.4925 76.5229C46.7131 76.67 47.0073 76.5965 47.0808 76.3758L47.375 75.714C47.4485 75.4934 47.3015 75.1992 47.0073 75.1992L44.6541 74.8315C44.3599 74.758 44.3599 74.9051 44.5805 75.0522L46.4925 76.5229ZM47.0073 74.0226C47.3015 73.9491 47.4485 73.7285 47.375 73.5079C47.375 73.5079 47.375 73.4343 47.2279 73.2137C47.1544 72.9196 47.0808 72.9196 47.0808 72.9196C46.9338 72.6989 46.6396 72.6254 46.419 72.7725L44.507 74.1697C44.2864 74.3168 44.3599 74.3903 44.5805 74.3903L47.0073 74.0226ZM45.6101 71.8165C45.7572 71.5959 45.6836 71.3017 45.463 71.2282L44.8012 70.934C44.5805 70.8605 44.2864 71.0076 44.2864 71.3017L43.9187 73.6549C43.8452 73.9491 43.9922 73.9491 44.1393 73.7285L45.6101 71.8165ZM72.525 71.3017C72.4515 71.0076 72.2309 70.8605 72.0102 70.934C72.0102 70.934 71.9367 70.934 71.7161 71.0811C71.4219 71.1546 71.4219 71.2282 71.4219 71.2282C71.2013 71.3753 71.1278 71.6694 71.2749 71.89L72.6721 73.802C72.8192 74.0226 72.8927 73.9491 72.8927 73.7285L72.525 71.3017ZM70.3189 72.6989C70.0983 72.5519 69.8041 72.6254 69.7306 72.846L69.4364 73.5079C69.3629 73.7285 69.51 74.0226 69.8041 74.0226L72.1573 74.3903C72.4515 74.4639 72.4515 74.3168 72.2309 74.1697L70.3189 72.6989ZM69.8041 75.1992C69.51 75.2728 69.3629 75.4934 69.4364 75.714C69.4364 75.714 69.4364 75.7875 69.5835 76.0082C69.657 76.3023 69.7306 76.3023 69.7306 76.3023C69.8776 76.5229 70.1718 76.5965 70.3924 76.4494L72.3044 75.0522C72.525 74.9051 72.4515 74.8315 72.2309 74.8315L69.8041 75.1992ZM71.2013 77.4054C71.0543 77.626 71.1278 77.9201 71.3484 77.9937L72.0102 78.2878C72.2309 78.3614 72.525 78.2143 72.525 77.9201L72.8927 75.5669C72.9662 75.2728 72.8192 75.2728 72.6721 75.4934L71.2013 77.4054ZM73.7016 77.9201C73.7752 78.2143 73.9958 78.3614 74.2164 78.2878C74.2164 78.2878 74.2899 78.2878 74.5105 78.1408C74.8047 78.0672 74.8047 77.9937 74.8047 77.9937C75.0253 77.8466 75.0988 77.5525 74.9518 77.3318L73.5545 75.4198C73.4075 75.1992 73.3339 75.2728 73.3339 75.4934L73.7016 77.9201ZM75.9078 76.5229C76.1284 76.67 76.4225 76.5965 76.4961 76.3758L76.7902 75.714C76.8638 75.4934 76.7167 75.1992 76.4225 75.1992L74.0693 74.8315C73.7752 74.758 73.7752 74.9051 73.9958 75.0522L75.9078 76.5229ZM76.4225 74.0226C76.7167 73.9491 76.8638 73.7285 76.7902 73.5079C76.7902 73.5079 76.7902 73.4343 76.6431 73.2137C76.5696 72.9196 76.4961 72.9196 76.4961 72.9196C76.349 72.6989 76.0548 72.6254 75.8342 72.7725L73.9222 74.1697C73.7016 74.3168 73.7752 74.3903 73.9958 74.3903L76.4225 74.0226ZM75.0253 71.8165C75.1724 71.5959 75.0988 71.3017 74.8782 71.2282L74.2164 70.934C73.9958 70.8605 73.7016 71.0076 73.7016 71.3017L73.3339 73.6549C73.2604 73.9491 73.4075 73.9491 73.5545 73.7285L75.0253 71.8165Z" fill="#62727A"/>
<path d="M57.6699 70.1985H59.1407V80.4938H57.6699V70.1985Z" fill="#D3976E"/>
<path d="M53.9932 75.3457H62.8177V80.4934H53.9932V75.3457Z" fill="#D3976E"/>
<path d="M55.4644 77.0376H57.6705V79.2437H55.4644V77.0376ZM59.1413 77.0376H61.3474V79.2437H59.1413V77.0376Z" fill="#89664C"/>
<path d="M247.497 398.963H201.903C201.536 398.963 201.168 399.331 201.168 399.698C201.168 400.066 201.536 400.434 201.903 400.434H247.497C247.938 400.434 248.232 400.066 248.232 399.698C248.232 399.331 247.938 398.963 247.497 398.963Z" fill="#62727A"/>
<path d="M245.29 398.963H204.109V385.726L224.7 376.901L245.29 385.726V398.963Z" fill="#D0D0D0"/>
<path d="M216.905 378.446L202.05 384.549C201.315 384.843 201.021 385.652 201.315 386.388C201.609 387.123 202.418 387.417 203.153 387.123L218.008 381.019C218.743 380.725 219.038 379.916 218.743 379.181C218.449 378.519 217.567 378.151 216.905 378.446ZM232.495 378.446L247.35 384.549C248.085 384.843 248.379 385.652 248.085 386.388C247.791 387.123 246.982 387.417 246.247 387.123L231.392 381.019C230.657 380.725 230.362 379.916 230.657 379.181C230.951 378.519 231.833 378.151 232.495 378.446Z" fill="#89664C"/>
<path d="M233.524 398.963H215.875V372.489L224.7 368.812L233.524 372.489V398.963Z" fill="#E8E8E8"/>
<path d="M229.627 357.046H225.95V353.369H223.45V357.046H219.773V359.473H223.45V368.077H225.95V359.473H229.627V357.046Z" fill="#FFCE31"/>
<path d="M215.875 399.698H233.524V400.434H215.875V399.698Z" fill="#E8E8E8"/>
<path d="M215.875 398.963H233.524V399.698H215.875V398.963Z" fill="#D0D0D0"/>
<path d="M236.319 372.048L224.7 367.341L213.081 372.048C212.346 372.342 212.051 373.151 212.346 373.813C212.64 374.475 213.449 374.842 214.184 374.548L224.7 370.283L235.29 374.548C236.025 374.842 236.834 374.475 237.128 373.813C237.422 373.151 237.054 372.342 236.319 372.048Z" fill="#89664C"/>
<path d="M223.744 375.284C223.67 374.842 223.303 374.622 222.862 374.695C222.862 374.695 222.788 374.695 222.347 374.916C221.906 375.063 221.832 375.137 221.832 375.137C221.464 375.357 221.391 375.798 221.611 376.166L223.891 379.255C224.112 379.622 224.332 379.549 224.259 379.108L223.744 375.284Z" fill="#42ADE2"/>
<path d="M220.287 377.563C219.92 377.342 219.479 377.416 219.331 377.784L218.89 378.813C218.743 379.181 219.037 379.622 219.405 379.696L223.229 380.284C223.67 380.358 223.744 380.21 223.376 379.916L220.287 377.563Z" fill="#C28FEF"/>
<path d="M219.405 381.534C218.964 381.608 218.743 381.976 218.817 382.417C218.817 382.417 218.817 382.49 219.037 382.932C219.184 383.373 219.258 383.446 219.258 383.446C219.479 383.814 219.92 383.888 220.287 383.667L223.376 381.387C223.744 381.167 223.67 380.946 223.229 381.02L219.405 381.534Z" fill="#ED4C5C"/>
<path d="M221.685 384.991C221.464 385.358 221.538 385.799 221.905 385.947L222.935 386.388C223.376 386.535 223.744 386.241 223.817 385.873L224.406 382.049C224.479 381.608 224.332 381.534 224.038 381.902L221.685 384.991Z" fill="#FF8736"/>
<path d="M225.656 385.873C225.729 386.314 226.097 386.535 226.538 386.461C226.538 386.461 226.612 386.461 227.053 386.241C227.494 386.094 227.568 386.02 227.568 386.02C227.936 385.799 228.009 385.358 227.789 384.991L225.435 381.902C225.215 381.534 224.994 381.608 225.068 382.049L225.656 385.873Z" fill="#42ADE2"/>
<path d="M229.112 383.593C229.48 383.814 229.921 383.74 230.068 383.373L230.509 382.343C230.656 381.902 230.362 381.534 229.995 381.461L226.171 381.019C225.729 380.946 225.656 381.093 226.024 381.387L229.112 383.593Z" fill="#C28FEF"/>
<path d="M229.995 379.622C230.436 379.549 230.656 379.181 230.583 378.74C230.583 378.74 230.583 378.666 230.362 378.225C230.215 377.784 230.142 377.71 230.142 377.71C229.921 377.343 229.48 377.269 229.112 377.49L226.024 379.843C225.656 380.064 225.729 380.284 226.171 380.211L229.995 379.622Z" fill="#ED4C5C"/>
<path d="M227.716 376.166C227.936 375.798 227.863 375.357 227.495 375.21L226.465 374.769C226.098 374.622 225.657 374.916 225.583 375.283L225.142 379.107C225.068 379.549 225.215 379.622 225.509 379.254L227.716 376.166Z" fill="#FF8736"/>
<path d="M224.7 387.932C222.273 387.932 220.288 389.918 220.288 392.344V398.963H229.112V392.344C229.112 389.918 227.127 387.932 224.7 387.932Z" fill="#D3976E"/>
<path d="M221.758 394.55H227.641V392.344C227.641 390.727 226.317 389.403 224.699 389.403C223.081 389.403 221.758 390.727 221.758 392.344V394.55Z" fill="#D6EEF0"/>
<path d="M209.404 389.77C209.331 389.476 209.11 389.329 208.889 389.403C208.889 389.403 208.816 389.403 208.595 389.55C208.301 389.623 208.301 389.697 208.301 389.697C208.081 389.844 208.007 390.138 208.154 390.359L209.551 392.271C209.698 392.491 209.772 392.418 209.772 392.197L209.404 389.77ZM207.198 391.168C206.977 391.021 206.683 391.094 206.61 391.315L206.316 391.977C206.242 392.197 206.389 392.491 206.683 392.491L209.037 392.859C209.331 392.933 209.331 392.786 209.11 392.638L207.198 391.168ZM206.683 393.668C206.389 393.742 206.242 393.962 206.316 394.183C206.316 394.183 206.316 394.256 206.463 394.477C206.536 394.771 206.61 394.771 206.61 394.771C206.757 394.992 207.051 395.065 207.272 394.918L209.184 393.521C209.404 393.374 209.331 393.3 209.11 393.3L206.683 393.668ZM208.081 395.874C207.933 396.095 208.007 396.389 208.228 396.462L208.889 396.757C209.11 396.83 209.404 396.683 209.404 396.389L209.772 394.036C209.845 393.742 209.698 393.742 209.551 393.962L208.081 395.874ZM210.581 396.389C210.654 396.683 210.875 396.83 211.096 396.757C211.096 396.757 211.169 396.757 211.39 396.61C211.684 396.536 211.684 396.462 211.684 396.462C211.905 396.315 211.978 396.021 211.831 395.801L210.434 393.889C210.287 393.668 210.213 393.742 210.213 393.962L210.581 396.389ZM212.787 394.992C213.008 395.139 213.302 395.065 213.375 394.845L213.669 394.183C213.743 393.962 213.596 393.668 213.302 393.668L210.949 393.3C210.654 393.227 210.654 393.374 210.875 393.521L212.787 394.992ZM213.302 392.491C213.596 392.418 213.743 392.197 213.669 391.977C213.669 391.977 213.669 391.903 213.522 391.682C213.449 391.388 213.375 391.388 213.375 391.388C213.228 391.168 212.934 391.094 212.713 391.241L210.801 392.638C210.581 392.786 210.654 392.859 210.875 392.859L213.302 392.491ZM211.905 390.285C212.052 390.065 211.978 389.77 211.757 389.697L211.096 389.403C210.875 389.329 210.581 389.476 210.581 389.77L210.213 392.124C210.14 392.418 210.287 392.418 210.434 392.197L211.905 390.285ZM238.819 389.77C238.746 389.476 238.525 389.329 238.305 389.403C238.305 389.403 238.231 389.403 238.011 389.55C237.716 389.623 237.716 389.697 237.716 389.697C237.496 389.844 237.422 390.138 237.569 390.359L238.967 392.271C239.114 392.491 239.187 392.418 239.187 392.197L238.819 389.77ZM236.613 391.168C236.393 391.021 236.099 391.094 236.025 391.315L235.731 391.977C235.657 392.197 235.804 392.491 236.099 392.491L238.452 392.859C238.746 392.933 238.746 392.786 238.525 392.638L236.613 391.168ZM236.099 393.668C235.804 393.742 235.657 393.962 235.731 394.183C235.731 394.183 235.731 394.256 235.878 394.477C235.951 394.771 236.025 394.771 236.025 394.771C236.172 394.992 236.466 395.065 236.687 394.918L238.599 393.521C238.819 393.374 238.746 393.3 238.525 393.3L236.099 393.668ZM237.496 395.874C237.349 396.095 237.422 396.389 237.643 396.462L238.305 396.757C238.525 396.83 238.819 396.683 238.819 396.389L239.187 394.036C239.261 393.742 239.114 393.742 238.967 393.962L237.496 395.874ZM239.996 396.389C240.07 396.683 240.29 396.83 240.511 396.757C240.511 396.757 240.584 396.757 240.805 396.61C241.099 396.536 241.099 396.462 241.099 396.462C241.32 396.315 241.393 396.021 241.246 395.801L239.849 393.889C239.702 393.668 239.628 393.742 239.628 393.962L239.996 396.389ZM242.202 394.992C242.423 395.139 242.717 395.065 242.791 394.845L243.085 394.183C243.158 393.962 243.011 393.668 242.717 393.668L240.364 393.3C240.07 393.227 240.07 393.374 240.29 393.521L242.202 394.992ZM242.717 392.491C243.011 392.418 243.158 392.197 243.085 391.977C243.085 391.977 243.085 391.903 242.938 391.682C242.864 391.388 242.791 391.388 242.791 391.388C242.643 391.168 242.349 391.094 242.129 391.241L240.217 392.638C239.996 392.786 240.07 392.859 240.29 392.859L242.717 392.491ZM241.32 390.285C241.467 390.065 241.393 389.77 241.173 389.697L240.511 389.403C240.29 389.329 239.996 389.476 239.996 389.77L239.628 392.124C239.555 392.418 239.702 392.418 239.849 392.197L241.32 390.285Z" fill="#62727A"/>
<path d="M223.965 388.667H225.436V398.963H223.965V388.667Z" fill="#D3976E"/>
<path d="M220.288 393.815H229.112V398.963H220.288V393.815Z" fill="#D3976E"/>
<path d="M221.758 395.507H223.964V397.713H221.758V395.507ZM225.435 395.507H227.641V397.713H225.435V395.507Z" fill="#89664C"/>
<rect x="5.06651" y="5.09263" width="272.973" height="425.148" rx="18.8258" stroke="#F15744" stroke-width="9.41288"/>
</g>
<defs>
<filter id="filter0_d_35_442" x="0.359863" y="0.38623" width="282.386" height="440.836" filterUnits="userSpaceOnUse" color-interpolation-filters="sRGB">
<feFlood flood-opacity="0" result="BackgroundImageFix"/>
<feColorMatrix in="SourceAlpha" type="matrix" values="0 0 0 0 0 0 0 0 0 0 0 0 0 0 0 0 0 0 127 0" result="hardAlpha"/>
<feOffset dy="6.27525"/>
<feComposite in2="hardAlpha" operator="out"/>
<feColorMatrix type="matrix" values="0 0 0 0 0 0 0 0 0 0 0 0 0 0 0 0 0 0 0.15 0"/>
<feBlend mode="normal" in2="BackgroundImageFix" result="effect1_dropShadow_35_442"/>
<feBlend mode="normal" in="SourceGraphic" in2="effect1_dropShadow_35_442" result="shape"/>
</filter>
</defs>
</svg>
