<svg width="283" height="442" viewBox="0 0 283 442" fill="none" xmlns="http://www.w3.org/2000/svg">
<g filter="url(#filter0_d_38_466)">
<rect x="10" y="10" width="263.56" height="415.735" rx="14.1193" fill="white"/>
<path d="M141.307 246.908C177.436 246.908 206.724 217.619 206.724 181.491C206.724 145.362 177.436 116.074 141.307 116.074C105.178 116.074 75.8901 145.362 75.8901 181.491C75.8901 217.619 105.178 246.908 141.307 246.908Z" fill="#EF5350"/>
<path d="M160.932 220.087C148.285 209.62 134.329 209.62 121.682 220.087C120.156 221.395 118.847 219.215 119.938 217.252C123.863 209.838 131.495 203.078 141.307 203.078C151.12 203.078 158.97 209.838 162.677 217.252C163.767 218.996 162.459 221.177 160.932 220.087Z" fill="#302424"/>
<path d="M93.7705 166.009C90.4997 176.257 95.0789 187.814 105.328 192.394C115.358 197.191 127.133 193.484 133.021 184.325L117.975 167.535L93.7705 166.009Z" fill="white"/>
<path d="M102.493 167.971C99.4404 174.295 102.275 181.927 108.599 184.762C114.922 187.814 122.554 184.98 125.389 178.656C127.57 174.513 104.456 163.828 102.493 167.971Z" fill="#302424"/>
<path d="M93.771 166.009C97.2599 163.828 101.403 162.738 105.546 162.738C109.689 162.738 113.832 163.828 117.757 165.573C121.464 167.317 124.953 169.934 127.788 172.987C130.404 176.258 132.585 179.964 133.021 184.108C130.186 181.273 127.352 178.874 124.299 176.694C121.246 174.513 118.193 172.769 115.14 171.46C111.87 169.934 108.599 168.844 105.11 167.753C101.185 167.099 97.696 166.445 93.771 166.009Z" fill="#302424"/>
<path d="M188.843 166.009C192.114 176.257 187.535 187.814 177.286 192.394C167.256 197.191 155.481 193.484 149.593 184.325L164.639 167.535L188.843 166.009Z" fill="white"/>
<path d="M180.121 167.972C183.174 174.295 180.339 181.927 174.016 184.762C167.692 187.815 160.06 184.98 157.225 178.656C155.045 174.513 178.159 163.828 180.121 167.972Z" fill="#302424"/>
<path d="M188.843 166.009C185.354 163.828 181.211 162.738 177.068 162.738C172.925 162.738 168.782 163.828 164.857 165.573C161.15 167.317 157.661 169.934 154.826 172.987C152.21 176.258 150.029 179.964 149.593 184.108C152.428 181.273 155.262 178.874 158.315 176.694C161.368 174.513 164.421 172.769 167.474 171.46C170.744 169.934 174.015 168.844 177.504 167.753C181.429 167.099 184.918 166.445 188.843 166.009Z" fill="#302424"/>
<path d="M97.6589 298.207C97.6589 294.349 97.7361 291.378 97.7361 287.52C100.283 287.134 103.485 286.864 105.646 286.864C111.395 286.864 115.33 287.327 115.33 293.577C115.33 296.432 113.748 298.593 111.202 299.789C112.089 300.098 112.822 300.715 113.362 301.602C114.867 304.612 115.754 307.39 116.41 310.284C115.137 310.438 113.748 310.515 112.398 310.515C111.356 310.515 110.314 310.477 109.272 310.399C109.08 310.399 108.771 310.245 108.694 310.014C107.613 306.734 106.533 303.454 105.761 300.792C105.607 300.792 105.414 300.792 105.26 300.792C105.298 303.956 105.414 307.274 105.453 310.284C104.295 310.361 103.176 310.361 102.057 310.361C100.746 310.361 99.4337 310.361 98.1219 310.284C97.8904 310.284 97.7361 310.129 97.7361 309.898C97.7361 306.271 97.6589 302.065 97.6589 298.207ZM105.26 296.046H105.916C107.112 296.046 107.961 295.391 107.961 294.387C107.961 293.191 107.575 292.535 106.186 292.535C105.877 292.535 105.53 292.535 105.26 292.574C105.26 293.693 105.26 294.812 105.26 296.046ZM116.463 309.975C116.463 309.898 116.579 309.165 116.656 308.779C117.814 301.718 119.434 294.272 120.862 287.134C122.598 287.057 124.373 287.057 126.186 287.057C128.038 287.057 129.852 287.095 131.704 287.134C131.896 287.134 132.089 287.327 132.128 287.52C133.594 294.928 135.408 302.799 136.526 310.284C135.33 310.361 134.482 310.399 133.17 310.399C131.858 310.399 130.739 310.399 129.389 310.284C129.196 310.284 129.003 310.129 128.964 309.898C128.694 308.663 128.463 307.351 128.27 306.04H124.681C124.45 307.467 124.218 308.895 123.948 310.284C122.714 310.361 122.019 310.399 120.746 310.399C119.434 310.399 118.084 310.361 116.81 310.284C116.617 310.284 116.463 310.168 116.463 309.975ZM125.337 301.024H127.498C127.074 298.169 126.688 295.275 126.302 292.381C125.955 295.236 125.646 298.13 125.337 301.024ZM137.936 298.709C137.936 294.85 137.975 290.992 138.09 287.134C139.286 287.095 140.174 287.057 141.447 287.057C142.759 287.057 144.109 287.095 145.421 287.134C145.614 287.134 145.807 287.327 145.807 287.52C145.884 291.146 145.961 294.85 145.961 298.709C145.961 302.567 145.884 306.425 145.807 310.284C144.572 310.361 143.685 310.399 142.412 310.399C141.1 310.399 139.749 310.361 138.476 310.284C138.245 310.284 138.09 310.129 138.09 309.898C138.013 306.271 137.936 302.567 137.936 298.709ZM147.168 287.134C148.403 287.095 149.406 287.057 150.679 287.057C151.991 287.057 153.148 287.057 154.46 287.134C154.692 287.172 154.885 287.327 154.923 287.52C155.888 292.381 156.544 297.243 157.238 302.143C157.894 297.165 158.55 292.15 159.553 287.134C160.788 287.095 161.444 287.057 162.563 287.057C163.875 287.057 165.341 287.095 166.653 287.134C166.845 287.134 167 287.288 167 287.481C167 287.635 166.845 288.291 166.807 288.677C165.649 295.738 164.067 303.184 162.408 310.284C160.788 310.361 159.206 310.399 157.508 310.399C155.695 310.399 153.959 310.361 152.184 310.284C151.991 310.284 151.798 310.129 151.721 309.898C150.062 302.528 148.325 294.657 147.168 287.134ZM166.275 309.975C166.275 309.898 166.391 309.165 166.468 308.779C167.625 301.718 169.246 294.272 170.673 287.134C172.41 287.057 174.184 287.057 175.998 287.057C177.85 287.057 179.663 287.095 181.515 287.134C181.708 287.134 181.901 287.327 181.94 287.52C183.406 294.928 185.219 302.799 186.338 310.284C185.142 310.361 184.293 310.399 182.981 310.399C181.67 310.399 180.551 310.399 179.2 310.284C179.007 310.284 178.814 310.129 178.776 309.898C178.506 308.663 178.274 307.351 178.081 306.04H174.493C174.262 307.467 174.03 308.895 173.76 310.284C172.525 310.361 171.831 310.399 170.558 310.399C169.246 310.399 167.895 310.361 166.622 310.284C166.429 310.284 166.275 310.168 166.275 309.975ZM175.149 301.024H177.31C176.885 298.169 176.499 295.275 176.114 292.381C175.766 295.236 175.458 298.13 175.149 301.024Z" fill="black" fill-opacity="0.7"/>
<path d="M58.6333 82.1655C71.6297 82.1655 82.1655 71.6297 82.1655 58.6333C82.1655 45.6368 71.6297 35.1011 58.6333 35.1011C45.6368 35.1011 35.1011 45.6368 35.1011 58.6333C35.1011 71.6297 45.6368 82.1655 58.6333 82.1655Z" fill="#EF5350"/>
<path d="M65.6931 72.5175C61.1435 68.7524 56.1233 68.7524 51.5738 72.5175C51.0247 72.9882 50.554 72.2038 50.9462 71.4978C52.3582 68.8308 55.1036 66.3992 58.6334 66.3992C62.1633 66.3992 64.9871 68.8308 66.3206 71.4978C66.7128 72.1253 66.2422 72.9097 65.6931 72.5175Z" fill="#302424"/>
<path d="M41.5333 53.0642C40.3567 56.7509 42.004 60.9083 45.6907 62.5555C49.2989 64.2812 53.5347 62.9477 55.6526 59.6532L50.2402 53.6133L41.5333 53.0642Z" fill="white"/>
<path d="M44.671 53.7699C43.5728 56.0447 44.5925 58.7901 46.8673 59.8098C49.1421 60.908 51.8875 59.8883 52.9072 57.6135C53.6916 56.1231 45.3769 52.2795 44.671 53.7699Z" fill="#302424"/>
<path d="M41.533 53.0638C42.788 52.2794 44.2784 51.8872 45.7688 51.8872C47.2591 51.8872 48.7495 52.2794 50.1614 52.9069C51.4949 53.5345 52.75 54.4757 53.7697 55.5739C54.711 56.7505 55.4954 58.084 55.6523 59.5744C54.6325 58.5547 53.6128 57.6918 52.5146 56.9074C51.4165 56.123 50.3183 55.4955 49.2201 55.0248C48.0435 54.4757 46.8669 54.0835 45.6119 53.6913C44.1999 53.456 42.9449 53.2207 41.533 53.0638Z" fill="#302424"/>
<path d="M75.7333 53.0642C76.9099 56.7509 75.2627 60.9083 71.576 62.5555C67.9677 64.2812 63.7319 62.9477 61.614 59.6532L67.0264 53.6133L75.7333 53.0642Z" fill="white"/>
<path d="M72.5955 53.7699C73.6937 56.0447 72.674 58.7901 70.3992 59.8098C68.1244 60.908 65.379 59.8883 64.3593 57.6135C63.5749 56.1231 71.8896 52.2795 72.5955 53.7699Z" fill="#302424"/>
<path d="M75.7333 53.0638C74.4783 52.2794 72.9879 51.8872 71.4975 51.8872C70.0072 51.8872 68.5168 52.2794 67.1049 52.9069C65.7714 53.5345 64.5163 54.4757 63.4966 55.5739C62.5553 56.7505 61.7709 58.084 61.614 59.5744C62.6337 58.5547 63.6535 57.6918 64.7516 56.9074C65.8498 56.123 66.948 55.4955 68.0461 55.0248C69.2228 54.4757 70.3994 54.0835 71.6544 53.6913C73.0663 53.456 74.3214 53.2207 75.7333 53.0638Z" fill="#302424"/>
<path d="M224.927 400.634C237.923 400.634 248.459 390.098 248.459 377.102C248.459 364.105 237.923 353.57 224.927 353.57C211.93 353.57 201.395 364.105 201.395 377.102C201.395 390.098 211.93 400.634 224.927 400.634Z" fill="#EF5350"/>
<path d="M231.986 390.986C227.437 387.221 222.417 387.221 217.867 390.986C217.318 391.457 216.847 390.672 217.239 389.966C218.651 387.299 221.397 384.868 224.927 384.868C228.456 384.868 231.28 387.299 232.614 389.966C233.006 390.594 232.535 391.378 231.986 390.986Z" fill="#302424"/>
<path d="M207.827 371.533C206.65 375.22 208.297 379.377 211.984 381.024C215.592 382.75 219.828 381.416 221.946 378.122L216.534 372.082L207.827 371.533Z" fill="white"/>
<path d="M210.964 372.239C209.866 374.513 210.886 377.259 213.161 378.279C215.436 379.377 218.181 378.357 219.201 376.082C219.985 374.592 211.67 370.748 210.964 372.239Z" fill="#302424"/>
<path d="M207.827 371.533C209.082 370.748 210.572 370.356 212.062 370.356C213.553 370.356 215.043 370.748 216.455 371.376C217.789 372.003 219.044 372.945 220.063 374.043C221.005 375.22 221.789 376.553 221.946 378.043C220.926 377.024 219.907 376.161 218.808 375.376C217.71 374.592 216.612 373.964 215.514 373.494C214.337 372.945 213.161 372.553 211.906 372.16C210.494 371.925 209.239 371.69 207.827 371.533Z" fill="#302424"/>
<path d="M242.027 371.533C243.203 375.22 241.556 379.377 237.869 381.024C234.261 382.75 230.025 381.416 227.907 378.122L233.32 372.082L242.027 371.533Z" fill="white"/>
<path d="M238.889 372.239C239.987 374.513 238.967 377.259 236.693 378.279C234.418 379.377 231.672 378.357 230.653 376.082C229.868 374.592 238.183 370.748 238.889 372.239Z" fill="#302424"/>
<path d="M242.027 371.533C240.772 370.748 239.281 370.356 237.791 370.356C236.301 370.356 234.81 370.748 233.398 371.376C232.065 372.003 230.81 372.945 229.79 374.043C228.849 375.22 228.064 376.553 227.907 378.043C228.927 377.024 229.947 376.161 231.045 375.376C232.143 374.592 233.241 373.964 234.34 373.494C235.516 372.945 236.693 372.553 237.948 372.16C239.36 371.925 240.615 371.69 242.027 371.533Z" fill="#302424"/>
<path d="M99.4221 28.8257H254.735V308.074" stroke="#0070D8" stroke-width="4.70644" stroke-linecap="round" stroke-linejoin="round"/>
<path d="M187.276 406.91H28.8256V124.524" stroke="#0070D8" stroke-width="4.70644" stroke-linecap="round" stroke-linejoin="round"/>
<rect x="5.29283" y="5.29283" width="272.975" height="425.15" rx="18.8265" stroke="#0070D8" stroke-width="9.41433"/>
</g>
<defs>
<filter id="filter0_d_38_466" x="0.585693" y="0.585693" width="282.389" height="440.839" filterUnits="userSpaceOnUse" color-interpolation-filters="sRGB">
<feFlood flood-opacity="0" result="BackgroundImageFix"/>
<feColorMatrix in="SourceAlpha" type="matrix" values="0 0 0 0 0 0 0 0 0 0 0 0 0 0 0 0 0 0 127 0" result="hardAlpha"/>
<feOffset dy="6.27525"/>
<feComposite in2="hardAlpha" operator="out"/>
<feColorMatrix type="matrix" values="0 0 0 0 0 0 0 0 0 0 0 0 0 0 0 0 0 0 0.15 0"/>
<feBlend mode="normal" in2="BackgroundImageFix" result="effect1_dropShadow_38_466"/>
<feBlend mode="normal" in="SourceGraphic" in2="effect1_dropShadow_38_466" result="shape"/>
</filter>
</defs>
</svg>
